<svg xmlns="http://www.w3.org/2000/svg" version="1.1" xmlns:xlink="http://www.w3.org/1999/xlink" xmlns:svgjs="http://svgjs.com/svgjs" width="512" height="512" x="0" y="0" viewBox="0 0 16 16" style="enable-background:new 0 0 512 512" xml:space="preserve" class="hovered-paths"><g><path xmlns="http://www.w3.org/2000/svg" d="m14.5669 5.5205a.5.5 0 0 0 -.3359.6221 6.4948 6.4948 0 1 1 -4.3736-4.3726.5.5 0 0 0 .2852-.959 7.4947 7.4947 0 1 0 5.0464 5.0464.4991.4991 0 0 0 -.6221-.3369z" fill="#3c54c0" data-original="#000000" class="hovered-path"></path><path xmlns="http://www.w3.org/2000/svg" d="m7.5 6.5h2a.5.5 0 0 0 0-1h-1v-.5a.5.5 0 0 0 -1 0v.5a1.5 1.5 0 0 0 0 3h1a.5.5 0 0 1 0 1h-2a.5.5 0 0 0 0 1h1v.5a.5.5 0 0 0 1 0v-.5a1.5 1.5 0 0 0 0-3h-1a.5.5 0 0 1 0-1z" fill="#3c54c0" data-original="#000000" class="hovered-path"></path><path xmlns="http://www.w3.org/2000/svg" d="m12.5.5a.5.5 0 0 0 -.5.5v3.793l-.6465-.6465a.5.5 0 0 0 -.707.707l1.4994 1.4994a.5016.5016 0 0 0 .7082 0l1.4994-1.4994a.5.5 0 0 0 -.707-.707l-.6465.6465v-3.793a.5.5 0 0 0 -.5-.5z" fill="#3c54c0" data-original="#000000" class="hovered-path"></path></g></svg>