<svg xmlns="http://www.w3.org/2000/svg" version="1.1" xmlns:xlink="http://www.w3.org/1999/xlink" xmlns:svgjs="http://svgjs.com/svgjs" width="40" height="40" x="0" y="0" viewBox="0 0 512 512" style="enable-background:new 0 0 512 512" xml:space="preserve" class=""><g><path xmlns="http://www.w3.org/2000/svg" d="m504 17.19h-443.562c-4.418 0-8 3.582-8 8v64.256c-25.82 11.855-42.279 30.122-49.036 54.549-11.543 41.726 8.756 92.521 27.816 127.785 20.739 38.371 51.305 79.455 81.762 109.9 30.356 30.345 71.329 60.864 109.601 81.641 28.233 15.326 66.38 31.454 101.873 31.454 8.969 0 17.772-1.03 26.199-3.364 31.895-8.831 53.309-34.244 63.645-75.529 3.693-14.736-2.667-29.742-15.826-37.339l-67.405-38.916c-13.382-7.728-29.714-5.577-40.64 5.349l-21.117 21.118c-5.305 5.305-12.855 6.697-19.706 3.636-27.487-12.294-52.45-29.104-74.204-49.968-.182-.174-.334-.327-.515-.516-6.84-7.133-13.236-14.618-19.189-22.418h348.304c4.418 0 8-3.582 8-8v-263.638c0-4.418-3.582-8-8-8zm-176.181 139.819 168.181-116.542v233.085zm-241.791-123.819h392.382l-196.19 135.952zm-17.59 7.277 168.182 116.542-113.125 78.391c.505-3.694 2.215-7.198 5.069-10.051l21.117-21.117c10.926-10.927 13.076-27.259 5.35-40.64l-38.917-67.406c-7.598-13.158-22.602-19.519-37.339-15.824-3.567.894-7.008 1.876-10.337 2.936zm95.894 290.848c23.076 22.134 49.568 39.973 78.739 53.02 12.854 5.748 27.594 3.028 37.552-6.927l21.118-21.118c5.731-5.733 14.301-6.863 21.325-2.808l67.405 38.916c7.014 4.05 10.274 11.741 8.306 19.596-8.834 35.285-26.462 56.817-52.394 63.998-36.626 10.142-83.39-8.938-116.169-26.732-36.996-20.084-76.594-49.577-105.924-78.896-29.422-29.41-58.953-69.108-78.997-106.191-17.663-32.68-36.595-79.317-26.472-115.911 7.177-25.943 28.656-43.567 63.842-52.381 7.856-1.967 15.546 1.292 19.595 8.305l38.917 67.406c4.054 7.021 2.926 15.592-2.809 21.325l-21.117 21.117c-9.957 9.958-12.676 24.698-6.927 37.553 13.046 29.168 30.883 55.658 53.008 78.727.347.361.648.663 1.002 1.001zm-36.296-79.596 122.629-84.977 26.998 18.708c1.37.95 2.964 1.425 4.557 1.425s3.187-.475 4.557-1.425l26.998-18.708 164.635 114.086h-334c-6.062-9.322-11.527-19.037-16.374-29.109z" fill="#ffffff" data-original="#000000" class=""></path></g></svg>