<svg xmlns="http://www.w3.org/2000/svg" version="1.1" xmlns:xlink="http://www.w3.org/1999/xlink" xmlns:svgjs="http://svgjs.com/svgjs" width="10" height="10" x="0" y="0" viewBox="0 0 512 512" style="enable-background:new 0 0 512 512" xml:space="preserve" class=""><g><g xmlns="http://www.w3.org/2000/svg"><path d="m437.02 74.98c-48.353-48.351-112.64-74.98-181.02-74.98s-132.667 26.629-181.02 74.98c-48.351 48.353-74.98 112.64-74.98 181.02s26.629 132.667 74.98 181.02c48.353 48.351 112.64 74.98 181.02 74.98s132.667-26.629 181.02-74.98c48.351-48.353 74.98-112.64 74.98-181.02s-26.629-132.667-74.98-181.02zm-21.214 340.826c-42.686 42.686-99.439 66.194-159.806 66.194s-117.12-23.508-159.806-66.194-66.194-99.439-66.194-159.806 23.508-117.12 66.194-159.806 99.439-66.194 159.806-66.194 117.12 23.508 159.806 66.194 66.194 99.439 66.194 159.806-23.508 117.12-66.194 159.806z" fill="#3c54c0" data-original="#000000" class=""></path><path d="m394.593 117.407c-37.02-37.019-86.239-57.407-138.593-57.407s-101.573 20.388-138.593 57.407-57.407 86.239-57.407 138.593 20.388 101.573 57.407 138.593l10.606 10.607 53.033-53.033-21.213-21.213-31.345 31.344c-22.216-26.611-34.79-58.599-37.731-91.298h44.243v-30h-44.244c2.941-32.699 15.523-64.681 37.739-91.292l31.338 31.338 21.213-21.213-31.342-31.342c25.966-21.721 57.576-34.814 91.296-37.815v44.324h30v-44.324c33.72 3.001 65.33 16.094 91.296 37.816l-86.906 86.906c-5.876-2.817-12.451-4.398-19.39-4.398-24.813 0-45 20.187-45 45 0 6.939 1.581 13.514 4.398 19.389l-23.037 23.037 21.213 21.213 23.037-23.037c5.875 2.817 12.45 4.398 19.389 4.398 24.813 0 45-20.187 45-45 0-6.939-1.581-13.515-4.398-19.39l86.903-86.902c22.216 26.61 34.798 58.593 37.739 91.292h-44.244v30h44.243c-2.941 32.699-15.515 64.687-37.731 91.298l-31.346-31.345-21.213 21.213 53.033 53.033 10.606-10.607c76.421-76.42 76.421-200.764.001-277.185zm-138.593 153.593c-8.271 0-15-6.729-15-15s6.729-15 15-15 15 6.729 15 15-6.729 15-15 15z" fill="#3c54c0" data-original="#000000" class=""></path><path d="m211 362h90v30h-90z" fill="#3c54c0" data-original="#000000" class=""></path><path d="m241 422h30v30h-30z" fill="#3c54c0" data-original="#000000" class=""></path></g></g></svg>