<?xml version="1.0" standalone="no"?>
<!DOCTYPE svg PUBLIC "-//W3C//DTD SVG 1.1//EN" "http://www.w3.org/Graphics/SVG/1.1/DTD/svg11.dtd" >
<svg>
<metadata>
Created by FontForge 20090914 at Sat Jan 29 12:31:15 2022
 By www-data
Copyright (c) 2011, Sorkin Type Co (www.sorkintype.com) with Reserved Font Name "Krona".
</metadata>
<defs>
<font id="KronaOne-Regular" horiz-adv-x="2048" >
  <font-face 
    font-family="Krona One"
    font-weight="400"
    font-stretch="normal"
    units-per-em="2048"
    panose-1="2 1 6 5 3 5 0 6 0 4"
    ascent="1638"
    descent="-410"
    x-height="1180"
    cap-height="1563"
    bbox="-215 -530.002 2953 2030"
    underline-thickness="50"
    underline-position="-50"
    unicode-range="U+0001-U+FB02"
  />
<missing-glyph horiz-adv-x="519" 
 />
    <glyph glyph-name=".notdef" horiz-adv-x="519" 
 />
    <glyph glyph-name="uni0001" horiz-adv-x="0" 
 />
    <glyph glyph-name="uni0002" horiz-adv-x="0" 
 />
    <glyph glyph-name="uni0003" horiz-adv-x="0" 
 />
    <glyph glyph-name="uni0004" horiz-adv-x="0" 
 />
    <glyph glyph-name="uni0005" horiz-adv-x="0" 
 />
    <glyph glyph-name="uni0006" horiz-adv-x="0" 
 />
    <glyph glyph-name="uni0007" horiz-adv-x="0" 
 />
    <glyph glyph-name="uni0008" horiz-adv-x="0" 
 />
    <glyph glyph-name="uni0009" unicode="&#x9;" horiz-adv-x="0" 
 />
    <glyph glyph-name="uni0010" horiz-adv-x="0" 
 />
    <glyph glyph-name="uni0011" horiz-adv-x="0" 
 />
    <glyph glyph-name="uni0012" horiz-adv-x="0" 
 />
    <glyph glyph-name="uni0013" horiz-adv-x="0" 
 />
    <glyph glyph-name="uni0014" horiz-adv-x="0" 
 />
    <glyph glyph-name="uni0015" horiz-adv-x="0" 
 />
    <glyph glyph-name="uni0016" horiz-adv-x="0" 
 />
    <glyph glyph-name="uni0017" horiz-adv-x="0" 
 />
    <glyph glyph-name="uni0018" horiz-adv-x="0" 
 />
    <glyph glyph-name="uni0019" horiz-adv-x="0" 
 />
    <glyph glyph-name="space" unicode=" " horiz-adv-x="680" 
 />
    <glyph glyph-name="exclam" unicode="!" horiz-adv-x="858" 
d="M270 1563h317v-994h-317v994zM191 173c0 26.667 5.5 51.834 16.5 75.501s26.833 44.334 47.5 62.001s45.667 31.5 75 41.5s62.333 15 99 15s69.667 -5 99 -15s54.166 -23.833 74.499 -41.5s36 -38.334 47 -62.001s16.5 -48.834 16.5 -75.501s-5.5 -51.834 -16.5 -75.501
s-26.667 -44.167 -47 -61.5s-45.166 -31.166 -74.499 -41.499s-62.333 -15.5 -99 -15.5s-69.667 5.16699 -99 15.5s-54.333 24.166 -75 41.499s-36.5 37.833 -47.5 61.5s-16.5 48.834 -16.5 75.501z" />
    <glyph glyph-name="quotedbl" unicode="&#x22;" horiz-adv-x="1359" 
d="M300 1659h257v-702h-257v702zM802 1659h257v-702h-257v702z" />
    <glyph glyph-name="numbersign" unicode="#" 
d="M430 387h-273v222h321l80 377h-401v222h448l78 365h257l-78 -365h473l78 365h257l-78 -365h298v-222h-345l-80 -377h425v-222h-473l-82 -387h-257l82 387h-473l-82 -387h-257zM1208 609l80 377h-473l-80 -377h473z" />
    <glyph glyph-name="dollar" unicode="$" 
d="M295 465c48 -27.333 96.335 -52.166 145.002 -74.499s98.834 -42 150.501 -59s105 -31.333 160 -43s113.167 -19.834 174.5 -24.501v394c-34 -4 -66.667 -7.33301 -98 -10s-61.666 -4 -90.999 -4c-70 0 -137.167 9 -201.5 27s-121.333 45 -171 81s-89.167 81 -118.5 135
s-44 117 -44 189c0 61.333 12.833 121.833 38.5 181.5s67.334 113.334 125.001 161.001s132.5 87.167 224.5 118.5s204 49.333 336 54v303h237v-309c111.333 -10 218.166 -28.333 320.499 -55s196.166 -59 281.499 -97l-139 -256c-66.667 28.667 -138.667 54 -216 76
s-159.666 38 -246.999 48v-318c32 3.33301 64 6.16602 96 8.49902s63.333 3.5 94 3.5c92 0 173.5 -10.333 244.5 -31s130.5 -50.167 178.5 -88.5s84.333 -84.666 109 -138.999s37 -115.166 37 -182.499c0 -83.333 -17.833 -158.5 -53.5 -225.5
s-86.334 -124.833 -152.001 -173.5s-145.334 -87.667 -239.001 -117s-198.5 -48 -314.5 -56v-304h-237v303c-154.667 9.33301 -299.834 34.166 -435.501 74.499s-256.834 91.166 -363.501 152.499zM533.002 1106c0 -46.667 21.001 -84.835 63.001 -114.502
s106 -44.5 192 -44.5c19.333 0 40.666 0.833008 63.999 2.5s47.666 3.83398 72.999 6.50098v354c-75.333 -2.66699 -138.166 -10.667 -188.499 -24s-90.5 -29.666 -120.5 -48.999s-51.333 -40.5 -64 -63.5s-19 -45.5 -19 -67.5zM1162 261.999
c76 4.66699 141 14.334 195 29.001s98.167 33.167 132.5 55.5s59.333 47.833 75 76.5s23.5 59 23.5 91c0 56.667 -23.667 101.5 -71 134.5s-120.333 49.5 -219 49.5c-21.333 0 -43.5 -0.833008 -66.5 -2.5s-46.167 -3.83398 -69.5 -6.50098v-427z" />
    <glyph glyph-name="percent" unicode="%" horiz-adv-x="2044" 
d="M469 785c-58.667 0 -112.834 9.66699 -162.501 29s-92.5 46.5 -128.5 81.5s-64 77.333 -84 127s-30 105.167 -30 166.5c0 60.667 10 116 30 166s48 92.5 84 127.5s78.833 62.167 128.5 81.5s103.834 29 162.501 29s112.834 -9.66699 162.501 -29s92.5 -46.5 128.5 -81.5
s64 -77.5 84 -127.5s30 -105.333 30 -166c0 -61.333 -10 -116.833 -30 -166.5s-48 -92 -84 -127s-78.833 -62.167 -128.5 -81.5s-103.834 -29 -162.501 -29zM1501 1574h307l-1255 -1574h-307zM469 989c25.333 0 49.166 4.83301 71.499 14.5s41.833 23.334 58.5 41.001
s29.834 38.834 39.501 63.501s14.5 51.667 14.5 81s-4.83301 56.333 -14.5 81s-22.834 45.834 -39.501 63.501s-36.167 31.334 -58.5 41.001s-46.166 14.5 -71.499 14.5s-49.166 -4.83301 -71.499 -14.5s-41.833 -23.334 -58.5 -41.001s-29.834 -38.834 -39.501 -63.501
s-14.5 -51.667 -14.5 -81s4.83301 -56.333 14.5 -81s22.834 -45.834 39.501 -63.501s36.167 -31.334 58.5 -41.001s46.166 -14.5 71.499 -14.5zM1170 383c0 60.667 10 116 30 166s48 92.5 84 127.5s78.833 62.167 128.5 81.5s103.834 29 162.501 29
s112.834 -9.66699 162.501 -29s92.5 -46.5 128.5 -81.5s64 -77.5 84 -127.5s30 -105.333 30 -166c0 -61.333 -10 -116.833 -30 -166.5s-48 -92 -84 -127s-78.833 -62.167 -128.5 -81.5s-103.834 -29 -162.501 -29s-112.834 9.66699 -162.501 29s-92.5 46.5 -128.5 81.5
s-64 77.333 -84 127s-30 105.167 -30 166.5zM1391 383c0 -29.333 4.83301 -56.333 14.5 -81s22.834 -45.834 39.501 -63.501s36.167 -31.334 58.5 -41.001s46.166 -14.5 71.499 -14.5s49.166 4.83301 71.499 14.5s41.833 23.334 58.5 41.001s29.834 38.834 39.501 63.501
s14.5 51.667 14.5 81s-4.83301 56.333 -14.5 81s-22.834 45.834 -39.501 63.501s-36.167 31.334 -58.5 41.001s-46.166 14.5 -71.499 14.5s-49.166 -4.83301 -71.499 -14.5s-41.833 -23.334 -58.5 -41.001s-29.834 -38.834 -39.501 -63.501s-14.5 -51.667 -14.5 -81z" />
    <glyph glyph-name="ampersand" unicode="&#x26;" horiz-adv-x="2222" 
d="M167 498c0 32.667 3.33008 64.9932 9.99707 96.9932s18.167 65.333 34.5 100s38 71.167 65 109.5s61.167 80.5 102.5 126.5c-23.333 38 -40.166 75.167 -50.499 111.5s-15.5 73.5 -15.5 111.5c0 62.667 12.667 120.334 38 173.001s61 98.167 107 136.5
s101 68.166 165 89.499s134.667 32 212 32c82.667 0 157.167 -12 223.5 -36s122.833 -56.333 169.5 -97s82.5 -88.167 107.5 -142.5s37.5 -111.5 37.5 -171.5c0 -36.667 -4.83301 -73.5 -14.5 -110.5s-24.167 -75.333 -43.5 -115s-43.333 -81.167 -72 -124.5
s-62 -89.666 -100 -138.999l237 -177c51.333 60.667 94.5 129.834 129.5 207.501s62.167 161.834 81.5 252.501h-101v248h660v-248h-296c-23.333 -114.667 -55.333 -224.167 -96 -328.5s-94 -199.166 -160 -284.499c30.667 -17.333 59.834 -30.833 87.501 -40.5
s54.5 -16.5 80.5 -20.5s51.5 -5.66699 76.5 -5s50.833 3 77.5 7l90 -259c-57.333 -11.333 -111.166 -18.666 -161.499 -21.999s-100.333 -1.16602 -150 6.50098s-100.667 21.834 -153 42.501s-108.833 50 -169.5 88c-69.333 -43.333 -146.833 -77 -232.5 -101
s-182.167 -36 -289.5 -36c-114 0 -214 13.667 -300 41s-157.667 64.5 -215 111.5s-100.333 102 -129 165s-43 130.167 -43 201.5zM928.997 809.993c48 63.333 82.1699 119.5 102.503 168.5s30.5 95.5 30.5 139.5c0 36.667 -6.16699 68.167 -18.5 94.5
s-28.833 47.833 -49.5 64.5s-44.834 29 -72.501 37s-56.834 12 -87.501 12c-33.333 0 -63 -4.16699 -89 -12.5s-48 -19.833 -66 -34.5s-31.667 -32 -41 -52s-14 -41.667 -14 -65c0 -17.333 3.16699 -35.833 9.5 -55.5s18 -41.5 35 -65.5s40.667 -50.333 71 -79
s69.166 -61 116.499 -97zM478 519.993c0 -37.333 7.83398 -73.001 23.501 -107.001s39.667 -64 72 -90s73 -46.667 122 -62s106.833 -23 173.5 -23c49.333 0 96 4.33301 140 13s86 21.334 126 38.001l-488 371l-44 34l-41 34
c-26.667 -33.333 -47.334 -66.833 -62.001 -100.5s-22 -69.5 -22 -107.5z" />
    <glyph glyph-name="quotesingle" unicode="'" horiz-adv-x="858" 
d="M300 1659h257v-702h-257v702z" />
    <glyph glyph-name="parenleft" unicode="(" horiz-adv-x="1190" 
d="M255 786c0 115.333 16.667 226.668 50 334.001s79.666 209 138.999 305s130.166 185.5 212.499 268.5s172.166 158.5 269.499 226.5l137 -211c-82 -64.667 -156.333 -131.834 -223 -201.501s-123.5 -142.834 -170.5 -219.501s-83.333 -156.667 -109 -240
s-38.5 -170.666 -38.5 -261.999s9.83301 -178 29.5 -260s49.5 -160.333 89.5 -235s90.333 -146.167 151 -214.5s132 -134.833 214 -199.5l-137 -211c-97.333 68 -184.166 142.833 -260.499 224.5s-140.666 169.667 -192.999 264s-92.166 194.333 -119.499 300
s-41 216.167 -41 331.5z" />
    <glyph glyph-name="parenright" unicode=")" horiz-adv-x="1190" 
d="M935.016 786c0 115.333 -16.668 226.668 -49.999 334.001s-79.6611 209 -138.99 305c-59.3301 96 -130.159 185.5 -212.487 268.5s-172.156 158.5 -269.483 226.5l-136.992 -211c81.9951 -64.667 156.324 -131.834 222.986 -201.501
c66.6631 -69.667 123.493 -142.834 170.49 -219.501s83.3281 -156.667 108.993 -240s38.498 -170.666 38.498 -261.999s-9.83301 -178 -29.499 -260c-19.665 -82 -49.4961 -160.333 -89.4932 -235s-90.3271 -146.167 -150.99 -214.5s-131.992 -134.833 -213.987 -199.5
l136.991 -211c97.3271 68 184.155 142.833 260.484 224.5s140.658 169.667 192.988 264s92.1611 194.333 119.492 300c27.332 105.667 40.998 216.167 40.998 331.5z" />
    <glyph glyph-name="asterisk" unicode="*" horiz-adv-x="1365" 
d="M284 1047l213 293l-344 113l70 217l345 -113l-2 363h231l-2 -363l346 112l71 -217l-344 -112l210 -293l-184 -134l-212 294l-214 -293z" />
    <glyph glyph-name="plus" unicode="+" horiz-adv-x="1191" 
d="M479 684h-342v222h342v339h232v-339h343v-222h-343v-357h-232v357z" />
    <glyph glyph-name="comma" unicode="," horiz-adv-x="858" 
d="M191 174c0 26.667 5.66504 51.667 16.998 75s27.166 43.833 47.499 61.5s45 31.5 74 41.5s61.5 15 97.5 15c38.667 0 74.167 -6.16699 106.5 -18.5s60.166 -30.166 83.499 -53.499s41.5 -51.833 54.5 -85.5s19.5 -71.5 19.5 -113.5c0 -94.667 -32.5 -185.5 -97.5 -272.5
s-159.5 -164.167 -283.5 -231.5l-120 170c32.667 17.333 61.334 34.5 86.001 51.5s46.334 34.167 65.001 51.5s34.834 35.333 48.501 54s25.834 38.667 36.501 60c-35.333 0 -67.5 5.16699 -96.5 15.5s-53.833 24.166 -74.5 41.499s-36.5 37.833 -47.5 61.5
s-16.5 49.167 -16.5 76.5z" />
    <glyph glyph-name="hyphen" unicode="-" horiz-adv-x="1191" 
d="M137 906h917v-222h-917v222z" />
    <glyph glyph-name="period" unicode="." horiz-adv-x="858" 
d="M191 173c0 26.667 5.5 51.834 16.5 75.501s26.833 44.334 47.5 62.001s45.667 31.5 75 41.5s62.333 15 99 15s69.667 -5 99 -15s54.166 -23.833 74.499 -41.5s36 -38.334 47 -62.001s16.5 -48.834 16.5 -75.501s-5.5 -51.834 -16.5 -75.501s-26.667 -44.167 -47 -61.5
s-45.166 -31.166 -74.499 -41.499s-62.333 -15.5 -99 -15.5s-69.667 5.16699 -99 15.5s-54.333 24.166 -75 41.499s-36.5 37.833 -47.5 61.5s-16.5 48.834 -16.5 75.501z" />
    <glyph glyph-name="slash" unicode="/" horiz-adv-x="1533" 
d="M1087 1770h287l-929 -2124h-287z" />
    <glyph glyph-name="zero" unicode="0" horiz-adv-x="1879" 
d="M129 785c0 126 19 239 57 339s92 184.833 162 254.5s155 122.834 255 159.501s212 55 336 55s236 -18.333 336 -55s185 -89.834 255 -159.501s124 -154.5 162 -254.5s57 -213 57 -339s-19 -239 -57 -339s-92 -184.667 -162 -254s-155 -122.333 -255 -159
s-212 -55 -336 -55s-236 18.333 -336 55s-185 89.667 -255 159s-124 154 -162 254s-57 213 -57 339zM446 786c0 -85.333 11.5 -160.666 34.5 -225.999s55.833 -120.166 98.5 -164.499s94.334 -78 155.001 -101s129 -34.5 205 -34.5s144.333 11.5 205 34.5
s112.334 56.667 155.001 101s75.5 99.166 98.5 164.499s34.5 140.666 34.5 225.999c0 84.667 -11.5 159.5 -34.5 224.5s-55.833 119.833 -98.5 164.5s-94.334 78.5 -155.001 101.5s-129 34.5 -205 34.5s-144.333 -11.5 -205 -34.5s-112.334 -56.833 -155.001 -101.5
s-75.5 -99.5 -98.5 -164.5s-34.5 -139.833 -34.5 -224.5z" />
    <glyph glyph-name="one" unicode="1" horiz-adv-x="1195" 
d="M163 278h355v973c-46.667 -10.667 -91.5 -24.667 -134.5 -42s-82.167 -38.333 -117.5 -63l-156 223c57.333 36 115.833 66.5 175.5 91.5s120 45 181 60s122.333 25.833 184 32.5s123.167 10 184.5 10l-1 -2h1v-1283h339v-278h-1011v278z" />
    <glyph glyph-name="two" unicode="2" horiz-adv-x="1710" 
d="M220 272l550.998 377.997c82.667 56.667 150.334 106 203.001 148s94 79.5 124 112.5s50.667 62.833 62 89.5s17 53.334 17 80.001c0 30.667 -6.33301 59.334 -19 86.001s-32.5 50 -59.5 70s-61.667 35.667 -104 47s-92.833 17 -151.5 17
c-85.333 0 -170.333 -12 -255 -36s-171 -62.333 -259 -115l-146 240c98 60.667 204.167 108 318.5 142s234.5 51 360.5 51c110 0 205.5 -13.167 286.5 -39.5s148 -62.166 201 -107.499s92.5 -98 118.5 -158s39 -123.667 39 -191c0 -52 -8.66699 -101.667 -26 -149
s-47.666 -96.333 -90.999 -147s-101.833 -105.167 -175.5 -163.5s-166.5 -124.5 -278.5 -198.5l-228 -150h856v-278h-1344v272z" />
    <glyph glyph-name="three" unicode="3" horiz-adv-x="1710" 
d="M277 372c78.667 -38.667 162.829 -66.8301 252.496 -84.4971s177.167 -26.5 262.5 -26.5c76 0 141.667 6.16699 197 18.5s101 29.166 137 50.499s62.667 46.666 80 75.999s26 61 26 95c0 46 -15.667 87.167 -47 123.5s-78.833 63.666 -142.5 81.999s-144 25.5 -241 21.5
s-211.167 -23 -342.5 -57l1 234l584 380h-827v278h1251v-272l-514 -326c94 0 178 -12 252 -36s136.333 -57 187 -99s89.334 -91.667 116.001 -149s40 -119 40 -185c0 -78 -17.167 -148.833 -51.5 -212.5s-84.166 -118 -149.499 -163s-145.166 -79.833 -239.499 -104.5
s-201.166 -37 -320.499 -37c-126.667 0 -243.667 13.5 -351 40.5s-209.333 64.5 -306 112.5z" />
    <glyph glyph-name="four" unicode="4" horiz-adv-x="1874" 
d="M191 612l914 951h317v-951h337v-278h-337v-334h-317v334h-916zM1105 612v550l-534 -550h534z" />
    <glyph glyph-name="five" unicode="5" horiz-adv-x="1710" 
d="M265 372c38 -19.333 79.166 -35.833 123.499 -49.5s90 -25.167 137 -34.5s94.333 -16.166 142 -20.499s94.167 -6.5 139.5 -6.5c80 0 149.167 5.83301 207.5 17.5s106.333 28.167 144 49.5s65.667 46.833 84 76.5s27.5 62.5 27.5 98.5
c0 36.667 -9.5 70.334 -28.5 101.001s-47.333 57 -85 79s-85 39.167 -142 51.5s-123.5 18.5 -199.5 18.5c-34 0 -72.333 -1.5 -115 -4.5s-88 -7.83301 -136 -14.5s-98 -15.834 -150 -27.501s-104.667 -25.834 -158 -42.501v899h1199v-281h-906v-303
c50 11.333 102.333 20.833 157 28.5s115.667 11.5 183 11.5c110 0 208.333 -12 295 -36s159.834 -58.333 219.501 -103s105.167 -98.5 136.5 -161.5s47 -133.5 47 -211.5c0 -80.667 -16.833 -153.5 -50.5 -218.5s-83.334 -120.5 -149.001 -166.5
s-146.334 -81.333 -242.001 -106s-205.5 -37 -329.5 -37c-64 0 -127.5 3.5 -190.5 10.5s-124.167 17 -183.5 30s-116.166 29 -170.499 48s-105.166 40.5 -152.499 64.5z" />
    <glyph glyph-name="six" unicode="6" horiz-adv-x="1874" 
d="M194 738c0 142 21.1621 265.831 63.4951 371.498s100.333 193.5 174 263.5s160.5 122.333 260.5 157s208 52 324 52c48.667 0 98.167 -2.5 148.5 -7.5s99.833 -12.833 148.5 -23.5s95.834 -24.5 141.501 -41.5s88.167 -37.167 127.5 -60.5l-141 -240
c-29.333 16.667 -60.5 30.834 -93.5 42.501s-67.167 21 -102.5 28s-71 12.167 -107 15.5s-71.333 5 -106 5c-77.333 0 -147.166 -10 -209.499 -30s-116.166 -48.333 -161.499 -85s-81.5 -80.5 -108.5 -131.5s-43.833 -107.5 -50.5 -169.5c34.667 27.333 73 51 115 71
s86.5 36.5 133.5 49.5s95.333 22.667 145 29s99.5 9.5 149.5 9.5c97.333 0 185.833 -11.667 265.5 -35s147.834 -57 204.501 -101s100.5 -97.5 131.5 -160.5s46.5 -134.5 46.5 -214.5c0 -78.667 -15.5 -151.667 -46.5 -219s-76.833 -125.833 -137.5 -175.5
s-136 -88.667 -226 -117s-194.333 -42.5 -313 -42.5c-115.333 0 -220.666 14.667 -315.999 44s-177 75 -245 137s-120.833 140.833 -158.5 236.5s-56.5 209.834 -56.5 342.501zM508.995 590.998c16 -109.333 63.999 -191.835 143.999 -247.502s185 -83.5 315 -83.5
c65.333 0 123.333 6.66699 174 20s93.334 31.833 128.001 55.5s61 51.834 79 84.501s27 68.334 27 107.001c0 32.667 -7 63.334 -21 92.001s-35.833 53.5 -65.5 74.5s-67.834 37.667 -114.501 50s-103 18.5 -169 18.5c-55.333 0 -107.666 -4.33301 -156.999 -13
s-95 -20.667 -137 -36s-80.167 -33.333 -114.5 -54s-63.833 -43.334 -88.5 -68.001z" />
    <glyph glyph-name="seven" unicode="7" horiz-adv-x="1537" 
d="M1017 1283h-909v280h1389l-815 -1563h-360z" />
    <glyph glyph-name="eight" unicode="8" horiz-adv-x="1874" 
d="M157 476c0 46.667 6.33105 90 18.998 130s30 76.5 52 109.5s47.5 62.333 76.5 88s60.167 48.167 93.5 67.5c-46 45.333 -79.333 90.5 -100 135.5s-31 88.167 -31 129.5c0 66 15.5 126.333 46.5 181s75.5 101.834 133.5 141.501s128.333 70.334 211 92.001
s175.667 32.5 279 32.5s196.333 -10.833 279 -32.5s153 -52.334 211 -92.001s102.5 -86.834 133.5 -141.501s46.5 -115 46.5 -181c0 -41.333 -10.333 -84.5 -31 -129.5s-54 -90.167 -100 -135.5c32.667 -19.333 63.667 -41.833 93 -67.5s55 -55 77 -88
s39.333 -69.5 52 -109.5s19 -83.333 19 -130c0 -78 -18.167 -147.833 -54.5 -209.5s-88.333 -113.667 -156 -156s-149.667 -74.833 -246 -97.5s-204.166 -34 -323.499 -34s-227.166 11.333 -323.499 34s-178.333 55.167 -246 97.5s-119.667 94.333 -156 156
s-54.5 131.5 -54.5 209.5zM583.998 1122c0 -24.667 6.16699 -47.834 18.5 -69.501s32.333 -40.667 60 -57s64 -29.166 109 -38.499s100.167 -14 165.5 -14s120.5 4.66699 165.5 14s81.333 22.166 109 38.499s47.667 35.333 60 57s18.5 44.834 18.5 69.501
s-6.16699 47.834 -18.5 69.501s-32.333 40.667 -60 57s-64 29.166 -109 38.499s-100.167 14 -165.5 14s-120.5 -4.66699 -165.5 -14s-81.333 -22.166 -109 -38.499s-47.667 -35.333 -60 -57s-18.5 -44.834 -18.5 -69.501zM473.998 491c0 -34 9.83105 -65.167 29.498 -93.5
s48.834 -52.5 87.501 -72.5s87 -35.667 145 -47s125 -17 201 -17s143 5.66699 201 17s106.333 27 145 47s67.834 44.167 87.501 72.5s29.5 59.5 29.5 93.5s-9.5 65.167 -28.5 93.5s-47.667 52.5 -86 72.5s-86.5 35.667 -144.5 47s-126 17 -204 17s-146 -5.66699 -204 -17
s-106.167 -27 -144.5 -47s-67 -44.167 -86 -72.5s-28.5 -59.5 -28.5 -93.5z" />
    <glyph glyph-name="nine" unicode="9" horiz-adv-x="1874" 
d="M415 361c28.667 -16.667 60.6699 -31.333 96.0029 -44s71.833 -23.167 109.5 -31.5s75.667 -14.666 114 -18.999s74.833 -6.5 109.5 -6.5c77.333 0 147.166 10 209.499 30s116.166 48.333 161.499 85s81.5 80.5 108.5 131.5s43.833 107.5 50.5 169.5
c-34.667 -27.333 -73 -51 -115 -71s-86.5 -36.5 -133.5 -49.5s-95.333 -22.667 -145 -29s-99.5 -9.5 -149.5 -9.5c-97.333 0 -185.833 11.667 -265.5 35s-147.834 57 -204.501 101s-100.5 97.5 -131.5 160.5s-46.5 134.5 -46.5 214.5c0 78.667 15.5 151.667 46.5 219
s76.833 125.833 137.5 175.5s136 88.667 226 117s194.333 42.5 313 42.5c115.333 0 220.666 -14.667 315.999 -44s177 -75 245 -137s120.833 -140.833 158.5 -236.5s56.5 -209.834 56.5 -342.501c0 -142 -21.167 -265.833 -63.5 -371.5s-100.333 -193.5 -174 -263.5
s-160.5 -122.333 -260.5 -157s-208 -52 -324 -52c-48.667 0 -99.167 3 -151.5 9s-104.166 15 -155.499 27s-100.833 27 -148.5 45s-91.167 38.667 -130.5 62zM500.003 1033c0 -32.667 7.00098 -63.332 21.001 -91.999s35.833 -53.5 65.5 -74.5s67.834 -37.667 114.501 -50
s103 -18.5 169 -18.5c55.333 0 107.666 4.33301 156.999 13s95 20.667 137 36s80.167 33.333 114.5 54s63.833 43.334 88.5 68.001c-16 109.333 -64 191.833 -144 247.5s-185 83.5 -315 83.5c-65.333 0 -123.333 -6.66699 -174 -20s-93.334 -31.833 -128.001 -55.5
s-61 -51.834 -79 -84.501s-27 -68.334 -27 -107.001z" />
    <glyph glyph-name="colon" unicode=":" horiz-adv-x="858" 
d="M191 173c0 26.667 5.5 51.834 16.5 75.501s26.833 44.334 47.5 62.001s45.667 31.5 75 41.5s62.333 15 99 15s69.667 -5 99 -15s54.166 -23.833 74.499 -41.5s36 -38.334 47 -62.001s16.5 -48.834 16.5 -75.501s-5.5 -51.834 -16.5 -75.501s-26.667 -44.167 -47 -61.5
s-45.166 -31.166 -74.499 -41.499s-62.333 -15.5 -99 -15.5s-69.667 5.16699 -99 15.5s-54.333 24.166 -75 41.499s-36.5 37.833 -47.5 61.5s-16.5 48.834 -16.5 75.501zM191 1008c0 26.667 5.5 51.834 16.5 75.501s26.833 44.334 47.5 62.001s45.667 31.5 75 41.5
s62.333 15 99 15s69.667 -5 99 -15s54.166 -23.833 74.499 -41.5s36 -38.334 47 -62.001s16.5 -48.834 16.5 -75.501s-5.5 -51.834 -16.5 -75.501s-26.667 -44.167 -47 -61.5s-45.166 -31.166 -74.499 -41.499s-62.333 -15.5 -99 -15.5s-69.667 5.16699 -99 15.5
s-54.333 24.166 -75 41.499s-36.5 37.833 -47.5 61.5s-16.5 48.834 -16.5 75.501z" />
    <glyph glyph-name="semicolon" unicode=";" horiz-adv-x="858" 
d="M195 1007c0 26.667 5.5 51.834 16.5 75.501s26.833 44.334 47.5 62.001s45.667 31.5 75 41.5s62.333 15 99 15s69.667 -5 99 -15s54.166 -23.833 74.499 -41.5s36 -38.334 47 -62.001s16.5 -48.834 16.5 -75.501s-5.5 -51.834 -16.5 -75.501s-26.667 -44.167 -47 -61.5
s-45.166 -31.166 -74.499 -41.499s-62.333 -15.5 -99 -15.5s-69.667 5.16699 -99 15.5s-54.333 24.166 -75 41.499s-36.5 37.833 -47.5 61.5s-16.5 48.834 -16.5 75.501zM191 174c0 26.667 5.66504 51.667 16.998 75s27.166 43.833 47.499 61.5s45 31.5 74 41.5
s61.5 15 97.5 15c38.667 0 74.167 -6.16699 106.5 -18.5s60.166 -30.166 83.499 -53.499s41.5 -51.833 54.5 -85.5s19.5 -71.5 19.5 -113.5c0 -94.667 -32.5 -185.5 -97.5 -272.5s-159.5 -164.167 -283.5 -231.5l-120 170c32.667 17.333 61.334 34.5 86.001 51.5
s46.334 34.167 65.001 51.5s34.834 35.333 48.501 54s25.834 38.667 36.501 60c-35.333 0 -67.5 5.16699 -96.5 15.5s-53.833 24.166 -74.5 41.499s-36.5 37.833 -47.5 61.5s-16.5 49.167 -16.5 76.5z" />
    <glyph glyph-name="less" unicode="&#x3c;" horiz-adv-x="1529" 
d="M1253.02 369l-627.962 415l627.962 417l-136.991 215l-928.943 -631l928.943 -631z" />
    <glyph glyph-name="equal" unicode="=" horiz-adv-x="1191" 
d="M137 1100h917v-222h-917v222zM137 687h917v-222h-917v222z" />
    <glyph glyph-name="greater" unicode="&#x3e;" horiz-adv-x="1529" 
d="M276 369l628 415l-628 417l137 215l929 -631l-929 -631z" />
    <glyph glyph-name="question" unicode="?" horiz-adv-x="1710" 
d="M669 961c112.667 5.33301 207.001 13.832 283.001 25.499s136.833 26 182.5 43s78.167 36.333 97.5 58s29 45.5 29 71.5c0 24.667 -8 46.667 -24 66s-39 35.5 -69 48.5s-66.5 22.833 -109.5 29.5s-91.5 10 -145.5 10c-58 0 -116.667 -3.66699 -176 -11
s-116.333 -17.333 -171 -30s-106 -27.667 -154 -45s-90 -35.666 -126 -54.999l-146 240c34 20 76.667 40.833 128 62.5s109.5 41.5 174.5 59.5s135.833 32.667 212.5 44s157.667 17 243 17c106 0 201.167 -9.83301 285.5 -29.5s155.666 -48 213.999 -85
s103 -82.5 134 -136.5s46.5 -115.333 46.5 -184c0 -52 -10.167 -100 -30.5 -144s-54.5 -83.667 -102.5 -119s-112 -66 -192 -92s-179.667 -47 -299 -63v-173h-285v392zM601.001 172.999c0 26.667 5.5 51.834 16.5 75.501s26.833 44.334 47.5 62.001s45.667 31.5 75 41.5
s62.333 15 99 15s69.667 -5 99 -15s54.166 -23.833 74.499 -41.5s36 -38.334 47 -62.001s16.5 -48.834 16.5 -75.501s-5.5 -51.834 -16.5 -75.501s-26.667 -44.167 -47 -61.5s-45.166 -31.166 -74.499 -41.499s-62.333 -15.5 -99 -15.5s-69.667 5.16699 -99 15.5
s-54.333 24.166 -75 41.499s-36.5 37.833 -47.5 61.5s-16.5 48.834 -16.5 75.501z" />
    <glyph glyph-name="at" unicode="@" horiz-adv-x="3058" 
d="M196 508c-1.33301 99.333 11.1709 195.834 37.5039 289.501s66 181.667 119 264s118.833 157.833 197.5 226.5s169.5 127.5 272.5 176.5s218 87.167 345 114.5s265.167 41 414.5 41c141.333 0 271.333 -12.167 390 -36.5s225.334 -58.333 320.001 -102
s177.667 -95.667 249 -156s130.833 -126.333 178.5 -198s83.5 -147.834 107.5 -228.501s36 -163 36 -247c0 -100.667 -16 -192.5 -48 -275.5s-75.167 -154 -129.5 -213s-117.5 -104.667 -189.5 -137s-148 -48.5 -228 -48.5c-79.333 0 -151.5 16.5 -216.5 49.5
s-117.5 82.833 -157.5 149.5c-28.667 -18 -60.334 -36.5 -95.001 -55.5s-73 -36 -115 -51s-87.833 -27.333 -137.5 -37s-103.5 -14.5 -161.5 -14.5c-95.333 0 -181 13.5 -257 40.5s-140.5 64 -193.5 111s-93.5 102.167 -121.5 165.5s-42 131.666 -42 204.999
c0 57.333 8.5 112 25.5 164s40.833 100 71.5 144s67.5 83.833 110.5 119.5s90 66 141 91s105.5 44.333 163.5 58s117.667 20.5 179 20.5c50.667 0 99.167 -4.16699 145.5 -12.5s89.333 -19 129 -32s75.167 -27 106.5 -42s57 -29.167 77 -42.5l28 108h296l-104 -548
c-11.333 -58.667 -15.666 -108.834 -13 -150.501c2.66699 -41.667 11 -76 25 -103s33.167 -46.833 57.5 -59.5s52.5 -19 84.5 -19c44.667 0 85.5 11 122.5 33s68.833 52.167 95.5 90.5s47.5 83.333 62.5 135s22.5 106.834 22.5 165.501c0 59.333 -8.16699 119 -24.5 179
s-41.833 117.333 -76.5 172s-78.667 105.667 -132 153s-116.833 88.5 -190.5 123.5s-157.834 62.5 -252.501 82.5s-200.667 30 -318 30c-118.667 0 -229.167 -10.333 -331.5 -31s-195.833 -50 -280.5 -88s-159.834 -83.667 -225.501 -137s-121 -112.666 -166 -177.999
s-79.167 -135.666 -102.5 -210.999s-35 -153.666 -35 -234.999c0 -112.667 22 -216.834 66 -312.501s107 -178.334 189 -248.001s181.667 -124.167 299 -163.5s249.333 -59 396 -59c114 0 215.833 11 305.5 33s169.167 49.333 238.5 82l122 -188
c-95.333 -44 -202 -79.333 -320 -106s-244 -40 -378 -40c-120 0 -232.333 11.333 -337 34s-200.667 54.834 -288 96.501s-165.333 92.167 -234 151.5s-126.834 125.666 -174.501 198.999s-84.334 152.833 -110.001 238.5s-39.167 175.5 -40.5 269.5zM1087 566.001
c0 -40.667 8 -78.499 24 -113.499s39.167 -65.5 69.5 -91.5s67.833 -46.333 112.5 -61s96 -22 154 -22c81.333 0 153.5 14.333 216.5 43s116.167 68.334 159.5 119.001l60 306c-27.333 21.333 -57.833 40.166 -91.5 56.499s-68.667 30.166 -105 41.499s-73 20 -110 26
s-72.5 9 -106.5 9c-56 0 -107.5 -7.83301 -154.5 -23.5s-87.5 -37.5 -121.5 -65.5s-60.333 -61.167 -79 -99.5s-28 -79.833 -28 -124.5z" />
    <glyph glyph-name="A" unicode="A" horiz-adv-x="1868" 
d="M755 1563h336l756 -1563h-333l-125 263h-913l-121 -263h-334zM1264 524l-338 710l-329 -710h667z" />
    <glyph glyph-name="B" unicode="B" horiz-adv-x="1879" 
d="M222 1563l835.002 0.00195312c102 0 190.833 -10.833 266.5 -32.5s138.5 -51.5 188.5 -89.5s87.167 -83.167 111.5 -135.5s36.5 -108.833 36.5 -169.5c0 -99.333 -31.333 -186.333 -94 -261c72 -42.667 125.667 -98 161 -166s53 -145.333 53 -232
c0 -72.667 -12.167 -138.334 -36.5 -197.001s-61.333 -108.834 -111 -150.501s-112.334 -73.667 -188.001 -96s-164.834 -33.5 -267.501 -33.5h-955v1563zM1179 963.002c27.333 0 53.999 -1.00098 79.999 -3.00098c44.667 42.667 67 91.334 67 146.001
c0 56.667 -22.167 100.5 -66.5 131.5s-109.166 46.5 -194.499 46.5h-526v-321h640zM1185 276.001c85.333 0 150.166 18.332 194.499 54.999s66.5 88.334 66.5 155.001s-22.167 118.667 -66.5 156s-109.166 56 -194.499 56h-646v-422h646z" />
    <glyph glyph-name="C" unicode="C" horiz-adv-x="1879" 
d="M127 791c0 111.333 21.001 215.168 63.001 311.501s102.833 180 182.5 251s177 126.833 292 167.5s245.167 61 390.5 61c127.333 0 244.166 -12.833 350.499 -38.5s205.166 -64.834 296.499 -117.501l-146 -240c-27.333 18 -58.833 34 -94.5 48s-73.667 25.833 -114 35.5
s-82 17.167 -125 22.5s-85.5 8 -127.5 8c-101.333 0 -191.666 -12.5 -270.999 -37.5s-146.166 -60 -200.499 -105s-95.666 -98.667 -123.999 -161s-42.5 -130.833 -42.5 -205.5c0 -77.333 14.667 -148.333 44 -213s71.833 -120.5 127.5 -167.5s123.667 -83.667 204 -110
s171.166 -39.5 272.499 -39.5c46 0 91.667 3.33301 137 10s89.166 15.834 131.499 27.501s83.166 25.667 122.499 42s76 34.166 110 53.499l146 -240c-85.333 -54.667 -184 -97.5 -296 -128.5s-231 -46.5 -357 -46.5c-160.667 0 -301.667 20.833 -423 62.5
s-222.666 99 -303.999 172s-142.5 159 -183.5 258s-61.5 205.5 -61.5 319.5z" />
    <glyph glyph-name="D" unicode="D" horiz-adv-x="1874" 
d="M222 1563l573 -0.00195312c167.333 0 312.666 -18 435.999 -54s225.5 -87.5 306.5 -154.5s141.333 -148.333 181 -244s59.5 -203.167 59.5 -322.5c0 -113.333 -19.667 -218.166 -59 -314.499s-99.333 -179.666 -180 -249.999s-182.667 -125.333 -306 -165
s-268.666 -59.5 -435.999 -59.5l-575 1v1563zM873 273.998c94.667 0 177.667 12.166 249 36.499s130.833 58.833 178.5 103.5s83.5 98.667 107.5 162s36 134 36 212c0 76.667 -12 145.834 -36 207.501s-59.833 114 -107.5 157s-107.167 76.167 -178.5 99.5
s-154.333 35 -249 35h-334v-1013h334z" />
    <glyph glyph-name="E" unicode="E" horiz-adv-x="1704" 
d="M222 1563h1331v-278h-1014v-312h898v-261h-898v-435h1035v-277h-1352v1563z" />
    <glyph glyph-name="F" unicode="F" horiz-adv-x="1704" 
d="M222 1563h1398v-278h-1081v-409h918v-261h-918v-615h-317v1563z" />
    <glyph glyph-name="G" unicode="G" 
d="M115 796c0 110 20.665 212.833 61.998 308.5s101.666 178.834 180.999 249.501s176.833 126.334 292.5 167.001s248.167 61 397.5 61c54 0 108.167 -2.83301 162.5 -8.5s108 -14.5 161 -26.5s104.667 -27.167 155 -45.5s98.166 -40.166 143.499 -65.499l-146 -240
c-27.333 16 -58.333 30.5 -93 43.5s-71.834 24 -111.501 33s-80.667 15.833 -123 20.5s-84.833 7 -127.5 7c-98.667 0 -186.667 -12.5 -264 -37.5s-142.666 -60 -195.999 -105s-94 -98.833 -122 -161.5s-42 -131.334 -42 -206.001c0 -77.333 14.667 -148.333 44 -213
s71 -120.334 125 -167.001s119.333 -83.167 196 -109.5s162.334 -39.5 257.001 -39.5c75.333 0 144.333 8.5 207 25.5s117.334 41.167 164.001 72.5s84.667 69.166 114 113.499s48.666 94.166 57.999 149.499h-546v261h831v-1l1 1c16.667 -80 21.834 -157.833 15.501 -233.5
s-23.666 -147 -51.999 -214s-67.166 -128.5 -116.499 -184.5s-108.333 -104.167 -177 -144.5s-146.667 -71.666 -234 -93.999s-183 -33.5 -287 -33.5c-145.333 0 -275.5 21.333 -390.5 64s-212.5 101 -292.5 175s-141.167 160.667 -183.5 260s-63.5 205.333 -63.5 318z" />
    <glyph glyph-name="H" unicode="H" horiz-adv-x="2050" 
d="M221 1563h317v-408h972v408h318v-1563h-318v884h-972v-884h-317v1563z" />
    <glyph glyph-name="I" unicode="I" horiz-adv-x="683" 
d="M182 1563h319v-1563h-319v1563z" />
    <glyph glyph-name="J" unicode="J" horiz-adv-x="683" 
d="M-79 -259c46 28 85.501 57.333 118.501 88s60.167 64.5 81.5 101.5s37 78.333 47 124s15 97.5 15 155.5v1353h317v-1296c0 -69.333 -3 -132.5 -9 -189.5s-15.833 -109.333 -29.5 -157s-32 -91.5 -55 -131.5s-51.333 -78 -85 -114s-73.334 -70.667 -119.001 -104
s-98.5 -67 -158.5 -101z" />
    <glyph glyph-name="K" unicode="K" horiz-adv-x="1704" 
d="M222 1563h317v-809l825 809h406l-770 -746l770 -817h-422l-576 596l-233 -225v-371h-317v1563z" />
    <glyph glyph-name="L" unicode="L" horiz-adv-x="1533" 
d="M222 1563h317v-1285h909v-278h-1226v1563z" />
    <glyph glyph-name="M" unicode="M" horiz-adv-x="2216" 
d="M223 1563h317l568 -570l568 570h317v-1563h-317v1124l-568 -547l-568 547v-1124h-317v1563z" />
    <glyph glyph-name="N" unicode="N" 
d="M220 1563h317l974 -510v510h317v-1563h-317v717l-974 507v-1224h-317v1563z" />
    <glyph glyph-name="O" unicode="O" 
d="M130 786c0 118 21.667 226 65 324s104.166 182.167 182.499 252.5s172.333 124.833 282 163.5s231.167 58 364.5 58c132.667 0 254 -19.333 364 -58s204.167 -93.167 282.5 -163.5s139.166 -154.5 182.499 -252.5s65 -206 65 -324c0 -118.667 -21.667 -227.5 -65 -326.5
s-104.166 -184.167 -182.499 -255.5s-172.5 -126.833 -282.5 -166.5s-231.333 -59.5 -364 -59.5c-133.333 0 -254.833 19.833 -364.5 59.5s-203.667 95.167 -282 166.5s-139.166 156.5 -182.499 255.5s-65 207.833 -65 326.5zM447 786
c0 -80.667 14.5 -153.334 43.5 -218.001s69.333 -119.834 121 -165.501s112.667 -80.834 183 -105.501s146.833 -37 229.5 -37s159.167 12.333 229.5 37s131.166 59.834 182.499 105.501s91.666 100.834 120.999 165.501s44 137.334 44 218.001s-14.667 153 -44 217
s-69.666 118.167 -120.999 162.5s-112.166 78.166 -182.499 101.499s-146.833 35 -229.5 35s-159.167 -11.667 -229.5 -35s-131.333 -57.166 -183 -101.499s-92 -98.5 -121 -162.5s-43.5 -136.333 -43.5 -217z" />
    <glyph glyph-name="P" unicode="P" horiz-adv-x="1873" 
d="M222 1563l824 0.00195312c120 0 224 -13 312 -39s161 -63.5 219 -112.5s101.167 -108.833 129.5 -179.5s42.5 -150.334 42.5 -239.001c0 -83.333 -14 -160.333 -42 -231s-70.833 -131.834 -128.5 -183.501s-130.5 -92 -218.5 -121s-192 -43.5 -312 -43.5l-509 1v-415
h-317v1563zM1054 689.002c60 0 112.5 7.16699 157.5 21.5s82.667 34.666 113 60.999s53 58.333 68 96s22.5 79.5 22.5 125.5c0 92.667 -30.167 164.834 -90.5 216.501s-150.5 77.5 -270.5 77.5h-515v-598h515z" />
    <glyph glyph-name="Q" unicode="Q" 
d="M130 786c0 118 21.668 226 65.001 324s104.166 182.167 182.499 252.5s172.333 124.833 282 163.5s231.167 58 364.5 58c132.667 0 254 -19.333 364 -58s204.167 -93.167 282.5 -163.5s139.166 -154.5 182.499 -252.5s65 -206 65 -324
c0 -105.333 -17.167 -202.833 -51.5 -292.5s-82.833 -169.167 -145.5 -238.5l281 -255h-402l-97 88c-68 -36 -142 -63.333 -222 -82s-165.667 -28 -257 -28c-133.333 0 -254.833 19.833 -364.5 59.5s-203.667 95.167 -282 166.5s-139.166 156.5 -182.499 255.5
s-65 207.833 -65 326.5zM447.001 786c0 -80.667 14.498 -153.33 43.498 -217.997s69.333 -119.834 121 -165.501s112.667 -80.834 183 -105.501s146.833 -37 229.5 -37c88.667 0 169.667 14 243 42l-448 406h402l272 -247c34 43.333 60.5 92.166 79.5 146.499
s28.5 113.833 28.5 178.5c0 80.667 -14.667 153 -44 217s-69.666 118.167 -120.999 162.5s-112.166 78.166 -182.499 101.499s-146.833 35 -229.5 35s-159.167 -11.667 -229.5 -35s-131.333 -57.166 -183 -101.499s-92 -98.5 -121 -162.5s-43.5 -136.333 -43.5 -217z" />
    <glyph glyph-name="R" unicode="R" horiz-adv-x="1873" 
d="M222 1563h795c120 0 224 -12.5 312 -37.5s161 -61.167 219 -108.5s101.167 -105 129.5 -173s42.5 -145 42.5 -231c0 -58 -7 -113.167 -21 -165.5s-35.5 -100.5 -64.5 -144.5s-65.5 -83.167 -109.5 -117.5s-95.667 -62.833 -155 -85.5l340 -500h-388l-294 444h-9l-480 1
v-445h-317v1563zM1025 719c60 0 112.5 7.00098 157.5 21.001s82.667 33.667 113 59s53 56.166 68 92.499s22.5 76.833 22.5 121.5c0 87.333 -30 154.833 -90 202.5s-150.333 71.5 -271 71.5h-486v-568h486z" />
    <glyph glyph-name="S" unicode="S" 
d="M295 465c56.667 -32 114.158 -60.8291 172.491 -86.4961s118.833 -47.334 181.5 -65.001s128.5 -31.167 197.5 -40.5s142.5 -14 220.5 -14c94 0 174 6.16699 240 18.5s119.833 29.333 161.5 51s72 47.5 91 77.5s28.5 62.667 28.5 98c0 56.667 -23.667 101.5 -71 134.5
s-120.333 49.5 -219 49.5c-43.333 0 -89 -2.83301 -137 -8.5s-96.5 -11.834 -145.5 -18.501s-97.333 -12.834 -145 -18.501s-92.5 -8.5 -134.5 -8.5c-70 0 -137.167 9 -201.5 27s-121.333 45 -171 81s-89.167 81 -118.5 135s-44 117 -44 189c0 42.667 5.83301 85 17.5 127
s30.334 82.167 56.001 120.5s58.834 74 99.501 107s89.834 61.5 147.501 85.5s124.334 42.833 200.001 56.5s161.834 20.5 258.501 20.5c70 0 140.333 -3.83301 211 -11.5s139.5 -18.5 206.5 -32.5s131.5 -30.833 193.5 -50.5s119.667 -41.5 173 -65.5l-139 -256
c-44 19.333 -91.333 37.166 -142 53.499s-103.667 30.5 -159 42.5s-112.5 21.5 -171.5 28.5s-119.167 10.5 -180.5 10.5c-87.333 0 -159.166 -6.33301 -215.499 -19s-101.166 -28.834 -134.499 -48.501s-56.5 -41.667 -69.5 -66s-19.5 -48.5 -19.5 -72.5
c0 -46.667 21 -84.834 63 -114.501s106 -44.5 192 -44.5c34.667 0 74.5 2.5 119.5 7.5l142 16.5c49.667 6 100.334 11.5 152.001 16.5s101.834 7.5 150.501 7.5c92 0 173.5 -10.333 244.5 -31s130.5 -50.167 178.5 -88.5s84.333 -84.666 109 -138.999
s37 -115.166 37 -182.499c0 -90 -20.833 -170.167 -62.5 -240.5s-101 -129.666 -178 -177.999s-169.833 -85 -278.5 -110s-229.667 -37.5 -363 -37.5c-88 0 -174 5.5 -258 16.5s-164.5 26.667 -241.5 47s-150.333 44.666 -220 72.999s-134.167 59.5 -193.5 93.5z" />
    <glyph glyph-name="T" unicode="T" horiz-adv-x="1703" 
d="M693 1285h-577v278h1471v-278h-577v-1285h-317v1285z" />
    <glyph glyph-name="U" unicode="U" horiz-adv-x="1873" 
d="M163 1563h317.004v-861c0 -70.667 9.66699 -133.5 29 -188.5s48.166 -101.5 86.499 -139.5s85.833 -66.833 142.5 -86.5s122.667 -29.5 198 -29.5c74.667 0 140.5 9.83301 197.5 29.5s104.667 48.5 143 86.5s67.166 84.5 86.499 139.5s29 117.833 29 188.5v861h317v-899
c0 -102.667 -17.333 -196 -52 -280s-85 -156 -151 -216s-146.833 -106.333 -242.5 -139s-204.834 -49 -327.501 -49s-231.834 16.333 -327.501 49s-176.5 79 -242.5 139s-116.333 132 -151 216s-52 177.333 -52 280v899z" />
    <glyph glyph-name="V" unicode="V" horiz-adv-x="1710" 
d="M13 1563h351l491 -1192l491 1192h351l-685 -1563h-314z" />
    <glyph glyph-name="W" unicode="W" horiz-adv-x="2554" 
d="M20 1563h346l424 -1009l98 -244l77 244l156 368l-281 641h326l115 -305l107 305h326l-281 -641l159 -376l96 -236l74 240l426 1013h346l-690 -1563h-314l-139 310l-113 301l-113 -301l-141 -310h-314z" />
    <glyph glyph-name="X" unicode="X" horiz-adv-x="1704" 
d="M666 794l-601 769h388l415 -538l417 538h382l-612 -766l633 -797h-389l-445 562l-455 -562h-383z" />
    <glyph glyph-name="Y" unicode="Y" horiz-adv-x="1710" 
d="M701 387l-683 1176h359l481 -889l475 889h359l-674 -1174v-389h-317v387z" />
    <glyph glyph-name="Z" unicode="Z" horiz-adv-x="1710" 
d="M941 1110l150 183h-939v270h1529l-875 -1099l-156 -194h982v-270h-1557z" />
    <glyph glyph-name="bracketleft" unicode="[" horiz-adv-x="849" 
d="M250 1918h533v-213h-276v-1838h276v-213h-533v2264z" />
    <glyph glyph-name="backslash" unicode="\" horiz-adv-x="1533" 
d="M446.066 1770h-286.982l928.943 -2124h286.982z" />
    <glyph glyph-name="bracketright" unicode="]" horiz-adv-x="849" 
d="M599.016 1918h-532.968v-213h275.983v-1838h-275.983v-213h532.968v2264z" />
    <glyph glyph-name="asciicircum" unicode="^" horiz-adv-x="1698" 
d="M849 1416l622 -949l-221 -146l-401 617l-401 -617l-221 146z" />
    <glyph glyph-name="underscore" unicode="_" horiz-adv-x="1669" 
d="M1689 -177v-222h-1709v222h1709z" />
    <glyph glyph-name="grave" unicode="`" horiz-adv-x="1038" 
d="M126 1620l111 229l686 -321l-99 -207z" />
    <glyph glyph-name="a" unicode="a" horiz-adv-x="1701" 
d="M129 372c0 56.667 12.334 108.333 37.001 155s61.667 86.834 111 120.501s110.833 59.667 184.5 78s159.5 27.5 257.5 27.5c72.667 0 149.167 -5.33301 229.5 -16s163.166 -27 248.499 -49c-3.33301 37.333 -14.666 71.833 -33.999 103.5s-46.166 59 -80.499 82
s-75.666 40.833 -123.999 53.5s-103.166 19 -164.499 19c-33.333 0 -70 -2 -110 -6s-81.333 -10 -124 -18s-84.834 -18 -126.501 -30s-80.5 -26.333 -116.5 -43l-90 243c44.667 16 92.5 30.667 143.5 44s103.167 24.833 156.5 34.5s106.666 17.167 159.999 22.5s105 8 155 8
c220.667 0 384.667 -56.333 492 -169s161 -285.334 161 -518.001v-514h-296v111c-30.667 -18 -64.167 -35 -100.5 -51s-75.833 -30 -118.5 -42s-88.5 -21.5 -137.5 -28.5s-100.833 -10.5 -155.5 -10.5c-92 0 -172.833 10 -242.5 30s-127.834 47.667 -174.501 83
s-81.834 76.833 -105.501 124.5s-35.5 99.5 -35.5 155.5zM441.001 381.999c0 -19.333 5 -37.833 15 -55.5s26 -33.334 48 -47.001s50.167 -24.667 84.5 -33s75.833 -12.5 124.5 -12.5c52 0 102.333 4.66699 151 14s94 21.666 136 36.999s80 33 114 53s62.333 40.667 85 62
v52c-45.333 12.667 -90.166 23.334 -134.499 32.001s-86.666 15.5 -126.999 20.5s-78.333 8.5 -114 10.5s-66.834 3 -93.501 3c-55.333 0 -101.333 -3.66699 -138 -11s-66.334 -17.166 -89.001 -29.499s-38.667 -26.833 -48 -43.5s-14 -34 -14 -52z" />
    <glyph glyph-name="b" unicode="b" horiz-adv-x="1706" 
d="M177 1659h296.001v-590c26 18 56.667 35 92 51s73.333 30 114 42s82.667 21.5 126 28.5s86.666 10.5 129.999 10.5c100 0 191.833 -14.667 275.5 -44s155.5 -70.666 215.5 -123.999s106.833 -117.166 140.5 -191.499s50.5 -156.5 50.5 -246.5
c0 -94 -17.667 -178.833 -53 -254.5s-84.166 -140.334 -146.499 -194.001s-136.333 -95 -222 -124s-178.5 -43.5 -278.5 -43.5c-42.667 0 -84.834 2.66699 -126.501 8s-81.667 12.666 -120 21.999s-74.333 20.5 -108 33.5s-63.5 27.167 -89.5 42.5v-85h-296v1659z
M473.001 371c30 -24 61.6689 -44.332 95.002 -60.999s67.333 -30.334 102 -41.001s69.667 -18.5 105 -23.5s69.666 -7.5 102.999 -7.5c68 0 128.5 9.16699 181.5 27.5s97.667 43.5 134 75.5s64.166 69.667 83.499 113s29 90.333 29 141c0 47.333 -9.5 92 -28.5 134
s-46.333 78.833 -82 110.5s-78.667 56.667 -129 75s-106.833 27.5 -169.5 27.5c-40 0 -80 -3.83301 -120 -11.5s-78.5 -18.5 -115.5 -32.5s-71.667 -31 -104 -51s-60.5 -42.333 -84.5 -67v-409z" />
    <glyph glyph-name="c" unicode="c" horiz-adv-x="1526" 
d="M114 587c0 86.667 15.8359 167.498 47.5029 242.498s78 140 139 195s135.667 98.167 224 129.5s189.166 47 302.499 47c49.333 0 99 -3 149 -9s98.167 -14.5 144.5 -25.5s89.833 -24 130.5 -39s76 -31.5 106 -49.5l-137 -223c-64.667 30 -125.834 52 -183.501 66
s-116.167 21 -175.5 21c-68 0 -129 -8.83301 -183 -26.5s-99.833 -42.334 -137.5 -74.001s-66.334 -69 -86.001 -112s-29.5 -89.833 -29.5 -140.5s10.5 -97.5 31.5 -140.5s50.667 -80 89 -111s84.666 -55.333 138.999 -73s114.833 -26.5 181.5 -26.5
c73.333 0 142.5 10.333 207.5 31s125.5 48.334 181.5 83.001l137 -223c-35.333 -21.333 -73.666 -41.166 -114.999 -59.499s-85.5 -34.166 -132.5 -47.499s-96.333 -23.833 -148 -31.5s-105.167 -11.5 -160.5 -11.5c-112.667 0 -213.667 15.333 -303 46
s-165 73.167 -227 127.5s-109.5 118.5 -142.5 192.5s-49.5 154.667 -49.5 242z" />
    <glyph glyph-name="d" unicode="d" horiz-adv-x="1711" 
d="M94 585c0 94 17.6689 178.833 53.002 254.5s84.166 140.334 146.499 194.001s136.333 95 222 124s178.5 43.5 278.5 43.5c42.667 0 84.834 -2.66699 126.501 -8s81.667 -12.666 120 -21.999s74.333 -20.5 108 -33.5s63.5 -27.167 89.5 -42.5v564h296v-1659h-296v111
c-26 -18 -56.667 -35 -92 -51s-73.333 -30 -114 -42s-82.834 -21.5 -126.501 -28.5s-86.834 -10.5 -129.501 -10.5c-100 0 -191.833 14.667 -275.5 44s-155.5 70.666 -215.5 123.999s-106.833 117.166 -140.5 191.499s-50.5 156.5 -50.5 246.5zM405.002 585
c0 -47.333 9.49805 -92.001 28.498 -134.001s46.333 -78.833 82 -110.5s78.667 -56.667 129 -75s106.833 -27.5 169.5 -27.5c40 0 80 3.83301 120 11.5s78.5 18.5 115.5 32.5s71.667 31 104 51s60.5 42.333 84.5 67v409c-30 24 -61.667 44.333 -95 61
s-67.333 30.334 -102 41.001s-69.667 18.5 -105 23.5s-69.666 7.5 -102.999 7.5c-68 0 -128.5 -9.16699 -181.5 -27.5s-97.667 -43.5 -134 -75.5s-64.166 -69.667 -83.499 -113s-29 -90.333 -29 -141z" />
    <glyph glyph-name="e" unicode="e" horiz-adv-x="1711" 
d="M129 594c0 80 16.334 156.499 49.001 229.499s79.667 137.5 141 193.5s136.5 100.667 225.5 134s190.167 50 303.5 50c112.667 0 214.167 -16.833 304.5 -50.5s167 -79.834 230 -138.501s111.333 -127.667 145 -207s50.5 -164.333 50.5 -255
c0 -11.333 -0.166992 -23.5 -0.5 -36.5s-1.16602 -24.833 -2.49902 -35.5h-1116c12.667 -35.333 33.167 -67.666 61.5 -96.999s63.833 -54.666 106.5 -75.999s92 -37.833 148 -49.5s118 -17.5 186 -17.5s135.667 7.16699 203 21.5s131.666 32.5 192.999 54.5l100 -226
c-38.667 -18 -77.834 -33.833 -117.501 -47.5s-81 -25 -124 -34s-88 -15.833 -135 -20.5s-96.5 -7 -148.5 -7c-132.667 0 -249 16 -349 48s-183.667 75.667 -251 131s-118 120.333 -152 195s-51 155 -51 241zM1264 708.999c-10.667 32.667 -27.168 63.167 -49.501 91.5
s-50.166 53 -83.499 74s-72 37.5 -116 49.5s-92.333 18 -145 18c-56 0 -107 -6.33301 -153 -19s-86.333 -29.667 -121 -51s-63.5 -46 -86.5 -74s-39.833 -57.667 -50.5 -89h805z" />
    <glyph glyph-name="f" unicode="f" horiz-adv-x="1026" 
d="M314 958l-201.999 -0.000976562v222h202c0 80 11.333 151.167 34 213.5s55.5 115 98.5 158s95.333 75.833 157 98.5s131.167 34 208.5 34c54 0 107 -5.16699 159 -15.5s98 -25.166 138 -44.499l-105 -249c-16 9.33301 -38.5 18 -67.5 26s-60.833 12 -95.5 12
c-68 0 -122.833 -19.167 -164.5 -57.5s-63.834 -96.833 -66.501 -175.5h373v-222h-373v-958h-296v958z" />
    <glyph glyph-name="g" unicode="g" horiz-adv-x="1706" 
d="M370 -200c37.333 -13.333 75.3379 -24.499 114.005 -33.499s76.167 -16.333 112.5 -22s71.166 -9.66699 104.499 -12s63 -3.5 89 -3.5c78.667 0 147.167 9.5 205.5 28.5s107 44.5 146 76.5s68.167 69.167 87.5 111.5s29 87.166 29 134.499v51
c-25.333 -17.333 -55 -34 -89 -50s-71.333 -30 -112 -42s-83.834 -21.667 -129.501 -29s-92.834 -11 -141.501 -11c-96.667 0 -186 14.5 -268 43.5s-153 69.667 -213 122s-106.833 115.166 -140.5 188.499s-50.5 154.666 -50.5 243.999c0 91.333 17.667 174.166 53 248.499
s84.166 137.833 146.499 190.5s136.166 93.334 221.499 122.001s178 43 278 43c42.667 0 85 -2.66699 127 -8s82.167 -12.666 120.5 -21.999s74.333 -20.5 108 -33.5s63.5 -27.167 89.5 -42.5v85h296v-1045c0 -107.333 -16.333 -202.333 -49 -285
s-80.5 -152.167 -143.5 -208.5s-141.167 -99 -234.5 -128s-200.333 -43.5 -321 -43.5c-43.333 0 -88.333 1.83301 -135 5.5s-93.5 9 -140.5 16s-93.333 15.333 -139 25s-89.5 20.834 -131.5 33.501zM425.005 600.001c0 -47.333 9.49805 -91.835 28.498 -133.502
s46.167 -78 81.5 -109s78 -55.333 128 -73s106.333 -26.5 169 -26.5c40.667 0 81.167 3.83301 121.5 11.5s79 18.5 116 32.5s71.667 31 104 51s60.5 42.333 84.5 67v389c-30 24 -61.667 44.333 -95 61s-67.333 30.334 -102 41.001s-69.667 18.5 -105 23.5
s-69.666 7.5 -102.999 7.5c-68 0 -128.5 -9 -181.5 -27s-97.667 -42.5 -134 -73.5s-64.166 -67.167 -83.499 -108.5s-29 -85.666 -29 -132.999z" />
    <glyph glyph-name="h" unicode="h" horiz-adv-x="1703" 
d="M185 1658l296.003 0.00390625v-568c62 34 131.167 61 207.5 81s156.5 30 240.5 30c97.333 0 184.833 -14.333 262.5 -43s143.5 -69.834 197.5 -123.501s95.5 -118.834 124.5 -195.501s43.5 -163 43.5 -259v-580h-295v568c0 56 -9 107.167 -27 153.5
s-44.333 86.166 -79 119.499s-76.834 59.166 -126.501 77.499s-105.834 27.5 -168.501 27.5c-75.333 0 -145.333 -12 -210 -36s-121.334 -54.333 -170.001 -91v-819h-296v1658z" />
    <glyph glyph-name="i" unicode="i" horiz-adv-x="683" 
d="M341 1341c-29.333 0 -55.833 4.16699 -79.5 12.5s-43.834 19.666 -60.501 33.999s-29.5 31 -38.5 50s-13.5 39.167 -13.5 60.5c0 22 4.5 42.5 13.5 61.5s21.833 35.5 38.5 49.5s36.834 25.167 60.501 33.5s50.167 12.5 79.5 12.5c30 0 56.833 -4.16699 80.5 -12.5
s43.834 -19.5 60.501 -33.5s29.5 -30.5 38.5 -49.5s13.5 -39.5 13.5 -61.5c0 -21.333 -4.5 -41.5 -13.5 -60.5s-21.833 -35.667 -38.5 -50s-36.834 -25.666 -60.501 -33.999s-50.5 -12.5 -80.5 -12.5zM193 1180h296v-1180h-296v1180z" />
    <glyph glyph-name="j" unicode="j" horiz-adv-x="683" 
d="M341 1341c-29.333 0 -55.833 4.16699 -79.5 12.5s-43.834 19.666 -60.501 33.999s-29.5 31 -38.5 50s-13.5 39.167 -13.5 60.5c0 22 4.5 42.5 13.5 61.5s21.833 35.5 38.5 49.5s36.834 25.167 60.501 33.5s50.167 12.5 79.5 12.5c30 0 56.833 -4.16699 80.5 -12.5
s43.834 -19.5 60.501 -33.5s29.5 -30.5 38.5 -49.5s13.5 -39.5 13.5 -61.5c0 -21.333 -4.5 -41.5 -13.5 -60.5s-21.833 -35.667 -38.5 -50s-36.834 -25.666 -60.501 -33.999s-50.5 -12.5 -80.5 -12.5zM193 1180l296.002 0.000976562v-1003
c0 -58.667 -2.5 -111.834 -7.5 -159.501s-13.333 -91.834 -25 -132.501s-27.334 -78.667 -47.001 -114s-44.167 -69.333 -73.5 -102s-64.333 -65.167 -105 -97.5s-87.667 -66.166 -141 -101.499l-109 251c41.333 30.667 75.666 61 102.999 91s49 61.333 65 94
s27.333 67.667 34 105s10 78.333 10 123v1046z" />
    <glyph glyph-name="k" unicode="k" horiz-adv-x="1536" 
d="M186 1659h296v-980l552 501h453l-617 -552l656 -628h-444l-439 425l-161 -144v-281h-296v1659z" />
    <glyph glyph-name="l" unicode="l" horiz-adv-x="683" 
d="M193 1659h296v-1659h-296v1659z" />
    <glyph glyph-name="m" unicode="m" horiz-adv-x="2715" 
d="M193 1180l296 0.000976562v-100c74 45.333 146.167 76.833 216.5 94.5s139.166 26.5 206.499 26.5c94 0 180.333 -15 259 -45s146 -75.333 202 -136c43.333 33.333 86 61.5 128 84.5s84 41.667 126 56s84.667 24.666 128 30.999s88 9.5 134 9.5
c96.667 0 184.334 -13.167 263.001 -39.5s145.834 -65.5 201.501 -117.5s98.667 -116.833 129 -194.5s45.5 -167.5 45.5 -269.5v-580h-295v532c0 64.667 -9.16699 122.5 -27.5 173.5s-44 94 -77 129s-72.333 61.667 -118 80s-95.834 27.5 -150.501 27.5
c-30 0 -60.667 -2.83301 -92 -8.5s-61.833 -14.5 -91.5 -26.5s-57.5 -27.167 -83.5 -45.5s-48.667 -39.833 -68 -64.5v-797h-295v532c0 64.667 -9.16699 122.5 -27.5 173.5s-44 94 -77 129s-72.667 61.667 -119 80s-97.166 27.5 -152.499 27.5
c-34 0 -68.167 -3.5 -102.5 -10.5s-67.333 -16.833 -99 -29.5s-61.334 -28 -89.001 -46s-52.5 -38.333 -74.5 -61v-795h-296v1180z" />
    <glyph glyph-name="n" unicode="n" horiz-adv-x="1723" 
d="M185 1180l295.997 -0.00195312v-100c78.667 44.667 153.834 76 225.501 94s141.834 27 210.501 27c90 0 173.333 -13.167 250 -39.5s143 -65.5 199 -117.5s99.833 -116.833 131.5 -194.5s47.5 -167.5 47.5 -269.5v-580h-295v532c0 64.667 -9.16699 122.5 -27.5 173.5
s-44.666 94 -78.999 129s-76 61.667 -125 80s-103.833 27.5 -164.5 27.5c-32 0 -64.833 -3.33301 -98.5 -10s-66.667 -16.167 -99 -28.5s-63.5 -27.666 -93.5 -45.999s-57.333 -39.166 -82 -62.499v-795h-296v1180z" />
    <glyph glyph-name="o" unicode="o" horiz-adv-x="1696" 
d="M114 590c0 84.667 17.167 164 51.5 238s83.333 138.667 147 194s140.667 99 231 131s191.833 48 304.5 48s214.167 -16 304.5 -48s167.333 -75.667 231 -131s112.667 -120 147 -194s51.5 -153.333 51.5 -238s-17.167 -164 -51.5 -238s-83.333 -138.667 -147 -194
s-140.667 -99 -231 -131s-191.833 -48 -304.5 -48s-214.167 16 -304.5 48s-167.333 75.667 -231 131s-112.667 120 -147 194s-51.5 153.333 -51.5 238zM425 590c0 -47.333 9.5 -92.166 28.5 -134.499s46.667 -79.666 83 -111.999s80.666 -58 132.999 -77
s111.833 -28.5 178.5 -28.5s126.167 9.5 178.5 28.5s96.666 44.667 132.999 77s64 69.666 83 111.999s28.5 87.166 28.5 134.499s-9.5 92.333 -28.5 135s-46.667 80.167 -83 112.5s-80.666 58 -132.999 77s-111.833 28.5 -178.5 28.5s-126.167 -9.5 -178.5 -28.5
s-96.666 -44.667 -132.999 -77s-64 -69.833 -83 -112.5s-28.5 -87.667 -28.5 -135z" />
    <glyph glyph-name="p" unicode="p" horiz-adv-x="1711" 
d="M473 -482h-295.999v1662h296v-111c26 18 56.667 35 92 51s73.333 30 114 42s82.667 21.5 126 28.5s86.666 10.5 129.999 10.5c100 0 191.833 -14.667 275.5 -44s155.5 -70.666 215.5 -123.999s106.833 -117.166 140.5 -191.499s50.5 -156.5 50.5 -246.5
c0 -94 -17.667 -178.833 -53 -254.5s-84.166 -140.334 -146.499 -194.001s-136.333 -95 -222 -124s-178.5 -43.5 -278.5 -43.5c-42.667 0 -84.834 2.66699 -126.501 8s-81.667 12.666 -120 21.999s-74.333 20.5 -108 33.5s-63.5 27.167 -89.5 42.5v-567zM473.001 371
c30 -24 61.6689 -44.332 95.002 -60.999s67.333 -30.334 102 -41.001s69.667 -18.5 105 -23.5s69.666 -7.5 102.999 -7.5c68 0 128.5 9.16699 181.5 27.5s97.667 43.5 134 75.5s64.166 69.667 83.499 113s29 90.333 29 141c0 47.333 -9.5 92 -28.5 134
s-46.333 78.833 -82 110.5s-78.667 56.667 -129 75s-106.833 27.5 -169.5 27.5c-40 0 -80 -3.83301 -120 -11.5s-78.5 -18.5 -115.5 -32.5s-71.667 -31 -104 -51s-60.5 -42.333 -84.5 -67v-409z" />
    <glyph glyph-name="q" unicode="q" horiz-adv-x="1711" 
d="M114 585c0 94 17.6689 178.834 53.002 254.501s84.166 140.334 146.499 194.001s136.333 95 222 124s178.5 43.5 278.5 43.5c86 0 165 -9.83301 237 -29.5s134.333 -45.167 187 -76.5v85h296v-1662h-296v593c-26 -18 -55.667 -35 -89 -51s-69 -30 -107 -42
s-77.833 -21.5 -119.5 -28.5s-83.834 -10.5 -126.501 -10.5c-100 0 -191.833 14.667 -275.5 44s-155.5 70.666 -215.5 123.999s-106.833 117.166 -140.5 191.499s-50.5 156.5 -50.5 246.5zM425.002 585.001c0 -47.333 9.49902 -92 28.499 -134s46.333 -78.833 82 -110.5
s78.667 -56.667 129 -75s106.833 -27.5 169.5 -27.5c40 0 79 3.83301 117 11.5s74.167 18.5 108.5 32.5s66.666 31 96.999 51s57.5 42.333 81.5 67v409c-60.667 48 -123.167 82.167 -187.5 102.5s-130.166 30.5 -197.499 30.5c-68 0 -128.5 -9.16699 -181.5 -27.5
s-97.667 -43.5 -134 -75.5s-64.166 -69.667 -83.499 -113s-29 -90.333 -29 -141z" />
    <glyph glyph-name="r" unicode="r" horiz-adv-x="1027" 
d="M185 1180h296v-170c65.333 48.667 134.333 90.667 207 126s145 62.333 217 81l87 -271c-114 -11.333 -214.167 -36.833 -300.5 -76.5s-156.5 -95.5 -210.5 -167.5v-702h-296v1180z" />
    <glyph glyph-name="s" unicode="s" horiz-adv-x="1537" 
d="M232 362c80 -48 167.998 -83.334 263.998 -106.001s194.333 -34 295 -34c68 0 124.667 4.66699 170 14s81.666 21.333 108.999 36s46.666 31.334 57.999 50.001s17 37.667 17 57c0 28 -12.167 52 -36.5 72s-64.5 30 -120.5 30c-26 0 -54 -1.66699 -84 -5l-94.5 -10.5
c-33 -3.66699 -67.333 -7.16699 -103 -10.5s-71.834 -5 -108.501 -5c-80 0 -148.167 8.66699 -204.5 26s-102.166 41 -137.499 71s-61 65.5 -77 106.5s-24 85.167 -24 132.5c0 60 14 115.333 42 166s68 94.5 120 131.5s114.833 65.833 188.5 86.5s155.834 31 246.501 31
c47.333 0 96.833 -2.83301 148.5 -8.5s102.5 -13.167 152.5 -22.5s98 -20.166 144 -32.499s86.667 -25.5 122 -39.5l-93 -230c-75.333 28 -150.5 50.167 -225.5 66.5s-152.167 24.5 -231.5 24.5c-55.333 0 -102.166 -4.16699 -140.499 -12.5s-69.5 -19.333 -93.5 -33
s-41.5 -29.334 -52.5 -47.001s-16.5 -36.167 -16.5 -55.5c0 -14 2.83301 -26.667 8.5 -38s15 -21.166 28 -29.499s30 -14.666 51 -18.999s46.833 -6.5 77.5 -6.5c28 0 57.667 1.66699 89 5l98 10.5c34 3.66699 69.167 7.16699 105.5 10.5s73.5 5 111.5 5
c70.667 0 132.5 -8.33301 185.5 -25s96.833 -40 131.5 -70s60.667 -65.333 78 -106s26 -85 26 -133c0 -62 -14.333 -119.667 -43 -173s-71.334 -99.5 -128.001 -138.5s-127.167 -69.5 -211.5 -91.5s-181.833 -33 -292.5 -33c-68 0 -133.667 4.16699 -197 12.5
s-123.666 19.666 -180.999 33.999s-111.166 31.166 -161.499 50.499s-96.166 40 -137.499 62z" />
    <glyph glyph-name="t" unicode="t" horiz-adv-x="1022" 
d="M363 958h-285v222h285v367h296v-367h285v-222h-285v-958h-296v958z" />
    <glyph glyph-name="u" unicode="u" horiz-adv-x="1708" 
d="M185 1181h295v-576c0 -54.667 6 -104.5 18 -149.5s32.5 -83.5 61.5 -115.5s67.667 -56.833 116 -74.5s108.5 -26.5 180.5 -26.5c34 0 68.5 3.66699 103.5 11s68.5 17.5 100.5 30.5s61.833 28.5 89.5 46.5s51.5 37.667 71.5 59v795h296v-1181h-296v101
c-72.667 -43.333 -145.667 -74.333 -219 -93s-143 -28 -209 -28c-108 0 -200.5 13 -277.5 39s-140 63.833 -189 113.5s-84.833 110.667 -107.5 183s-34 154.833 -34 247.5v618z" />
    <glyph glyph-name="v" unicode="v" horiz-adv-x="1504" 
d="M22 1181h343l307 -710l80 -199l80 199l307 710h343l-559 -1181h-342z" />
    <glyph glyph-name="w" unicode="w" horiz-adv-x="2022" 
d="M22 1181h343l307 -710l90 -199l110 258l-292 651h288l143 -350l143 350h288l-293 -651l111 -258l90 199l307 710h343l-559 -1181h-322l-108 228l-108 -228h-322z" />
    <glyph glyph-name="x" unicode="x" horiz-adv-x="1360" 
d="M491 590l-488 591h378l296 -360l281 360h369l-459 -590l488 -591h-378l-305 369l-283 -369h-369z" />
    <glyph glyph-name="y" unicode="y" horiz-adv-x="1698" 
d="M326 -148c30.667 -20 64 -37.665 100 -52.998s73.5 -28 112.5 -38s78.833 -17.5 119.5 -22.5s81 -7.5 121 -7.5c136 0 240.833 29.167 314.5 87.5s110.5 145.833 110.5 262.5v40c-26 -18 -55.167 -34.5 -87.5 -49.5s-67 -27.833 -104 -38.5s-76 -18.834 -117 -24.501
s-82.5 -8.5 -124.5 -8.5c-90 0 -170.5 13.167 -241.5 39.5s-131 65 -180 116s-86.5 113.833 -112.5 188.5s-39 160 -39 256v580h295v-498c0 -142.667 27.167 -247.834 81.5 -315.501s140.166 -101.5 257.499 -101.5c82.667 0 155.834 14.5 219.501 43.5
s114.5 66.167 152.5 111.5v760h296v-1045c0 -112.667 -16 -210.5 -48 -293.5s-78.5 -151.833 -139.5 -206.5s-135.833 -95.5 -224.5 -122.5s-189.334 -40.5 -302.001 -40.5c-110 0 -212.667 11.667 -308 35s-182.666 55 -261.999 95z" />
    <glyph glyph-name="z" unicode="z" horiz-adv-x="1364" 
d="M754 934h-605v246h1154l-728 -934h688v-246h-1232z" />
    <glyph glyph-name="braceleft" unicode="{" horiz-adv-x="1368" 
d="M590 213c0 66.667 -8.83301 129.504 -26.5 188.504s-44.5 113 -80.5 162s-81.667 92.333 -137 130s-120.666 68.5 -195.999 92.5c75.333 24 140.666 54.667 195.999 92s101 80.5 137 129.5s62.833 103.167 80.5 162.5s26.5 122.333 26.5 189v63
c0 81.333 10.167 153 30.5 215s52.166 114 95.499 156s98.666 73.667 165.999 95s148 32 242 32h133v-213h-133c-42.667 0 -81.167 -5.66699 -115.5 -17s-63.5 -28.833 -87.5 -52.5s-42.333 -53.334 -55 -89.001s-19 -77.834 -19 -126.501v-59
c0 -148.667 -24.5 -270.5 -73.5 -365.5s-121.167 -165.5 -216.5 -211.5c95.333 -46 167.5 -116.5 216.5 -211.5s73.5 -216.833 73.5 -365.5v-59c0 -48.667 6.33301 -90.834 19 -126.501s31 -65.334 55 -89.001s53.167 -41.167 87.5 -52.5s72.833 -17 115.5 -17h133v-213
h-133c-94 0 -174.667 10.667 -242 32s-122.666 53 -165.999 95s-75.166 94 -95.499 156s-30.5 133.667 -30.5 215v63z" />
    <glyph glyph-name="bar" unicode="|" horiz-adv-x="680" 
d="M211 1770h257v-2252h-257v2252z" />
    <glyph glyph-name="braceright" unicode="}" horiz-adv-x="1368" 
d="M778.036 213c0 66.667 8.83301 129.504 26.498 188.504c17.666 59 44.498 113 80.4951 162c35.998 49 81.6621 92.333 136.992 130c55.3291 37.667 120.658 68.5 195.987 92.5c-75.3291 24 -140.658 54.667 -195.987 92c-55.3301 37.333 -100.994 80.5 -136.992 129.5
c-35.9971 49 -62.8291 103.167 -80.4951 162.5c-17.665 59.333 -26.498 122.333 -26.498 189v63c0 81.333 -10.166 153 -30.498 215s-52.1631 114 -95.4941 156s-98.6611 73.667 -165.99 95s-147.991 32 -241.985 32h-132.992v-213h132.992
c42.6641 0 81.1621 -5.66699 115.493 -17s63.4961 -28.833 87.4951 -52.5c23.998 -23.667 42.3301 -53.334 54.9961 -89.001s18.999 -77.834 18.999 -126.501v-59c0 -148.667 24.498 -270.5 73.4951 -365.5s121.159 -165.5 216.486 -211.5
c-95.3271 -46 -167.489 -116.5 -216.486 -211.5s-73.4951 -216.833 -73.4951 -365.5v-59c0 -48.667 -6.33301 -90.834 -18.999 -126.501s-30.998 -65.334 -54.9961 -89.001c-23.999 -23.667 -53.1641 -41.167 -87.4951 -52.5s-72.8291 -17 -115.493 -17h-132.992v-213
h132.992c93.9941 0 174.656 10.667 241.985 32s122.659 53 165.99 95s75.1621 94 95.4941 156s30.498 133.667 30.498 215v63z" />
    <glyph glyph-name="asciitilde" unicode="~" horiz-adv-x="1698" 
d="M171 859c52.667 68 112 120.833 178 158.5s137.667 59.167 215 64.5c42 2.66699 80.667 0.666992 116 -6s68.333 -15.834 99 -27.501s60 -24.834 88 -39.501s55.5 -28.334 82.5 -41.001s54.333 -23.334 82 -32.001s56.834 -13 87.501 -13c54.667 0 104 14 148 42
s83 64 117 108l142 -181c-52.667 -68 -112 -120.833 -178 -158.5s-137.667 -59.167 -215 -64.5c-42 -2.66699 -80.667 -0.666992 -116 6s-68.333 15.834 -99 27.501s-60 24.834 -88 39.501s-55.5 28.334 -82.5 41.001s-54.333 23.334 -82 32.001s-56.834 13 -87.501 13
c-54.667 0 -104 -14 -148 -42s-83 -64 -117 -108z" />
    <glyph glyph-name="nonbreakingspace" unicode="&#xa0;" horiz-adv-x="680" 
 />
    <glyph glyph-name="exclamdown" unicode="&#xa1;" horiz-adv-x="858" 
d="M271 -380.904h317v993.939h-317v-993.939zM192 1009.01c0 -26.665 5.5 -51.8301 16.5 -75.4951s26.833 -44.3311 47.5 -61.9971c20.667 -17.665 45.667 -31.4971 75 -41.4961s62.333 -14.999 99 -14.999s69.667 5 99 14.999s54.166 23.8311 74.499 41.4961
c20.333 17.666 36 38.332 47 61.9971s16.5 48.8301 16.5 75.4951s-5.5 51.8301 -16.5 75.4951s-26.667 44.1641 -47 61.4961c-20.333 17.333 -45.166 31.166 -74.499 41.499s-62.333 15.499 -99 15.499s-69.667 -5.16602 -99 -15.499s-54.333 -24.166 -75 -41.499
c-20.667 -17.332 -36.5 -37.8311 -47.5 -61.4961s-16.5 -48.8301 -16.5 -75.4951z" />
    <glyph glyph-name="cent" unicode="&#xa2;" horiz-adv-x="1526" 
d="M698 1503h237v-1825h-237v1825zM114 587c0 86.667 15.8359 167.498 47.5029 242.498s78 140 139 195s135.667 98.167 224 129.5s189.166 47 302.499 47c49.333 0 99 -3 149 -9s98.167 -14.5 144.5 -25.5s89.833 -24 130.5 -39s76 -31.5 106 -49.5l-137 -223
c-64.667 30 -125.834 52 -183.501 66s-116.167 21 -175.5 21c-68 0 -129 -8.83301 -183 -26.5s-99.833 -42.334 -137.5 -74.001s-66.334 -69 -86.001 -112s-29.5 -89.833 -29.5 -140.5s10.5 -97.5 31.5 -140.5s50.667 -80 89 -111s84.666 -55.333 138.999 -73
s114.833 -26.5 181.5 -26.5c73.333 0 142.5 10.333 207.5 31s125.5 48.334 181.5 83.001l137 -223c-35.333 -21.333 -73.666 -41.166 -114.999 -59.499s-85.5 -34.166 -132.5 -47.499s-96.333 -23.833 -148 -31.5s-105.167 -11.5 -160.5 -11.5
c-112.667 0 -213.667 15.333 -303 46s-165 73.167 -227 127.5s-109.5 118.5 -142.5 192.5s-49.5 154.667 -49.5 242z" />
    <glyph glyph-name="sterling" unicode="&#xa3;" horiz-adv-x="1541" 
d="M274 655l-213.998 -0.00292969v222h266l49 204c17.333 74.667 41.833 142.834 73.5 204.501s71 114.5 118 158.5s101.667 78.167 164 102.5s133.166 36.5 212.499 36.5c52 0 104.167 -5.16699 156.5 -15.5s98.5 -25.166 138.5 -44.499l-105 -249
c-16 9.33301 -38.5 18 -67.5 26s-60.167 12 -93.5 12c-35.333 0 -69 -5.66699 -101 -17s-61 -27.5 -87 -48.5s-48.5 -46.667 -67.5 -77s-33.5 -64.833 -43.5 -103.5l-50 -189h354v-222h-413l-104 -397h486c50.667 0 91.834 5.16699 123.501 15.5s56.5 25.5 74.5 45.5
s30.167 44.333 36.5 73s9.5 61.334 9.5 98.001v19.5c0 6.33301 -0.333008 13.166 -1 20.499h277c2.66699 -16 4.5 -31.667 5.5 -47s1.5 -30.666 1.5 -45.999c0 -65.333 -9.83301 -124.833 -29.5 -178.5s-49.334 -99.667 -89.001 -138s-89.334 -68 -149.001 -89
s-129.5 -31.5 -209.5 -31.5h-877z" />
    <glyph glyph-name="currency" unicode="&#xa4;" horiz-adv-x="1373" 
d="M130 399l182.001 181.001c-21.333 34.667 -37.833 72 -49.5 112s-17.5 82.333 -17.5 127c0 36 3.83301 70.833 11.5 104.5s18.834 65.5 33.501 95.5l-160 160l164 164l151 -151c34.667 21.333 72.667 38.166 114 50.499s85.666 18.5 132.999 18.5
c45.333 0 87.833 -5.66699 127.5 -17s76.5 -27 110.5 -47l148 146l164 -164l-153 -152c16 -31.333 28.333 -64.333 37 -99s13 -71 13 -109c0 -46 -6.16699 -89.667 -18.5 -131s-30.166 -80 -53.499 -116l175 -173l-164 -164l-187 185c-60.667 -28.667 -127 -43 -199 -43
c-38.667 0 -75.334 4 -110.001 12s-67.334 19.667 -98.001 35l-190 -189zM692.001 593.001c34 0 65 5.66699 93 17s52.333 27 73 47s36.667 43.833 48 71.5s17 57.834 17 90.501s-5.66699 62.834 -17 90.501s-27.333 51.5 -48 71.5s-45 35.667 -73 47s-59 17 -93 17
s-65 -5.66699 -93 -17s-52.333 -27 -73 -47s-36.667 -43.833 -48 -71.5s-17 -57.834 -17 -90.501s5.66699 -62.834 17 -90.501s27.333 -51.5 48 -71.5s45 -35.667 73 -47s59 -17 93 -17z" />
    <glyph glyph-name="yen" unicode="&#xa5;" horiz-adv-x="1710" 
d="M186 494h487l-94 154h-393v222h257l-425 693h346l491 -843l491 843h346l-425 -693h256v-222h-392l-95 -154h487v-222h-509v-272h-317v272h-511v222z" />
    <glyph glyph-name="brokenbar" unicode="&#xa6;" horiz-adv-x="682" 
d="M212 1770h257v-934h-257v934zM469 454v-934h-257v934h257z" />
    <glyph glyph-name="section" unicode="&#xa7;" 
d="M351 148c113.333 -52 235.159 -90.9941 365.492 -116.994s262.5 -39 396.5 -39c94 0 171.667 6 233 18s110 27.5 146 46.5s61 40.5 75 64.5s21 47.667 21 71c0 42.667 -20.5 77.834 -61.5 105.501s-104.167 41.5 -189.5 41.5c-36 0 -76.667 -2.33301 -122 -7
s-92.666 -9.83398 -141.999 -15.501s-99.833 -10.834 -151.5 -15.501s-102.167 -7 -151.5 -7c-98 0 -182.667 10.5 -254 31.5s-130.166 49 -176.499 84s-80.666 75.5 -102.999 121.5s-33.5 94.333 -33.5 145c0 53.333 11.833 106.166 35.5 158.499s59.167 100.5 106.5 144.5
c-44 34 -78.667 75.333 -104 124s-38 106 -38 172c0 41.333 5.83301 82.833 17.5 124.5s30.334 81.5 56.001 119.5s58.834 73.5 99.501 106.5s90 61.5 148 85.5s125.167 43 201.5 57s162.833 21 259.5 21c68.667 0 137.834 -3.5 207.501 -10.5s137.834 -17 204.501 -30
s131 -28.667 193 -47s119.667 -38.833 173 -61.5l-140 -238c-43.333 17.333 -90.166 33.666 -140.499 48.999s-103.166 28.666 -158.499 39.999s-112.166 20.166 -170.499 26.499s-116.833 9.5 -175.5 9.5c-88.667 0 -161.667 -7 -219 -21s-102.666 -32 -135.999 -54
s-56.5 -46.333 -69.5 -73s-19.5 -52.334 -19.5 -77.001c0 -48 20.667 -85.833 62 -113.5s104.333 -41.5 189 -41.5c36.667 0 77.5 2.33301 122.5 7l142 15.5c49.667 5.66699 100.167 10.834 151.5 15.501s101.333 7 150 7c92 0 173.333 -9.66699 244 -29
s130 -46.833 178 -82.5s84.333 -78.834 109 -129.501s37 -107 37 -169c0 -49.333 -9 -97.5 -27 -144.5s-50.333 -94.5 -97 -142.5c40 -35.333 70.667 -76.166 92 -122.499s32 -97.5 32 -153.5c0 -40.667 -6.16699 -81 -18.5 -121s-32 -78.167 -59 -114.5
s-61.833 -70 -104.5 -101s-94.334 -57.833 -155.001 -80.5s-130.834 -40.334 -210.501 -53.001s-169.834 -19 -270.501 -19c-92 0 -184 5.16699 -276 15.5s-178.5 23.833 -259.5 40.5s-153.5 35.5 -217.5 56.5s-114.333 42.167 -151 63.5zM535.993 726.006
c0 -20 4.66699 -39.1719 14 -57.5049s25 -34.666 47 -48.999s51.333 -25.666 88 -33.999s82.334 -12.5 137.001 -12.5c44.667 0 91 2.5 139 7.5s96.333 10.667 145 17s97 12 145 17s94.333 7.5 139 7.5c23.333 0 45.833 -0.833008 67.5 -2.5s43.167 -4.16699 64.5 -7.5
c23.333 18.667 39.833 38.834 49.5 60.501s14.5 44.167 14.5 67.5c0 54.667 -23.333 97.5 -70 128.5s-119.334 46.5 -218.001 46.5c-43.333 0 -89 -2.66699 -137 -8s-96.5 -11.166 -145.5 -17.499s-97.333 -12.166 -145 -17.499s-93.167 -8 -136.5 -8
c-35.333 0 -70 2 -104 6c-29.333 -15.333 -52.333 -35.833 -69 -61.5s-25 -53.167 -25 -82.5z" />
    <glyph glyph-name="dieresis" unicode="&#xa8;" horiz-adv-x="1223" 
d="M910 1402c-32.667 0 -62 5 -88 15s-48.167 23.5 -66.5 40.5s-32.333 36.5 -42 58.5s-14.5 45 -14.5 69s4.83301 46.833 14.5 68.5s23.667 40.667 42 57s40.5 29.166 66.5 38.499s55.333 14 88 14s62.167 -4.66699 88.5 -14s48.666 -22.166 66.999 -38.499
s32.333 -35.333 42 -57s14.5 -44.5 14.5 -68.5s-4.83301 -47 -14.5 -69s-23.667 -41.5 -42 -58.5s-40.666 -30.5 -66.999 -40.5s-55.833 -15 -88.5 -15zM311 1402c-32.667 0 -62 5 -88 15s-48.167 23.5 -66.5 40.5s-32.333 36.5 -42 58.5s-14.5 45 -14.5 69
s4.83301 46.833 14.5 68.5s23.667 40.667 42 57s40.5 29.166 66.5 38.499s55.333 14 88 14s62.167 -4.66699 88.5 -14s48.666 -22.166 66.999 -38.499s32.333 -35.333 42 -57s14.5 -44.5 14.5 -68.5s-4.83301 -47 -14.5 -69s-23.667 -41.5 -42 -58.5
s-40.666 -30.5 -66.999 -40.5s-55.833 -15 -88.5 -15z" />
    <glyph glyph-name="copyright" unicode="&#xa9;" horiz-adv-x="2228" 
d="M212 869c0 82 10.001 161.167 30.001 237.5s48.833 147.5 86.5 213.5s83.334 126 137.001 180s113.834 100.333 180.501 139s139.334 68.5 218.001 89.5s162 31.5 250 31.5c87.333 0 170.333 -10.5 249 -31.5s151.5 -50.833 218.5 -89.5s127.333 -85 181 -139
s99.167 -114 136.5 -180s66.166 -137.167 86.499 -213.5s30.5 -155.5 30.5 -237.5s-10 -161 -30 -237s-48.833 -147 -86.5 -213s-83.334 -126.167 -137.001 -180.5s-113.834 -100.833 -180.501 -139.5s-139.334 -68.667 -218.001 -90s-162 -32 -250 -32
s-171.333 10.667 -250 32s-151.5 51.333 -218.5 90s-127.167 85.167 -180.5 139.5s-98.833 114.5 -136.5 180.5s-66.5 137 -86.5 213s-30 155 -30 237zM421.001 869c0 -66 7.66699 -128.498 23 -187.498s37.5 -113.667 66.5 -164s64 -95.833 105 -136.5
s87.167 -75.334 138.5 -104.001s107.333 -50.667 168 -66s124.667 -23 192 -23c100.667 0 193.5 17 278.5 51s158.167 81.167 219.5 141.5s109.166 132.166 143.499 215.499s51.5 174.333 51.5 273c0 98 -17.167 188.667 -51.5 272s-82.166 155.333 -143.499 216
s-134.333 108 -219 142s-177.667 51 -279 51s-194.5 -17 -279.5 -51s-158.167 -81.333 -219.5 -142s-109 -132.667 -143 -216s-51 -174 -51 -272zM656.001 873.002c0 58.667 10.832 114.337 32.499 167.004s53.167 98.667 94.5 138s92 70.5 152 93.5s128.667 34.5 206 34.5
c30 0 60.333 -1.83301 91 -5.5s60.667 -8.66699 90 -15s57.5 -14.166 84.5 -23.499s51.5 -20 73.5 -32l-74 -164c-42 19.333 -83 33.166 -123 41.499s-78 12.5 -114 12.5c-48 0 -90.167 -6.5 -126.5 -19.5s-66.666 -30.833 -90.999 -53.5s-42.833 -49 -55.5 -79
s-19 -62 -19 -96c0 -34.667 6.5 -67.334 19.5 -98.001s32 -57.334 57 -80.001s55.667 -40.5 92 -53.5s78.166 -19.5 125.499 -19.5c50.667 0 98.5 7.33301 143.5 22s84.167 33.667 117.5 57l75 -165c-46 -28.667 -99.167 -52.5 -159.5 -71.5s-126.166 -28.5 -197.499 -28.5
c-74.667 0 -142.5 11.167 -203.5 33.5s-113 53.166 -156 92.499s-76.167 85.666 -99.5 138.999s-35 111 -35 173z" />
    <glyph glyph-name="ordfeminine" unicode="&#xaa;" horiz-adv-x="1368" 
d="M583 693c-67.333 0 -125.832 7.33496 -175.499 22.002s-90.667 35 -123 61s-56.5 56.667 -72.5 92s-24 73.666 -24 114.999c0 42 8.33301 80.167 25 114.5s42.167 63.833 76.5 88.5s77.833 43.834 130.5 57.501s114.667 20.5 186 20.5c107.333 0 222 -16 344 -48
c-16 61.333 -49.5 106.666 -100.5 135.999s-116.833 44 -197.5 44c-50.667 0 -103.834 -5.83301 -159.501 -17.5s-110.167 -29.5 -163.5 -53.5l-69 189c68 24 138.667 43.333 212 58s146.333 22 219 22c162.667 0 284.834 -41.5 366.501 -124.5s122.5 -210.167 122.5 -381.5
v-379h-228v82c-20.667 -12.667 -43.834 -24.834 -69.501 -36.501s-53.667 -22 -84 -31s-63.5 -16.333 -99.5 -22s-74.667 -8.5 -116 -8.5zM609.001 891.002c38 0 74 3.33301 108 10s65.667 15.667 95 27s55.833 24.5 79.5 39.5s43.834 30.5 60.501 46.5v18
c-31.333 9.33301 -62.333 17.166 -93 23.499s-60.334 11.333 -89.001 15s-55.5 6.33398 -80.5 8.00098s-47.5 2.5 -67.5 2.5c-38 0 -69.333 -2.33301 -94 -7s-44.5 -11 -59.5 -19s-25.5 -17.5 -31.5 -28.5s-9 -22.833 -9 -35.5c0 -13.333 3 -26 9 -38s16 -22.5 30 -31.5
s32.667 -16.333 56 -22s52 -8.5 86 -8.5z" />
    <glyph glyph-name="guillemotleft" unicode="&#xab;" horiz-adv-x="2042" 
d="M240 394l409 314l-409 314l140 183l645 -497l-645 -497zM1070 394l409 314l-409 314l140 183l645 -497l-645 -497z" />
    <glyph glyph-name="logicalnot" unicode="&#xac;" horiz-adv-x="1480" 
d="M137 1060h1206l-1 -579h-232v357h-973v222z" />
    <glyph glyph-name="uni00AD" unicode="&#xad;" horiz-adv-x="1229" 
 />
    <glyph glyph-name="registered" unicode="&#xae;" horiz-adv-x="2228" 
d="M212 869c0 82 10.001 161.167 30.001 237.5s48.833 147.5 86.5 213.5s83.334 126 137.001 180s113.834 100.333 180.501 139s139.334 68.5 218.001 89.5s162 31.5 250 31.5c87.333 0 170.333 -10.5 249 -31.5s151.5 -50.833 218.5 -89.5s127.333 -85 181 -139
s99.167 -114 136.5 -180s66.166 -137.167 86.499 -213.5s30.5 -155.5 30.5 -237.5s-10 -161 -30 -237s-48.833 -147 -86.5 -213s-83.334 -126.167 -137.001 -180.5s-113.834 -100.833 -180.501 -139.5s-139.334 -68.667 -218.001 -90s-162 -32 -250 -32
s-171.333 10.667 -250 32s-151.5 51.333 -218.5 90s-127.167 85.167 -180.5 139.5s-98.833 114.5 -136.5 180.5s-66.5 137 -86.5 213s-30 155 -30 237zM421.001 869c0 -66 7.66699 -128.498 23 -187.498s37.5 -113.667 66.5 -164s64 -95.833 105 -136.5
s87.167 -75.334 138.5 -104.001s107.333 -50.667 168 -66s124.667 -23 192 -23c100.667 0 193.5 17 278.5 51s158.167 81.167 219.5 141.5s109.166 132.166 143.499 215.499s51.5 174.333 51.5 273c0 98 -17.167 188.667 -51.5 272s-82.166 155.333 -143.499 216
s-134.333 108 -219 142s-177.667 51 -279 51s-194.5 -17 -279.5 -51s-158.167 -81.333 -219.5 -142s-109 -132.667 -143 -216s-51 -174 -51 -272zM734.001 1297l310.002 0.00195312c96.667 0 176.667 -7.83301 240 -23.5s113.666 -36.834 150.999 -63.501
s63.5 -57.834 78.5 -93.501s22.5 -73.5 22.5 -113.5c0 -30 -3.83301 -58.667 -11.5 -86s-20 -52.5 -37 -75.5s-38.833 -43.5 -65.5 -61.5s-59.334 -33.333 -98.001 -46l228 -274h-247l-200 240h-56l-111 1v-241h-204v837zM1047 868.004c52 0 95.835 2.83398 131.502 8.50098
s64.167 14 85.5 25s36.666 24.333 45.999 40s14 33.5 14 53.5c0 19.333 -4.5 37 -13.5 53s-24.333 29.667 -46 41s-50.334 20.166 -86.001 26.499s-80.5 9.5 -134.5 9.5h-106v-257h109z" />
    <glyph glyph-name="macron" unicode="&#xaf;" horiz-adv-x="1193" 
d="M100 1690h993v-243h-993v243z" />
    <glyph glyph-name="degree" unicode="&#xb0;" horiz-adv-x="858" 
d="M429 943c-47.333 0 -90.833 7.66699 -130.5 23s-74 37.333 -103 66s-51.667 62.834 -68 102.501s-24.5 84.167 -24.5 133.5c0 48.667 8.16699 93 24.5 133s39 74.333 68 103s63.333 50.667 103 66s83.167 23 130.5 23s90.833 -7.66699 130.5 -23s74 -37.333 103 -66
s51.667 -63 68 -103s24.5 -84.333 24.5 -133c0 -49.333 -8.16699 -93.833 -24.5 -133.5s-39 -73.834 -68 -102.501s-63.333 -50.667 -103 -66s-83.167 -23 -130.5 -23zM429 1107c20.667 0 40 4 58 12s33.667 19 47 33s23.833 30.833 31.5 50.5s11.5 41.5 11.5 65.5
s-3.83301 45.833 -11.5 65.5s-18.167 36.5 -31.5 50.5s-29 25 -47 33s-37.333 12 -58 12s-40 -4 -58 -12s-33.667 -19 -47 -33s-23.833 -30.833 -31.5 -50.5s-11.5 -41.5 -11.5 -65.5s3.83301 -45.833 11.5 -65.5s18.167 -36.5 31.5 -50.5s29 -25 47 -33s37.333 -12 58 -12z
" />
    <glyph glyph-name="plusminus" unicode="&#xb1;" horiz-adv-x="1191" 
d="M137 221h917v-222h-917v222zM479 684h-342v222h342v339h232v-339h343v-222h-343v-357h-232v357z" />
    <glyph glyph-name="twosuperior" unicode="&#xb2;" horiz-adv-x="1188" 
d="M155 917l371.002 267.002c52 36.667 94 68.167 126 94.5s57 49.666 75 69.999s30 38.666 36 54.999s9 32.833 9 49.5c0 40.667 -16.333 72.667 -49 96s-83.334 35 -152.001 35c-54 0 -110.333 -8.66699 -169 -26s-116.667 -43 -174 -77l-100 187
c66.667 42 139.167 74.5 217.5 97.5s159.833 34.5 244.5 34.5c74 0 138.333 -9 193 -27s100 -42.333 136 -73s62.833 -66.167 80.5 -106.5s26.5 -82.833 26.5 -127.5c0 -27.333 -4.16699 -56.5 -12.5 -87.5s-25.333 -64.5 -51 -100.5s-61.834 -75 -108.501 -117
s-108 -88 -184 -138l-155 -111h544v-214h-904v219z" />
    <glyph glyph-name="threesuperior" unicode="&#xb3;" horiz-adv-x="1188" 
d="M216 969c53.333 -26 110.33 -45 170.997 -57s120 -18 178 -18c48 0 88.833 3.66699 122.5 11s61.334 17.333 83.001 30s37.334 27.334 47.001 44.001s14.5 34 14.5 52c0 26.667 -10 51.667 -30 75s-50.167 41.5 -90.5 54.5s-91.5 18.833 -153.5 17.5
s-135 -13.666 -219 -36.999l1 178l356 236h-523v214h866v-190l-346 -219c60.667 -2 114.834 -12 162.501 -30s87.834 -41.833 120.501 -71.5s57.5 -64.334 74.5 -104.001s25.5 -81.834 25.5 -126.501c0 -53.333 -11.833 -101.5 -35.5 -144.5s-57.667 -79.833 -102 -110.5
s-98.333 -54.167 -162 -70.5s-135.5 -24.5 -215.5 -24.5c-85.333 0 -164.333 9 -237 27s-141.334 43.333 -206.001 76z" />
    <glyph glyph-name="acute" unicode="&#xb4;" horiz-adv-x="1038" 
d="M98 1528l686 321l111 -229l-698 -299z" />
    <glyph glyph-name="mu" unicode="&#xb5;" horiz-adv-x="1710" 
d="M481 -481h-296.002l1 1661v1h296v-576c0 -54.667 6 -104.5 18 -149.5s32.5 -83.5 61.5 -115.5s67.667 -56.833 116 -74.5s108.5 -26.5 180.5 -26.5c34 0 68.5 3.66699 103.5 11s68.5 17.5 100.5 30.5s61.833 28.5 89.5 46.5s51.5 37.667 71.5 59v795h296v-1180h-296v100
c-72.667 -43.333 -145.667 -74.333 -219 -93s-143 -28 -209 -28c-61.333 0 -118.166 6.5 -170.499 19.5s-100.166 33.833 -143.499 62.5v-543z" />
    <glyph glyph-name="paragraph" unicode="&#xb6;" horiz-adv-x="2046" 
d="M878 460c-122 3.33301 -230.5 18.167 -325.5 44.5s-174.833 63 -239.5 110s-113.834 103.833 -147.501 170.5s-50.5 142 -50.5 226c0 51.333 6.5 100.833 19.5 148.5s33.667 92.334 62 134.001s64.833 79.667 109.5 114s98.167 63.666 160.5 87.999
s134.333 43.333 216 57s173.834 20.5 276.501 20.5h925v-213h-259v-1842h-257v1842h-233v-1842h-257v942z" />
    <glyph glyph-name="periodcentered" unicode="&#xb7;" horiz-adv-x="858" 
d="M191 818c0 26.667 5.5 51.834 16.5 75.501s26.833 44.334 47.5 62.001s45.667 31.5 75 41.5s62.333 15 99 15s69.667 -5 99 -15s54.166 -23.833 74.499 -41.5s36 -38.334 47 -62.001s16.5 -48.834 16.5 -75.501s-5.5 -51.834 -16.5 -75.501s-26.667 -44.167 -47 -61.5
s-45.166 -31.166 -74.499 -41.499s-62.333 -15.5 -99 -15.5s-69.667 5.16699 -99 15.5s-54.333 24.166 -75 41.499s-36.5 37.833 -47.5 61.5s-16.5 48.834 -16.5 75.501z" />
    <glyph glyph-name="cedilla" unicode="&#xb8;" horiz-adv-x="837" 
d="M473 30l-0.000976562 -103.002c113.333 -13.333 195.166 -40.166 245.499 -80.499s75.5 -92.5 75.5 -156.5c0 -36.667 -9.16699 -68.667 -27.5 -96s-43.333 -50.166 -75 -68.499s-69 -32.166 -112 -41.499s-89.5 -14 -139.5 -14c-52.667 0 -106.667 5.16699 -162 15.5
s-105.666 25.166 -150.999 44.499l67 161c44 -15.333 84.833 -26 122.5 -32s73.167 -9 106.5 -9c26.667 0 48.834 1.5 66.501 4.5s31.834 7 42.501 12s18.167 10.667 22.5 17s6.5 12.833 6.5 19.5c0 10 -4.33301 19.167 -13 27.5s-23.334 15.5 -44.001 21.5
s-48.667 10.667 -84 14s-79.333 5 -132 5v259h185z" />
    <glyph glyph-name="onesuperior" unicode="&#xb9;" horiz-adv-x="858" 
d="M144 912l217.002 -0.000976562v639c-56 -15.333 -110 -38.666 -162 -69.999l-119 174c73.333 44 153.666 77.167 240.999 99.5s179.666 33.5 276.999 33.5l-1 -1h1v-875h189v-214h-643v214z" />
    <glyph glyph-name="ordmasculine" unicode="&#xba;" horiz-adv-x="1368" 
d="M684 689c-83.333 0 -158.666 11.833 -225.999 35.5s-124.666 56 -171.999 97s-83.666 89.167 -108.999 144.5s-38 114.333 -38 177s12.667 121.5 38 176.5s61.666 103 108.999 144s104.666 73.333 171.999 97s142.666 35.5 225.999 35.5s158.666 -11.833 225.999 -35.5
s124.666 -56 171.999 -97s83.666 -89 108.999 -144s38 -113.833 38 -176.5s-12.667 -121.667 -38 -177s-61.666 -103.5 -108.999 -144.5s-104.666 -73.333 -171.999 -97s-142.666 -35.5 -225.999 -35.5zM684 892c48 0 90.833 6.66699 128.5 20s69.5 31.5 95.5 54.5
s45.833 49.667 59.5 80s20.5 62.5 20.5 96.5s-6.83301 66.167 -20.5 96.5s-33.5 57 -59.5 80s-57.833 41.333 -95.5 55s-80.5 20.5 -128.5 20.5s-90.833 -6.83301 -128.5 -20.5s-69.5 -32 -95.5 -55s-45.833 -49.667 -59.5 -80s-20.5 -62.5 -20.5 -96.5
s6.83301 -66.167 20.5 -96.5s33.5 -57 59.5 -80s57.833 -41.167 95.5 -54.5s80.5 -20 128.5 -20z" />
    <glyph glyph-name="guillemotright" unicode="&#xbb;" horiz-adv-x="2042" 
d="M972.015 394l-408.975 314l408.975 314l-139.991 183l-644.961 -497l644.961 -497zM1802.01 394l-408.976 314l408.976 314l-139.991 183l-644.961 -497l644.961 -497z" />
    <glyph glyph-name="onequarter" unicode="&#xbc;" horiz-adv-x="2897" 
d="M1904 1920h267l-1282 -2097h-267zM1638 414l624 649h237v-649h185v-214h-185v-200h-237v200h-624v214zM2262 414v357l-347 -357h347zM274 912l217.002 -0.000976562v639c-56 -15.333 -110 -38.666 -162 -69.999l-119 174c73.333 44 153.666 77.167 240.999 99.5
s179.666 33.5 276.999 33.5l-1 -1h1v-875h189v-214h-643v214z" />
    <glyph glyph-name="onehalf" unicode="&#xbd;" horiz-adv-x="2905" 
d="M1874 1920h267l-1282 -2097h-267zM274 912l217.002 -0.000976562v639c-56 -15.333 -110 -38.666 -162 -69.999l-119 174c73.333 44 153.666 77.167 240.999 99.5s179.666 33.5 276.999 33.5l-1 -1h1v-875h189v-214h-643v214zM1801 205.999l371 267.002
c52 36.667 94 68.167 126 94.5s57 49.666 75 69.999s30 38.666 36 54.999s9 32.833 9 49.5c0 40.667 -16.333 72.667 -49 96s-83.334 35 -152 35c-54 0 -110.333 -8.66699 -169 -26s-116.667 -43 -174 -77l-100 187c66.667 42 139.167 74.5 217.5 97.5
s159.833 34.5 244.5 34.5c74 0 138.333 -9 193 -27s100 -42.333 136 -73s62.833 -66.167 80.5 -106.5s26.5 -82.833 26.5 -127.5c0 -27.333 -4.16699 -56.5 -12.5 -87.5s-25.333 -64.5 -51 -100.5s-61.834 -75 -108.5 -117c-46.667 -42 -108 -88 -184 -138l-155 -111h544
v-214h-904v219z" />
    <glyph glyph-name="threequarters" unicode="&#xbe;" horiz-adv-x="2897" 
d="M1904 1920h267l-1282 -2097h-267zM1638 414l624 649h237v-649h185v-214h-185v-200h-237v200h-624v214zM2262 414v357l-347 -357h347zM198 969c53.333 -26 110.33 -45 170.997 -57s120 -18 178 -18c48 0 88.833 3.66699 122.5 11s61.334 17.333 83.001 30
s37.334 27.334 47.001 44.001s14.5 34 14.5 52c0 26.667 -10 51.667 -30 75s-50.167 41.5 -90.5 54.5s-91.5 18.833 -153.5 17.5s-135 -13.666 -219 -36.999l1 178l356 236h-523v214h866v-190l-346 -219c60.667 -2 114.834 -12 162.501 -30s87.834 -41.833 120.501 -71.5
s57.5 -64.334 74.5 -104.001s25.5 -81.834 25.5 -126.501c0 -53.333 -11.833 -101.5 -35.5 -144.5s-57.667 -79.833 -102 -110.5s-98.333 -54.167 -162 -70.5s-135.5 -24.5 -215.5 -24.5c-85.333 0 -164.333 9 -237 27s-141.334 43.333 -206.001 76z" />
    <glyph glyph-name="questiondown" unicode="&#xbf;" horiz-adv-x="1710" 
d="M1041.04 219.059c-112.66 -5.33301 -206.985 -13.8291 -282.98 -25.4951s-136.825 -25.999 -182.489 -42.998s-78.1621 -36.3311 -97.4941 -57.9961s-28.998 -45.4971 -28.998 -71.4961c0 -24.665 7.99902 -46.6641 23.998 -65.9971
c15.999 -19.332 38.998 -35.4971 68.9961 -48.4961s66.4961 -22.832 109.493 -29.498c42.9971 -6.66699 91.4941 -10 145.491 -10c57.9971 0 116.66 3.66602 175.989 10.999s116.325 17.333 170.988 29.999c54.6631 12.665 105.993 27.6641 153.99 44.9971
c47.9971 17.332 89.9941 35.6641 125.992 54.9961l145.991 -239.985c-33.998 -19.999 -76.6621 -40.8311 -127.992 -62.4961s-109.493 -41.4971 -174.489 -59.4961s-135.825 -32.665 -212.487 -43.998s-157.657 -16.999 -242.985 -16.999
c-105.993 0 -201.154 9.83301 -285.482 29.498s-155.657 47.9961 -213.987 84.9932c-58.3291 36.998 -102.993 82.4951 -133.991 136.492s-46.4971 115.326 -46.4971 183.988c0 51.9971 10.166 99.9941 30.498 143.991s54.4961 83.6611 102.493 118.992
s111.993 65.9961 191.988 91.9941c79.9951 25.999 179.656 46.998 298.982 62.9971v172.99h284.982v-391.977zM1109.04 1007.01c0 -26.665 -5.5 -51.8301 -16.499 -75.4951s-26.8311 -44.3311 -47.4961 -61.9971c-20.665 -17.665 -45.6641 -31.4971 -74.9961 -41.4961
c-29.3311 -9.99902 -62.3291 -14.999 -98.9941 -14.999c-36.6641 0 -69.6621 5 -98.9932 14.999c-29.332 9.99902 -54.1641 23.8311 -74.4961 41.4961c-20.332 17.666 -35.998 38.332 -46.9971 61.9971s-16.499 48.8301 -16.499 75.4951s5.5 51.8301 16.499 75.4951
s26.665 44.1641 46.9971 61.4961c20.332 17.333 45.1641 31.166 74.4961 41.499c29.3311 10.333 62.3291 15.499 98.9932 15.499c36.665 0 69.6631 -5.16602 98.9941 -15.499c29.332 -10.333 54.3311 -24.166 74.9961 -41.499
c20.665 -17.332 36.4971 -37.8311 47.4961 -61.4961s16.499 -48.8301 16.499 -75.4951z" />
    <glyph glyph-name="Agrave" unicode="&#xc0;" horiz-adv-x="1868" 
d="M755 1563h336l756 -1563h-333l-125 263h-913l-121 -263h-334zM1264 524l-338 710l-329 -710h667zM624 2030l674 -189l-62 -218l-682 159z" />
    <glyph glyph-name="Aacute" unicode="&#xc1;" horiz-adv-x="1868" 
d="M755 1563h336l756 -1563h-333l-125 263h-913l-121 -263h-334zM1264 524l-338 710l-329 -710h667zM554 1841l674 189l70 -248l-682 -159z" />
    <glyph glyph-name="Acircumflex" unicode="&#xc2;" horiz-adv-x="1868" 
d="M755 1563h336l756 -1563h-333l-125 263h-913l-121 -263h-334zM1264 524l-338 710l-329 -710h667zM469 1823l457 207l457 -207l-109 -214l-348 163l-348 -163z" />
    <glyph glyph-name="Atilde" unicode="&#xc3;" horiz-adv-x="1868" 
d="M755 1563h336l756 -1563h-333l-125 263h-913l-121 -263h-334zM1264 524l-338 710l-329 -710h667zM478 1913c36 38 76.333 67 121 87s91 30 139 30c42 0 79 -6.5 111 -19.5s62.333 -27.333 91 -43s56.667 -30 84 -43s57.333 -19.5 90 -19.5c20 0 41.833 2.83301 65.5 8.5
s47.167 13.5 70.5 23.5s45.833 22 67.5 36s40.5 29 56.5 45v-240c-36 -38 -76.333 -67 -121 -87s-91 -30 -139 -30c-42 0 -79 6.5 -111 19.5s-62.333 27.333 -91 43s-56.667 30 -84 43s-57.333 19.5 -90 19.5c-20 0 -41.833 -2.83301 -65.5 -8.5s-47.167 -13.5 -70.5 -23.5
s-45.833 -22 -67.5 -36s-40.5 -29 -56.5 -45v240z" />
    <glyph glyph-name="Adieresis" unicode="&#xc4;" horiz-adv-x="1868" 
d="M755 1563h336l756 -1563h-333l-125 263h-913l-121 -263h-334zM1264 524l-338 710l-329 -710h667zM1271 1669c-32.667 0 -62 5 -88 15s-48.167 23.5 -66.5 40.5s-32.333 36.5 -42 58.5s-14.5 45 -14.5 69s4.83301 46.833 14.5 68.5s23.667 40.667 42 57
s40.5 29.166 66.5 38.499s55.333 14 88 14s62.167 -4.66699 88.5 -14s48.666 -22.166 66.999 -38.499s32.333 -35.333 42 -57s14.5 -44.5 14.5 -68.5s-4.83301 -47 -14.5 -69s-23.667 -41.5 -42 -58.5s-40.666 -30.5 -66.999 -40.5s-55.833 -15 -88.5 -15zM580 1669
c-32.667 0 -62 5 -88 15s-48.167 23.5 -66.5 40.5s-32.333 36.5 -42 58.5s-14.5 45 -14.5 69s4.83301 46.833 14.5 68.5s23.667 40.667 42 57s40.5 29.166 66.5 38.499s55.333 14 88 14s62.167 -4.66699 88.5 -14s48.666 -22.166 66.999 -38.499s32.333 -35.333 42 -57
s14.5 -44.5 14.5 -68.5s-4.83301 -47 -14.5 -69s-23.667 -41.5 -42 -58.5s-40.666 -30.5 -66.999 -40.5s-55.833 -15 -88.5 -15z" />
    <glyph glyph-name="Aring" unicode="&#xc5;" horiz-adv-x="1868" 
d="M755 1563h336l756 -1563h-333l-125 263h-913l-121 -263h-334zM1264 524l-338 710l-329 -710h667zM926 1415c-53.333 0 -101 8 -143 24s-77.667 37.833 -107 65.5s-51.833 60.167 -67.5 97.5s-23.5 77.333 -23.5 120s7.83301 82.667 23.5 120s38.167 69.833 67.5 97.5
s65 49.5 107 65.5s89.667 24 143 24c52.667 0 100.167 -8 142.5 -24s78.166 -37.833 107.499 -65.5s51.833 -60.167 67.5 -97.5s23.5 -77.333 23.5 -120s-7.83301 -82.667 -23.5 -120s-38.167 -69.833 -67.5 -97.5s-65.166 -49.5 -107.499 -65.5s-89.833 -24 -142.5 -24z
M926 1582c22.667 0 43.167 3.66699 61.5 11s33.666 17.333 45.999 30s21.833 27.5 28.5 44.5s10 35.167 10 54.5c0 20 -3.33301 38.333 -10 55s-16.167 31.334 -28.5 44.001s-27.666 22.5 -45.999 29.5s-38.833 10.5 -61.5 10.5c-23.333 0 -44 -3.5 -62 -10.5
s-33.167 -16.833 -45.5 -29.5s-21.833 -27.334 -28.5 -44.001s-10 -35 -10 -55c0 -19.333 3.33301 -37.5 10 -54.5s16.167 -31.833 28.5 -44.5s27.5 -22.667 45.5 -30s38.667 -11 62 -11z" />
    <glyph glyph-name="AE" unicode="&#xc6;" horiz-adv-x="2729" 
d="M1193 1563h1310v-278h-885v-312h769v-261h-769v-435h906v-277h-1223v263h-755l-198 -263h-344zM1301 524v740l-558 -740h558zM1301 1563h1331v-278h-1014v-312h898v-261h-898v-435h1035v-277h-1352v1563z" />
    <glyph glyph-name="Ccedilla" unicode="&#xc7;" horiz-adv-x="1879" 
d="M127 791c0 111.333 21.001 215.168 63.001 311.501s102.833 180 182.5 251s177 126.833 292 167.5s245.167 61 390.5 61c127.333 0 244.166 -12.833 350.499 -38.5s205.166 -64.834 296.499 -117.501l-146 -240c-27.333 18 -58.833 34 -94.5 48s-73.667 25.833 -114 35.5
s-82 17.167 -125 22.5s-85.5 8 -127.5 8c-101.333 0 -191.666 -12.5 -270.999 -37.5s-146.166 -60 -200.499 -105s-95.666 -98.667 -123.999 -161s-42.5 -130.833 -42.5 -205.5c0 -77.333 14.667 -148.333 44 -213s71.833 -120.5 127.5 -167.5s123.667 -83.667 204 -110
s171.166 -39.5 272.499 -39.5c46 0 91.667 3.33301 137 10s89.166 15.834 131.499 27.501s83.166 25.667 122.499 42s76 34.166 110 53.499l146 -240c-85.333 -54.667 -184 -97.5 -296 -128.5s-231 -46.5 -357 -46.5c-160.667 0 -301.667 20.833 -423 62.5
s-222.666 99 -303.999 172s-142.5 159 -183.5 258s-61.5 205.5 -61.5 319.5zM1038 30.002l-0.000976562 -103.002c113.333 -13.333 195.166 -40.166 245.499 -80.499s75.5 -92.5 75.5 -156.5c0 -36.667 -9.16699 -68.667 -27.5 -96s-43.333 -50.166 -75 -68.499
s-69 -32.166 -112 -41.499s-89.5 -14 -139.5 -14c-52.667 0 -106.667 5.16699 -162 15.5s-105.666 25.166 -150.999 44.499l67 161c44 -15.333 84.833 -26 122.5 -32s73.167 -9 106.5 -9c26.667 0 48.834 1.5 66.501 4.5s31.834 7 42.501 12s18.167 10.667 22.5 17
s6.5 12.833 6.5 19.5c0 10 -4.33301 19.167 -13 27.5s-23.334 15.5 -44.001 21.5s-48.667 10.667 -84 14s-79.333 5 -132 5v259h185z" />
    <glyph glyph-name="Egrave" unicode="&#xc8;" horiz-adv-x="1704" 
d="M222 1563h1331v-278h-1014v-312h898v-261h-898v-435h1035v-277h-1352v1563zM596 2030l674 -189l-62 -218l-682 159z" />
    <glyph glyph-name="Eacute" unicode="&#xc9;" horiz-adv-x="1704" 
d="M222 1563h1331v-278h-1014v-312h898v-261h-898v-435h1035v-277h-1352v1563zM526 1841l674 189l70 -248l-682 -159z" />
    <glyph glyph-name="Ecircumflex" unicode="&#xca;" horiz-adv-x="1704" 
d="M222 1563h1331v-278h-1014v-312h898v-261h-898v-435h1035v-277h-1352v1563zM441 1823l457 207l457 -207l-109 -214l-348 163l-348 -163z" />
    <glyph glyph-name="Edieresis" unicode="&#xcb;" horiz-adv-x="1704" 
d="M222 1563h1331v-278h-1014v-312h898v-261h-898v-435h1035v-277h-1352v1563zM1243 1669c-32.667 0 -62 5 -88 15s-48.167 23.5 -66.5 40.5s-32.333 36.5 -42 58.5s-14.5 45 -14.5 69s4.83301 46.833 14.5 68.5s23.667 40.667 42 57s40.5 29.166 66.5 38.499
s55.333 14 88 14s62.167 -4.66699 88.5 -14s48.666 -22.166 66.999 -38.499s32.333 -35.333 42 -57s14.5 -44.5 14.5 -68.5s-4.83301 -47 -14.5 -69s-23.667 -41.5 -42 -58.5s-40.666 -30.5 -66.999 -40.5s-55.833 -15 -88.5 -15zM552 1669c-32.667 0 -62 5 -88 15
s-48.167 23.5 -66.5 40.5s-32.333 36.5 -42 58.5s-14.5 45 -14.5 69s4.83301 46.833 14.5 68.5s23.667 40.667 42 57s40.5 29.166 66.5 38.499s55.333 14 88 14s62.167 -4.66699 88.5 -14s48.666 -22.166 66.999 -38.499s32.333 -35.333 42 -57s14.5 -44.5 14.5 -68.5
s-4.83301 -47 -14.5 -69s-23.667 -41.5 -42 -58.5s-40.666 -30.5 -66.999 -40.5s-55.833 -15 -88.5 -15z" />
    <glyph glyph-name="Igrave" unicode="&#xcc;" horiz-adv-x="683" 
d="M182 1563h319v-1563h-319v1563zM40 2030l674 -189l-62 -218l-682 159z" />
    <glyph glyph-name="Iacute" unicode="&#xcd;" horiz-adv-x="683" 
d="M182 1563h319v-1563h-319v1563zM-30 1841l674 189l70 -248l-682 -159z" />
    <glyph glyph-name="Icircumflex" unicode="&#xce;" horiz-adv-x="683" 
d="M182 1563h319v-1563h-319v1563zM-115 1823l457 207l457 -207l-109 -214l-348 163l-348 -163z" />
    <glyph glyph-name="Idieresis" unicode="&#xcf;" horiz-adv-x="683" 
d="M182 1563h319v-1563h-319v1563zM687 1669c-32.667 0 -62 5 -88 15s-48.167 23.5 -66.5 40.5s-32.333 36.5 -42 58.5s-14.5 45 -14.5 69s4.83301 46.833 14.5 68.5s23.667 40.667 42 57s40.5 29.166 66.5 38.499s55.333 14 88 14s62.167 -4.66699 88.5 -14
s48.666 -22.166 66.999 -38.499s32.333 -35.333 42 -57s14.5 -44.5 14.5 -68.5s-4.83301 -47 -14.5 -69s-23.667 -41.5 -42 -58.5s-40.666 -30.5 -66.999 -40.5s-55.833 -15 -88.5 -15zM-4 1669c-32.667 0 -62 5 -88 15s-48.167 23.5 -66.5 40.5s-32.333 36.5 -42 58.5
s-14.5 45 -14.5 69s4.83301 46.833 14.5 68.5s23.667 40.667 42 57s40.5 29.166 66.5 38.499s55.333 14 88 14s62.167 -4.66699 88.5 -14s48.666 -22.166 66.999 -38.499s32.333 -35.333 42 -57s14.5 -44.5 14.5 -68.5s-4.83301 -47 -14.5 -69s-23.667 -41.5 -42 -58.5
s-40.666 -30.5 -66.999 -40.5s-55.833 -15 -88.5 -15z" />
    <glyph glyph-name="Eth" unicode="&#xd0;" horiz-adv-x="1879" 
d="M8 915h917v-222h-917v222zM222 1563l573 -0.00195312c167.333 0 312.666 -18 435.999 -54s225.5 -87.5 306.5 -154.5s141.333 -148.333 181 -244s59.5 -203.167 59.5 -322.5c0 -113.333 -19.667 -218.166 -59 -314.499s-99.333 -179.666 -180 -249.999
s-182.667 -125.333 -306 -165s-268.666 -59.5 -435.999 -59.5l-575 1v1563zM873 273.998c94.667 0 177.667 12.166 249 36.499s130.833 58.833 178.5 103.5s83.5 98.667 107.5 162s36 134 36 212c0 76.667 -12 145.834 -36 207.501s-59.833 114 -107.5 157
s-107.167 76.167 -178.5 99.5s-154.333 35 -249 35h-334v-1013h334z" />
    <glyph glyph-name="Ntilde" unicode="&#xd1;" 
d="M220 1563h317l974 -510v510h317v-1563h-317v717l-974 507v-1224h-317v1563zM576 1913c36 38 76.333 67 121 87s91 30 139 30c42 0 79 -6.5 111 -19.5s62.333 -27.333 91 -43s56.667 -30 84 -43s57.333 -19.5 90 -19.5c20 0 41.833 2.83301 65.5 8.5
s47.167 13.5 70.5 23.5s45.833 22 67.5 36s40.5 29 56.5 45v-240c-36 -38 -76.333 -67 -121 -87s-91 -30 -139 -30c-42 0 -79 6.5 -111 19.5s-62.333 27.333 -91 43s-56.667 30 -84 43s-57.333 19.5 -90 19.5c-20 0 -41.833 -2.83301 -65.5 -8.5s-47.167 -13.5 -70.5 -23.5
s-45.833 -22 -67.5 -36s-40.5 -29 -56.5 -45v240z" />
    <glyph glyph-name="Ograve" unicode="&#xd2;" 
d="M130 786c0 118 21.667 226 65 324s104.166 182.167 182.499 252.5s172.333 124.833 282 163.5s231.167 58 364.5 58c132.667 0 254 -19.333 364 -58s204.167 -93.167 282.5 -163.5s139.166 -154.5 182.499 -252.5s65 -206 65 -324c0 -118.667 -21.667 -227.5 -65 -326.5
s-104.166 -184.167 -182.499 -255.5s-172.5 -126.833 -282.5 -166.5s-231.333 -59.5 -364 -59.5c-133.333 0 -254.833 19.833 -364.5 59.5s-203.667 95.167 -282 166.5s-139.166 156.5 -182.499 255.5s-65 207.833 -65 326.5zM447 786
c0 -80.667 14.5 -153.334 43.5 -218.001s69.333 -119.834 121 -165.501s112.667 -80.834 183 -105.501s146.833 -37 229.5 -37s159.167 12.333 229.5 37s131.166 59.834 182.499 105.501s91.666 100.834 120.999 165.501s44 137.334 44 218.001s-14.667 153 -44 217
s-69.666 118.167 -120.999 162.5s-112.166 78.166 -182.499 101.499s-146.833 35 -229.5 35s-159.167 -11.667 -229.5 -35s-131.333 -57.166 -183 -101.499s-92 -98.5 -121 -162.5s-43.5 -136.333 -43.5 -217zM722 2030l674 -189l-62 -218l-682 159z" />
    <glyph glyph-name="Oacute" unicode="&#xd3;" 
d="M130 786c0 118 21.667 226 65 324s104.166 182.167 182.499 252.5s172.333 124.833 282 163.5s231.167 58 364.5 58c132.667 0 254 -19.333 364 -58s204.167 -93.167 282.5 -163.5s139.166 -154.5 182.499 -252.5s65 -206 65 -324c0 -118.667 -21.667 -227.5 -65 -326.5
s-104.166 -184.167 -182.499 -255.5s-172.5 -126.833 -282.5 -166.5s-231.333 -59.5 -364 -59.5c-133.333 0 -254.833 19.833 -364.5 59.5s-203.667 95.167 -282 166.5s-139.166 156.5 -182.499 255.5s-65 207.833 -65 326.5zM447 786
c0 -80.667 14.5 -153.334 43.5 -218.001s69.333 -119.834 121 -165.501s112.667 -80.834 183 -105.501s146.833 -37 229.5 -37s159.167 12.333 229.5 37s131.166 59.834 182.499 105.501s91.666 100.834 120.999 165.501s44 137.334 44 218.001s-14.667 153 -44 217
s-69.666 118.167 -120.999 162.5s-112.166 78.166 -182.499 101.499s-146.833 35 -229.5 35s-159.167 -11.667 -229.5 -35s-131.333 -57.166 -183 -101.499s-92 -98.5 -121 -162.5s-43.5 -136.333 -43.5 -217zM652 1841l674 189l70 -248l-682 -159z" />
    <glyph glyph-name="Ocircumflex" unicode="&#xd4;" 
d="M130 786c0 118 21.667 226 65 324s104.166 182.167 182.499 252.5s172.333 124.833 282 163.5s231.167 58 364.5 58c132.667 0 254 -19.333 364 -58s204.167 -93.167 282.5 -163.5s139.166 -154.5 182.499 -252.5s65 -206 65 -324c0 -118.667 -21.667 -227.5 -65 -326.5
s-104.166 -184.167 -182.499 -255.5s-172.5 -126.833 -282.5 -166.5s-231.333 -59.5 -364 -59.5c-133.333 0 -254.833 19.833 -364.5 59.5s-203.667 95.167 -282 166.5s-139.166 156.5 -182.499 255.5s-65 207.833 -65 326.5zM447 786
c0 -80.667 14.5 -153.334 43.5 -218.001s69.333 -119.834 121 -165.501s112.667 -80.834 183 -105.501s146.833 -37 229.5 -37s159.167 12.333 229.5 37s131.166 59.834 182.499 105.501s91.666 100.834 120.999 165.501s44 137.334 44 218.001s-14.667 153 -44 217
s-69.666 118.167 -120.999 162.5s-112.166 78.166 -182.499 101.499s-146.833 35 -229.5 35s-159.167 -11.667 -229.5 -35s-131.333 -57.166 -183 -101.499s-92 -98.5 -121 -162.5s-43.5 -136.333 -43.5 -217zM567 1823l457 207l457 -207l-109 -214l-348 163l-348 -163z" />
    <glyph glyph-name="Otilde" unicode="&#xd5;" 
d="M130 786c0 118 21.667 226 65 324s104.166 182.167 182.499 252.5s172.333 124.833 282 163.5s231.167 58 364.5 58c132.667 0 254 -19.333 364 -58s204.167 -93.167 282.5 -163.5s139.166 -154.5 182.499 -252.5s65 -206 65 -324c0 -118.667 -21.667 -227.5 -65 -326.5
s-104.166 -184.167 -182.499 -255.5s-172.5 -126.833 -282.5 -166.5s-231.333 -59.5 -364 -59.5c-133.333 0 -254.833 19.833 -364.5 59.5s-203.667 95.167 -282 166.5s-139.166 156.5 -182.499 255.5s-65 207.833 -65 326.5zM447 786
c0 -80.667 14.5 -153.334 43.5 -218.001s69.333 -119.834 121 -165.501s112.667 -80.834 183 -105.501s146.833 -37 229.5 -37s159.167 12.333 229.5 37s131.166 59.834 182.499 105.501s91.666 100.834 120.999 165.501s44 137.334 44 218.001s-14.667 153 -44 217
s-69.666 118.167 -120.999 162.5s-112.166 78.166 -182.499 101.499s-146.833 35 -229.5 35s-159.167 -11.667 -229.5 -35s-131.333 -57.166 -183 -101.499s-92 -98.5 -121 -162.5s-43.5 -136.333 -43.5 -217zM576 1913c36 38 76.333 67 121 87s91 30 139 30
c42 0 79 -6.5 111 -19.5s62.333 -27.333 91 -43s56.667 -30 84 -43s57.333 -19.5 90 -19.5c20 0 41.833 2.83301 65.5 8.5s47.167 13.5 70.5 23.5s45.833 22 67.5 36s40.5 29 56.5 45v-240c-36 -38 -76.333 -67 -121 -87s-91 -30 -139 -30c-42 0 -79 6.5 -111 19.5
s-62.333 27.333 -91 43s-56.667 30 -84 43s-57.333 19.5 -90 19.5c-20 0 -41.833 -2.83301 -65.5 -8.5s-47.167 -13.5 -70.5 -23.5s-45.833 -22 -67.5 -36s-40.5 -29 -56.5 -45v240z" />
    <glyph glyph-name="Odieresis" unicode="&#xd6;" 
d="M130 786c0 118 21.667 226 65 324s104.166 182.167 182.499 252.5s172.333 124.833 282 163.5s231.167 58 364.5 58c132.667 0 254 -19.333 364 -58s204.167 -93.167 282.5 -163.5s139.166 -154.5 182.499 -252.5s65 -206 65 -324c0 -118.667 -21.667 -227.5 -65 -326.5
s-104.166 -184.167 -182.499 -255.5s-172.5 -126.833 -282.5 -166.5s-231.333 -59.5 -364 -59.5c-133.333 0 -254.833 19.833 -364.5 59.5s-203.667 95.167 -282 166.5s-139.166 156.5 -182.499 255.5s-65 207.833 -65 326.5zM447 786
c0 -80.667 14.5 -153.334 43.5 -218.001s69.333 -119.834 121 -165.501s112.667 -80.834 183 -105.501s146.833 -37 229.5 -37s159.167 12.333 229.5 37s131.166 59.834 182.499 105.501s91.666 100.834 120.999 165.501s44 137.334 44 218.001s-14.667 153 -44 217
s-69.666 118.167 -120.999 162.5s-112.166 78.166 -182.499 101.499s-146.833 35 -229.5 35s-159.167 -11.667 -229.5 -35s-131.333 -57.166 -183 -101.499s-92 -98.5 -121 -162.5s-43.5 -136.333 -43.5 -217zM1369 1669c-32.667 0 -62 5 -88 15s-48.167 23.5 -66.5 40.5
s-32.333 36.5 -42 58.5s-14.5 45 -14.5 69s4.83301 46.833 14.5 68.5s23.667 40.667 42 57s40.5 29.166 66.5 38.499s55.333 14 88 14s62.167 -4.66699 88.5 -14s48.666 -22.166 66.999 -38.499s32.333 -35.333 42 -57s14.5 -44.5 14.5 -68.5s-4.83301 -47 -14.5 -69
s-23.667 -41.5 -42 -58.5s-40.666 -30.5 -66.999 -40.5s-55.833 -15 -88.5 -15zM678 1669c-32.667 0 -62 5 -88 15s-48.167 23.5 -66.5 40.5s-32.333 36.5 -42 58.5s-14.5 45 -14.5 69s4.83301 46.833 14.5 68.5s23.667 40.667 42 57s40.5 29.166 66.5 38.499
s55.333 14 88 14s62.167 -4.66699 88.5 -14s48.666 -22.166 66.999 -38.499s32.333 -35.333 42 -57s14.5 -44.5 14.5 -68.5s-4.83301 -47 -14.5 -69s-23.667 -41.5 -42 -58.5s-40.666 -30.5 -66.999 -40.5s-55.833 -15 -88.5 -15z" />
    <glyph glyph-name="multiply" unicode="&#xd7;" horiz-adv-x="1360" 
d="M207 470l312 312l-312 313l164 164l312 -313l313 313l157 -157l-313 -313l313 -312l-164 -164l-313 312l-312 -312z" />
    <glyph glyph-name="Oslash" unicode="&#xd8;" 
d="M1623 1770h287l-1494 -2016h-287zM130 786c0 118 21.667 226 65 324s104.166 182.167 182.499 252.5s172.333 124.833 282 163.5s231.167 58 364.5 58c132.667 0 254 -19.333 364 -58s204.167 -93.167 282.5 -163.5s139.166 -154.5 182.499 -252.5s65 -206 65 -324
c0 -118.667 -21.667 -227.5 -65 -326.5s-104.166 -184.167 -182.499 -255.5s-172.5 -126.833 -282.5 -166.5s-231.333 -59.5 -364 -59.5c-133.333 0 -254.833 19.833 -364.5 59.5s-203.667 95.167 -282 166.5s-139.166 156.5 -182.499 255.5s-65 207.833 -65 326.5zM447 786
c0 -80.667 14.5 -153.334 43.5 -218.001s69.333 -119.834 121 -165.501s112.667 -80.834 183 -105.501s146.833 -37 229.5 -37s159.167 12.333 229.5 37s131.166 59.834 182.499 105.501s91.666 100.834 120.999 165.501s44 137.334 44 218.001s-14.667 153 -44 217
s-69.666 118.167 -120.999 162.5s-112.166 78.166 -182.499 101.499s-146.833 35 -229.5 35s-159.167 -11.667 -229.5 -35s-131.333 -57.166 -183 -101.499s-92 -98.5 -121 -162.5s-43.5 -136.333 -43.5 -217z" />
    <glyph glyph-name="Ugrave" unicode="&#xd9;" horiz-adv-x="1873" 
d="M163 1563h317.004v-861c0 -70.667 9.66699 -133.5 29 -188.5s48.166 -101.5 86.499 -139.5s85.833 -66.833 142.5 -86.5s122.667 -29.5 198 -29.5c74.667 0 140.5 9.83301 197.5 29.5s104.667 48.5 143 86.5s67.166 84.5 86.499 139.5s29 117.833 29 188.5v861h317v-899
c0 -102.667 -17.333 -196 -52 -280s-85 -156 -151 -216s-146.833 -106.333 -242.5 -139s-204.834 -49 -327.501 -49s-231.834 16.333 -327.501 49s-176.5 79 -242.5 139s-116.333 132 -151 216s-52 177.333 -52 280v899zM634.004 2030l674 -189l-62 -218l-682 159z" />
    <glyph glyph-name="Uacute" unicode="&#xda;" horiz-adv-x="1873" 
d="M163 1563h317.004v-861c0 -70.667 9.66699 -133.5 29 -188.5s48.166 -101.5 86.499 -139.5s85.833 -66.833 142.5 -86.5s122.667 -29.5 198 -29.5c74.667 0 140.5 9.83301 197.5 29.5s104.667 48.5 143 86.5s67.166 84.5 86.499 139.5s29 117.833 29 188.5v861h317v-899
c0 -102.667 -17.333 -196 -52 -280s-85 -156 -151 -216s-146.833 -106.333 -242.5 -139s-204.834 -49 -327.501 -49s-231.834 16.333 -327.501 49s-176.5 79 -242.5 139s-116.333 132 -151 216s-52 177.333 -52 280v899zM564.004 1841l674 189l70 -248l-682 -159z" />
    <glyph glyph-name="Ucircumflex" unicode="&#xdb;" horiz-adv-x="1873" 
d="M163 1563h317.004v-861c0 -70.667 9.66699 -133.5 29 -188.5s48.166 -101.5 86.499 -139.5s85.833 -66.833 142.5 -86.5s122.667 -29.5 198 -29.5c74.667 0 140.5 9.83301 197.5 29.5s104.667 48.5 143 86.5s67.166 84.5 86.499 139.5s29 117.833 29 188.5v861h317v-899
c0 -102.667 -17.333 -196 -52 -280s-85 -156 -151 -216s-146.833 -106.333 -242.5 -139s-204.834 -49 -327.501 -49s-231.834 16.333 -327.501 49s-176.5 79 -242.5 139s-116.333 132 -151 216s-52 177.333 -52 280v899zM479.004 1823l457 207l457 -207l-109 -214l-348 163
l-348 -163z" />
    <glyph glyph-name="Udieresis" unicode="&#xdc;" horiz-adv-x="1873" 
d="M163 1563h317.004v-861c0 -70.667 9.66699 -133.5 29 -188.5s48.166 -101.5 86.499 -139.5s85.833 -66.833 142.5 -86.5s122.667 -29.5 198 -29.5c74.667 0 140.5 9.83301 197.5 29.5s104.667 48.5 143 86.5s67.166 84.5 86.499 139.5s29 117.833 29 188.5v861h317v-899
c0 -102.667 -17.333 -196 -52 -280s-85 -156 -151 -216s-146.833 -106.333 -242.5 -139s-204.834 -49 -327.501 -49s-231.834 16.333 -327.501 49s-176.5 79 -242.5 139s-116.333 132 -151 216s-52 177.333 -52 280v899zM1281 1669c-32.667 0 -62 5 -88 15
s-48.167 23.5 -66.5 40.5s-32.333 36.5 -42 58.5s-14.5 45 -14.5 69s4.83301 46.833 14.5 68.5s23.667 40.667 42 57s40.5 29.166 66.5 38.499s55.333 14 88 14s62.167 -4.66699 88.5 -14s48.666 -22.166 66.999 -38.499s32.333 -35.333 42 -57s14.5 -44.5 14.5 -68.5
s-4.83301 -47 -14.5 -69s-23.667 -41.5 -42 -58.5s-40.666 -30.5 -66.999 -40.5s-55.833 -15 -88.5 -15zM590.004 1669c-32.667 0 -62 5 -88 15s-48.167 23.5 -66.5 40.5s-32.333 36.5 -42 58.5s-14.5 45 -14.5 69s4.83301 46.833 14.5 68.5s23.667 40.667 42 57
s40.5 29.166 66.5 38.499s55.333 14 88 14s62.167 -4.66699 88.5 -14s48.666 -22.166 66.999 -38.499s32.333 -35.333 42 -57s14.5 -44.5 14.5 -68.5s-4.83301 -47 -14.5 -69s-23.667 -41.5 -42 -58.5s-40.666 -30.5 -66.999 -40.5s-55.833 -15 -88.5 -15z" />
    <glyph glyph-name="Yacute" unicode="&#xdd;" horiz-adv-x="1710" 
d="M701 387l-683 1176h359l481 -889l475 889h359l-674 -1174v-389h-317v387zM483 1841l674 189l70 -248l-682 -159z" />
    <glyph glyph-name="Thorn" unicode="&#xde;" horiz-adv-x="1879" 
d="M222 1563l317 0.00292969v-200h478c120 0 224 -12.833 312 -38.5s161 -62.334 219 -110.001s101.167 -105.334 129.5 -173.001s42.5 -143.834 42.5 -228.501c0 -80 -14 -154.167 -42 -222.5s-70.833 -127.5 -128.5 -177.5s-130.5 -89 -218.5 -117s-192 -42 -312 -42
l-480 1v-255h-317v1563zM1025 529.003c60 0 112.5 6.66602 157.5 19.999s82.667 32.333 113 57s53 54.5 68 89.5s22.5 74.167 22.5 117.5c0 42 -7.5 79.833 -22.5 113.5s-37.667 62.334 -68 86.001s-68 42 -113 55s-97.5 19.5 -157.5 19.5h-486v-558h486z" />
    <glyph glyph-name="germandbls" unicode="&#xdf;" horiz-adv-x="1875" 
d="M251 958l-192.002 0.00390625v222h193c2.66699 74.667 17 141.334 43 200.001s62.667 108.334 110 149.001s105 71.5 173 92.5s145.333 31.5 232 31.5c96 0 179 -12.167 249 -36.5s127.833 -56.666 173.5 -96.999s79.334 -86.333 101.001 -138
s32.5 -104.834 32.5 -159.501c0 -65.333 -15 -124.333 -45 -177s-73.333 -105 -130 -157c78.667 0 153.834 -9.33301 225.501 -28s134.834 -46.834 189.501 -84.501s98.167 -84.834 130.5 -141.501s48.5 -123.334 48.5 -200.001c0 -68.667 -14 -131 -42 -187
s-69.333 -104 -124 -144s-122.5 -70.833 -203.5 -92.5s-174.5 -32.5 -280.5 -32.5c-36 0 -72.833 1.33301 -110.5 4s-74.834 7.16699 -111.501 13.5s-72.334 14.5 -107.001 24.5s-67 22.333 -97 37l95 235c58.667 -27.333 117.834 -45.833 177.501 -55.5
s114.5 -14.5 164.5 -14.5s95.167 4.16699 135.5 12.5s74.666 21.166 102.999 38.499s50.333 39.333 66 66s23.5 58.334 23.5 95.001c0 20 -3 40.667 -9 62s-17.333 41.666 -34 60.999s-40 37 -70 53s-68.833 29 -116.5 39s-105.667 16.167 -174 18.5
s-149.166 -0.833984 -242.499 -9.50098v212c78.667 61.333 136.167 118.333 172.5 171s54.5 103 54.5 151c0 25.333 -5 49.5 -15 72.5s-25 43.167 -45 60.5s-45.167 31.166 -75.5 41.499s-65.833 15.5 -106.5 15.5c-41.333 0 -78.333 -5.5 -111 -16.5s-60.5 -27 -83.5 -48
s-40.667 -47 -53 -78s-18.5 -66.167 -18.5 -105.5v-1134h-296v958z" />
    <glyph glyph-name="agrave" unicode="&#xe0;" horiz-adv-x="1701" 
d="M129 372c0 56.667 12.334 108.333 37.001 155s61.667 86.834 111 120.501s110.833 59.667 184.5 78s159.5 27.5 257.5 27.5c72.667 0 149.167 -5.33301 229.5 -16s163.166 -27 248.499 -49c-3.33301 37.333 -14.666 71.833 -33.999 103.5s-46.166 59 -80.499 82
s-75.666 40.833 -123.999 53.5s-103.166 19 -164.499 19c-33.333 0 -70 -2 -110 -6s-81.333 -10 -124 -18s-84.834 -18 -126.501 -30s-80.5 -26.333 -116.5 -43l-90 243c44.667 16 92.5 30.667 143.5 44s103.167 24.833 156.5 34.5s106.666 17.167 159.999 22.5s105 8 155 8
c220.667 0 384.667 -56.333 492 -169s161 -285.334 161 -518.001v-514h-296v111c-30.667 -18 -64.167 -35 -100.5 -51s-75.833 -30 -118.5 -42s-88.5 -21.5 -137.5 -28.5s-100.833 -10.5 -155.5 -10.5c-92 0 -172.833 10 -242.5 30s-127.834 47.667 -174.501 83
s-81.834 76.833 -105.501 124.5s-35.5 99.5 -35.5 155.5zM441.001 381.999c0 -19.333 5 -37.833 15 -55.5s26 -33.334 48 -47.001s50.167 -24.667 84.5 -33s75.833 -12.5 124.5 -12.5c52 0 102.333 4.66699 151 14s94 21.666 136 36.999s80 33 114 53s62.333 40.667 85 62
v52c-45.333 12.667 -90.166 23.334 -134.499 32.001s-86.666 15.5 -126.999 20.5s-78.333 8.5 -114 10.5s-66.834 3 -93.501 3c-55.333 0 -101.333 -3.66699 -138 -11s-66.334 -17.166 -89.001 -29.499s-38.667 -26.833 -48 -43.5s-14 -34 -14 -52zM414.001 1620l111 229
l686 -321l-99 -207z" />
    <glyph glyph-name="aacute" unicode="&#xe1;" horiz-adv-x="1701" 
d="M129 372c0 56.667 12.334 108.333 37.001 155s61.667 86.834 111 120.501s110.833 59.667 184.5 78s159.5 27.5 257.5 27.5c72.667 0 149.167 -5.33301 229.5 -16s163.166 -27 248.499 -49c-3.33301 37.333 -14.666 71.833 -33.999 103.5s-46.166 59 -80.499 82
s-75.666 40.833 -123.999 53.5s-103.166 19 -164.499 19c-33.333 0 -70 -2 -110 -6s-81.333 -10 -124 -18s-84.834 -18 -126.501 -30s-80.5 -26.333 -116.5 -43l-90 243c44.667 16 92.5 30.667 143.5 44s103.167 24.833 156.5 34.5s106.666 17.167 159.999 22.5s105 8 155 8
c220.667 0 384.667 -56.333 492 -169s161 -285.334 161 -518.001v-514h-296v111c-30.667 -18 -64.167 -35 -100.5 -51s-75.833 -30 -118.5 -42s-88.5 -21.5 -137.5 -28.5s-100.833 -10.5 -155.5 -10.5c-92 0 -172.833 10 -242.5 30s-127.834 47.667 -174.501 83
s-81.834 76.833 -105.501 124.5s-35.5 99.5 -35.5 155.5zM441.001 381.999c0 -19.333 5 -37.833 15 -55.5s26 -33.334 48 -47.001s50.167 -24.667 84.5 -33s75.833 -12.5 124.5 -12.5c52 0 102.333 4.66699 151 14s94 21.666 136 36.999s80 33 114 53s62.333 40.667 85 62
v52c-45.333 12.667 -90.166 23.334 -134.499 32.001s-86.666 15.5 -126.999 20.5s-78.333 8.5 -114 10.5s-66.834 3 -93.501 3c-55.333 0 -101.333 -3.66699 -138 -11s-66.334 -17.166 -89.001 -29.499s-38.667 -26.833 -48 -43.5s-14 -34 -14 -52zM414.001 1528l686 321
l111 -229l-698 -299z" />
    <glyph glyph-name="acircumflex" unicode="&#xe2;" horiz-adv-x="1701" 
d="M129 372c0 56.667 12.334 108.333 37.001 155s61.667 86.834 111 120.501s110.833 59.667 184.5 78s159.5 27.5 257.5 27.5c72.667 0 149.167 -5.33301 229.5 -16s163.166 -27 248.499 -49c-3.33301 37.333 -14.666 71.833 -33.999 103.5s-46.166 59 -80.499 82
s-75.666 40.833 -123.999 53.5s-103.166 19 -164.499 19c-33.333 0 -70 -2 -110 -6s-81.333 -10 -124 -18s-84.834 -18 -126.501 -30s-80.5 -26.333 -116.5 -43l-90 243c44.667 16 92.5 30.667 143.5 44s103.167 24.833 156.5 34.5s106.666 17.167 159.999 22.5s105 8 155 8
c220.667 0 384.667 -56.333 492 -169s161 -285.334 161 -518.001v-514h-296v111c-30.667 -18 -64.167 -35 -100.5 -51s-75.833 -30 -118.5 -42s-88.5 -21.5 -137.5 -28.5s-100.833 -10.5 -155.5 -10.5c-92 0 -172.833 10 -242.5 30s-127.834 47.667 -174.501 83
s-81.834 76.833 -105.501 124.5s-35.5 99.5 -35.5 155.5zM441.001 381.999c0 -19.333 5 -37.833 15 -55.5s26 -33.334 48 -47.001s50.167 -24.667 84.5 -33s75.833 -12.5 124.5 -12.5c52 0 102.333 4.66699 151 14s94 21.666 136 36.999s80 33 114 53s62.333 40.667 85 62
v52c-45.333 12.667 -90.166 23.334 -134.499 32.001s-86.666 15.5 -126.999 20.5s-78.333 8.5 -114 10.5s-66.834 3 -93.501 3c-55.333 0 -101.333 -3.66699 -138 -11s-66.334 -17.166 -89.001 -29.499s-38.667 -26.833 -48 -43.5s-14 -34 -14 -52zM341.001 1535l471 355
l471 -355l-140 -184l-331 250l-331 -250z" />
    <glyph glyph-name="atilde" unicode="&#xe3;" horiz-adv-x="1701" 
d="M129 372c0 56.667 12.334 108.333 37.001 155s61.667 86.834 111 120.501s110.833 59.667 184.5 78s159.5 27.5 257.5 27.5c72.667 0 149.167 -5.33301 229.5 -16s163.166 -27 248.499 -49c-3.33301 37.333 -14.666 71.833 -33.999 103.5s-46.166 59 -80.499 82
s-75.666 40.833 -123.999 53.5s-103.166 19 -164.499 19c-33.333 0 -70 -2 -110 -6s-81.333 -10 -124 -18s-84.834 -18 -126.501 -30s-80.5 -26.333 -116.5 -43l-90 243c44.667 16 92.5 30.667 143.5 44s103.167 24.833 156.5 34.5s106.666 17.167 159.999 22.5s105 8 155 8
c220.667 0 384.667 -56.333 492 -169s161 -285.334 161 -518.001v-514h-296v111c-30.667 -18 -64.167 -35 -100.5 -51s-75.833 -30 -118.5 -42s-88.5 -21.5 -137.5 -28.5s-100.833 -10.5 -155.5 -10.5c-92 0 -172.833 10 -242.5 30s-127.834 47.667 -174.501 83
s-81.834 76.833 -105.501 124.5s-35.5 99.5 -35.5 155.5zM441.001 381.999c0 -19.333 5 -37.833 15 -55.5s26 -33.334 48 -47.001s50.167 -24.667 84.5 -33s75.833 -12.5 124.5 -12.5c52 0 102.333 4.66699 151 14s94 21.666 136 36.999s80 33 114 53s62.333 40.667 85 62
v52c-45.333 12.667 -90.166 23.334 -134.499 32.001s-86.666 15.5 -126.999 20.5s-78.333 8.5 -114 10.5s-66.834 3 -93.501 3c-55.333 0 -101.333 -3.66699 -138 -11s-66.334 -17.166 -89.001 -29.499s-38.667 -26.833 -48 -43.5s-14 -34 -14 -52zM364.001 1666
c36 38 76.333 67 121 87s91 30 139 30c42 0 79 -6.5 111 -19.5s62.333 -27.333 91 -43s56.667 -30 84 -43s57.333 -19.5 90 -19.5c20 0 41.833 2.83301 65.5 8.5s47.167 13.5 70.5 23.5s45.833 22 67.5 36s40.5 29 56.5 45v-250c-36 -38 -76.333 -67 -121 -87
s-91 -30 -139 -30c-42 0 -79 6.5 -111 19.5s-62.333 27.333 -91 43s-56.667 30 -84 43s-57.333 19.5 -90 19.5c-20 0 -41.833 -2.83301 -65.5 -8.5s-47.167 -13.5 -70.5 -23.5s-45.833 -22 -67.5 -36s-40.5 -29 -56.5 -45v250z" />
    <glyph glyph-name="adieresis" unicode="&#xe4;" horiz-adv-x="1701" 
d="M129 372c0 56.667 12.334 108.333 37.001 155s61.667 86.834 111 120.501s110.833 59.667 184.5 78s159.5 27.5 257.5 27.5c72.667 0 149.167 -5.33301 229.5 -16s163.166 -27 248.499 -49c-3.33301 37.333 -14.666 71.833 -33.999 103.5s-46.166 59 -80.499 82
s-75.666 40.833 -123.999 53.5s-103.166 19 -164.499 19c-33.333 0 -70 -2 -110 -6s-81.333 -10 -124 -18s-84.834 -18 -126.501 -30s-80.5 -26.333 -116.5 -43l-90 243c44.667 16 92.5 30.667 143.5 44s103.167 24.833 156.5 34.5s106.666 17.167 159.999 22.5s105 8 155 8
c220.667 0 384.667 -56.333 492 -169s161 -285.334 161 -518.001v-514h-296v111c-30.667 -18 -64.167 -35 -100.5 -51s-75.833 -30 -118.5 -42s-88.5 -21.5 -137.5 -28.5s-100.833 -10.5 -155.5 -10.5c-92 0 -172.833 10 -242.5 30s-127.834 47.667 -174.501 83
s-81.834 76.833 -105.501 124.5s-35.5 99.5 -35.5 155.5zM441.001 381.999c0 -19.333 5 -37.833 15 -55.5s26 -33.334 48 -47.001s50.167 -24.667 84.5 -33s75.833 -12.5 124.5 -12.5c52 0 102.333 4.66699 151 14s94 21.666 136 36.999s80 33 114 53s62.333 40.667 85 62
v52c-45.333 12.667 -90.166 23.334 -134.499 32.001s-86.666 15.5 -126.999 20.5s-78.333 8.5 -114 10.5s-66.834 3 -93.501 3c-55.333 0 -101.333 -3.66699 -138 -11s-66.334 -17.166 -89.001 -29.499s-38.667 -26.833 -48 -43.5s-14 -34 -14 -52zM1111 1402
c-32.667 0 -62 5 -88 15s-48.167 23.5 -66.5 40.5s-32.333 36.5 -42 58.5s-14.5 45 -14.5 69s4.83301 46.833 14.5 68.5s23.667 40.667 42 57s40.5 29.166 66.5 38.499s55.333 14 88 14s62.167 -4.66699 88.5 -14s48.666 -22.166 66.999 -38.499s32.333 -35.333 42 -57
s14.5 -44.5 14.5 -68.5s-4.83301 -47 -14.5 -69s-23.667 -41.5 -42 -58.5s-40.666 -30.5 -66.999 -40.5s-55.833 -15 -88.5 -15zM512.001 1402c-32.667 0 -62 5 -88 15s-48.167 23.5 -66.5 40.5s-32.333 36.5 -42 58.5s-14.5 45 -14.5 69s4.83301 46.833 14.5 68.5
s23.667 40.667 42 57s40.5 29.166 66.5 38.499s55.333 14 88 14s62.167 -4.66699 88.5 -14s48.666 -22.166 66.999 -38.499s32.333 -35.333 42 -57s14.5 -44.5 14.5 -68.5s-4.83301 -47 -14.5 -69s-23.667 -41.5 -42 -58.5s-40.666 -30.5 -66.999 -40.5
s-55.833 -15 -88.5 -15z" />
    <glyph glyph-name="aring" unicode="&#xe5;" horiz-adv-x="1701" 
d="M129 372c0 56.667 12.334 108.333 37.001 155s61.667 86.834 111 120.501s110.833 59.667 184.5 78s159.5 27.5 257.5 27.5c72.667 0 149.167 -5.33301 229.5 -16s163.166 -27 248.499 -49c-3.33301 37.333 -14.666 71.833 -33.999 103.5s-46.166 59 -80.499 82
s-75.666 40.833 -123.999 53.5s-103.166 19 -164.499 19c-33.333 0 -70 -2 -110 -6s-81.333 -10 -124 -18s-84.834 -18 -126.501 -30s-80.5 -26.333 -116.5 -43l-90 243c44.667 16 92.5 30.667 143.5 44s103.167 24.833 156.5 34.5s106.666 17.167 159.999 22.5s105 8 155 8
c220.667 0 384.667 -56.333 492 -169s161 -285.334 161 -518.001v-514h-296v111c-30.667 -18 -64.167 -35 -100.5 -51s-75.833 -30 -118.5 -42s-88.5 -21.5 -137.5 -28.5s-100.833 -10.5 -155.5 -10.5c-92 0 -172.833 10 -242.5 30s-127.834 47.667 -174.501 83
s-81.834 76.833 -105.501 124.5s-35.5 99.5 -35.5 155.5zM441.001 381.999c0 -19.333 5 -37.833 15 -55.5s26 -33.334 48 -47.001s50.167 -24.667 84.5 -33s75.833 -12.5 124.5 -12.5c52 0 102.333 4.66699 151 14s94 21.666 136 36.999s80 33 114 53s62.333 40.667 85 62
v52c-45.333 12.667 -90.166 23.334 -134.499 32.001s-86.666 15.5 -126.999 20.5s-78.333 8.5 -114 10.5s-66.834 3 -93.501 3c-55.333 0 -101.333 -3.66699 -138 -11s-66.334 -17.166 -89.001 -29.499s-38.667 -26.833 -48 -43.5s-14 -34 -14 -52zM812.001 1301
c-53.333 0 -100.833 6.66699 -142.5 20s-77.167 31.833 -106.5 55.5s-51.666 51.334 -66.999 83.001s-23 66.167 -23 103.5c0 36.667 7.66699 71 23 103s37.666 59.833 66.999 83.5s64.833 42.167 106.5 55.5s89.167 20 142.5 20c52.667 0 100 -6.66699 142 -20
s77.667 -31.833 107 -55.5s51.666 -51.5 66.999 -83.5s23 -66.333 23 -103c0 -37.333 -7.66699 -71.833 -23 -103.5s-37.666 -59.334 -66.999 -83.001s-65 -42.167 -107 -55.5s-89.333 -20 -142 -20zM812.001 1446c46 0 81.5 11 106.5 33s37.5 50 37.5 84
c0 34.667 -12.5 62.667 -37.5 84s-60.5 32 -106.5 32s-81.5 -10.667 -106.5 -32s-37.5 -49.333 -37.5 -84c0 -34 12.5 -62 37.5 -84s60.5 -33 106.5 -33z" />
    <glyph glyph-name="ae" unicode="&#xe6;" horiz-adv-x="2726" 
d="M129 371c0 56.667 11.3301 108.501 33.9971 155.501s57.334 87.333 104.001 121s105.834 59.667 177.501 78s156.5 27.5 254.5 27.5c72.667 0 149.167 -5.33301 229.5 -16s163.166 -27 248.499 -49c-3.33301 37.333 -15.166 71.833 -35.499 103.5s-48.333 59 -84 82
s-78.167 40.833 -127.5 53.5s-104.666 19 -165.999 19c-33.333 0 -68.5 -2 -105.5 -6s-74.833 -10 -113.5 -18s-77.334 -18 -116.001 -30s-76 -26.333 -112 -43l-90 243c87.333 31.333 181 57.333 281 78s201.333 31 304 31c118 0 219.667 -15.5 305 -46.5
s155.666 -78.833 210.999 -143.5c62.667 58 138.667 104.167 228 138.5s192 51.5 308 51.5c112.667 0 214 -16.833 304 -50.5s166.5 -79.834 229.5 -138.501s111.333 -127.667 145 -207s50.5 -164.333 50.5 -255c0 -11.333 -0.166992 -23.5 -0.5 -36.5
s-1.16602 -24.833 -2.5 -35.5h-1115v-3c12.667 -36 33.834 -68.667 63.501 -98s66 -54.333 109 -75s91.667 -36.5 146 -47.5s112.833 -16.5 175.5 -16.5c72.667 0 142.167 7 208.501 21c66.333 14 131.166 32.333 194.499 55l100 -226
c-77.333 -37.333 -160.833 -65 -250.5 -83s-181.167 -27 -274.5 -27c-142.667 0 -269 19.5 -379 58.5s-199 93.167 -267 162.5c-27.333 -26 -60.833 -52 -100.5 -78s-85.667 -49.5 -138 -70.5s-110.833 -38.167 -175.5 -51.5s-136 -20 -214 -20c-94 0 -175.333 10 -244 30
s-125.167 47.5 -169.5 82.5s-77.166 76.5 -98.499 124.5s-32 99.667 -32 155zM2279 709.001c-10.667 32.667 -27.168 63.167 -49.501 91.5s-50.166 53 -83.5 74c-33.333 21 -72 37.5 -116 49.5s-93 18 -147 18c-55.333 0 -105.833 -6.33301 -151.5 -19
s-85.667 -29.667 -120 -51s-63.166 -46 -86.499 -74s-40.333 -57.667 -51 -89h805zM442.996 382.001c0 -19.333 4 -37.832 12 -55.499s21.667 -33.334 41 -47.001s45.166 -24.667 77.499 -33s72.833 -12.5 121.5 -12.5c52 0 102.333 4.66699 151 14s94 21.666 136 36.999
s80 33 114 53s62.333 40.667 85 62v52c-45.333 12.667 -90.166 23.334 -134.499 32.001s-86.666 15.5 -126.999 20.5s-78.333 8.5 -114 10.5s-66.834 3 -93.501 3c-52.667 0 -96.334 -3.33301 -131.001 -10s-62.167 -16 -82.5 -28s-34.666 -26.333 -42.999 -43
s-12.5 -35 -12.5 -55z" />
    <glyph glyph-name="ccedilla" unicode="&#xe7;" horiz-adv-x="1526" 
d="M114 587c0 86.667 15.8359 167.498 47.5029 242.498s78 140 139 195s135.667 98.167 224 129.5s189.166 47 302.499 47c49.333 0 99 -3 149 -9s98.167 -14.5 144.5 -25.5s89.833 -24 130.5 -39s76 -31.5 106 -49.5l-137 -223c-64.667 30 -125.834 52 -183.501 66
s-116.167 21 -175.5 21c-68 0 -129 -8.83301 -183 -26.5s-99.833 -42.334 -137.5 -74.001s-66.334 -69 -86.001 -112s-29.5 -89.833 -29.5 -140.5s10.5 -97.5 31.5 -140.5s50.667 -80 89 -111s84.666 -55.333 138.999 -73s114.833 -26.5 181.5 -26.5
c73.333 0 142.5 10.333 207.5 31s125.5 48.334 181.5 83.001l137 -223c-35.333 -21.333 -73.666 -41.166 -114.999 -59.499s-85.5 -34.166 -132.5 -47.499s-96.333 -23.833 -148 -31.5s-105.167 -11.5 -160.5 -11.5c-112.667 0 -213.667 15.333 -303 46
s-165 73.167 -227 127.5s-109.5 118.5 -142.5 192.5s-49.5 154.667 -49.5 242zM850.003 29.998l-0.000976562 -103.002c113.333 -13.333 195.166 -40.166 245.499 -80.499s75.5 -92.5 75.5 -156.5c0 -36.667 -9.16699 -68.667 -27.5 -96s-43.333 -50.166 -75 -68.499
s-69 -32.166 -112 -41.499s-89.5 -14 -139.5 -14c-52.667 0 -106.667 5.16699 -162 15.5s-105.666 25.166 -150.999 44.499l67 161c44 -15.333 84.833 -26 122.5 -32s73.167 -9 106.5 -9c26.667 0 48.834 1.5 66.501 4.5s31.834 7 42.501 12s18.167 10.667 22.5 17
s6.5 12.833 6.5 19.5c0 10 -4.33301 19.167 -13 27.5s-23.334 15.5 -44.001 21.5s-48.667 10.667 -84 14s-79.333 5 -132 5v259h185z" />
    <glyph glyph-name="egrave" unicode="&#xe8;" horiz-adv-x="1711" 
d="M129 594c0 80 16.334 156.499 49.001 229.499s79.667 137.5 141 193.5s136.5 100.667 225.5 134s190.167 50 303.5 50c112.667 0 214.167 -16.833 304.5 -50.5s167 -79.834 230 -138.501s111.333 -127.667 145 -207s50.5 -164.333 50.5 -255
c0 -11.333 -0.166992 -23.5 -0.5 -36.5s-1.16602 -24.833 -2.49902 -35.5h-1116c12.667 -35.333 33.167 -67.666 61.5 -96.999s63.833 -54.666 106.5 -75.999s92 -37.833 148 -49.5s118 -17.5 186 -17.5s135.667 7.16699 203 21.5s131.666 32.5 192.999 54.5l100 -226
c-38.667 -18 -77.834 -33.833 -117.501 -47.5s-81 -25 -124 -34s-88 -15.833 -135 -20.5s-96.5 -7 -148.5 -7c-132.667 0 -249 16 -349 48s-183.667 75.667 -251 131s-118 120.333 -152 195s-51 155 -51 241zM1264 708.999c-10.667 32.667 -27.168 63.167 -49.501 91.5
s-50.166 53 -83.499 74s-72 37.5 -116 49.5s-92.333 18 -145 18c-56 0 -107 -6.33301 -153 -19s-86.333 -29.667 -121 -51s-63.5 -46 -86.5 -74s-39.833 -57.667 -50.5 -89h805zM455 1620l111 229l686 -321l-99 -207z" />
    <glyph glyph-name="eacute" unicode="&#xe9;" horiz-adv-x="1711" 
d="M129 594c0 80 16.334 156.499 49.001 229.499s79.667 137.5 141 193.5s136.5 100.667 225.5 134s190.167 50 303.5 50c112.667 0 214.167 -16.833 304.5 -50.5s167 -79.834 230 -138.501s111.333 -127.667 145 -207s50.5 -164.333 50.5 -255
c0 -11.333 -0.166992 -23.5 -0.5 -36.5s-1.16602 -24.833 -2.49902 -35.5h-1116c12.667 -35.333 33.167 -67.666 61.5 -96.999s63.833 -54.666 106.5 -75.999s92 -37.833 148 -49.5s118 -17.5 186 -17.5s135.667 7.16699 203 21.5s131.666 32.5 192.999 54.5l100 -226
c-38.667 -18 -77.834 -33.833 -117.501 -47.5s-81 -25 -124 -34s-88 -15.833 -135 -20.5s-96.5 -7 -148.5 -7c-132.667 0 -249 16 -349 48s-183.667 75.667 -251 131s-118 120.333 -152 195s-51 155 -51 241zM1264 708.999c-10.667 32.667 -27.168 63.167 -49.501 91.5
s-50.166 53 -83.499 74s-72 37.5 -116 49.5s-92.333 18 -145 18c-56 0 -107 -6.33301 -153 -19s-86.333 -29.667 -121 -51s-63.5 -46 -86.5 -74s-39.833 -57.667 -50.5 -89h805zM455 1528l686 321l111 -229l-698 -299z" />
    <glyph glyph-name="ecircumflex" unicode="&#xea;" horiz-adv-x="1711" 
d="M129 594c0 80 16.334 156.499 49.001 229.499s79.667 137.5 141 193.5s136.5 100.667 225.5 134s190.167 50 303.5 50c112.667 0 214.167 -16.833 304.5 -50.5s167 -79.834 230 -138.501s111.333 -127.667 145 -207s50.5 -164.333 50.5 -255
c0 -11.333 -0.166992 -23.5 -0.5 -36.5s-1.16602 -24.833 -2.49902 -35.5h-1116c12.667 -35.333 33.167 -67.666 61.5 -96.999s63.833 -54.666 106.5 -75.999s92 -37.833 148 -49.5s118 -17.5 186 -17.5s135.667 7.16699 203 21.5s131.666 32.5 192.999 54.5l100 -226
c-38.667 -18 -77.834 -33.833 -117.501 -47.5s-81 -25 -124 -34s-88 -15.833 -135 -20.5s-96.5 -7 -148.5 -7c-132.667 0 -249 16 -349 48s-183.667 75.667 -251 131s-118 120.333 -152 195s-51 155 -51 241zM1264 708.999c-10.667 32.667 -27.168 63.167 -49.501 91.5
s-50.166 53 -83.499 74s-72 37.5 -116 49.5s-92.333 18 -145 18c-56 0 -107 -6.33301 -153 -19s-86.333 -29.667 -121 -51s-63.5 -46 -86.5 -74s-39.833 -57.667 -50.5 -89h805zM382 1535l471 355l471 -355l-140 -184l-331 250l-331 -250z" />
    <glyph glyph-name="edieresis" unicode="&#xeb;" horiz-adv-x="1711" 
d="M129 594c0 80 16.334 156.499 49.001 229.499s79.667 137.5 141 193.5s136.5 100.667 225.5 134s190.167 50 303.5 50c112.667 0 214.167 -16.833 304.5 -50.5s167 -79.834 230 -138.501s111.333 -127.667 145 -207s50.5 -164.333 50.5 -255
c0 -11.333 -0.166992 -23.5 -0.5 -36.5s-1.16602 -24.833 -2.49902 -35.5h-1116c12.667 -35.333 33.167 -67.666 61.5 -96.999s63.833 -54.666 106.5 -75.999s92 -37.833 148 -49.5s118 -17.5 186 -17.5s135.667 7.16699 203 21.5s131.666 32.5 192.999 54.5l100 -226
c-38.667 -18 -77.834 -33.833 -117.501 -47.5s-81 -25 -124 -34s-88 -15.833 -135 -20.5s-96.5 -7 -148.5 -7c-132.667 0 -249 16 -349 48s-183.667 75.667 -251 131s-118 120.333 -152 195s-51 155 -51 241zM1264 708.999c-10.667 32.667 -27.168 63.167 -49.501 91.5
s-50.166 53 -83.499 74s-72 37.5 -116 49.5s-92.333 18 -145 18c-56 0 -107 -6.33301 -153 -19s-86.333 -29.667 -121 -51s-63.5 -46 -86.5 -74s-39.833 -57.667 -50.5 -89h805zM1152 1402c-32.667 0 -62 5 -88 15s-48.167 23.5 -66.5 40.5s-32.333 36.5 -42 58.5
s-14.5 45 -14.5 69s4.83301 46.833 14.5 68.5s23.667 40.667 42 57s40.5 29.166 66.5 38.499s55.333 14 88 14s62.167 -4.66699 88.5 -14s48.666 -22.166 66.999 -38.499s32.333 -35.333 42 -57s14.5 -44.5 14.5 -68.5s-4.83301 -47 -14.5 -69s-23.667 -41.5 -42 -58.5
s-40.666 -30.5 -66.999 -40.5s-55.833 -15 -88.5 -15zM553 1402c-32.667 0 -62 5 -88 15s-48.167 23.5 -66.5 40.5s-32.333 36.5 -42 58.5s-14.5 45 -14.5 69s4.83301 46.833 14.5 68.5s23.667 40.667 42 57s40.5 29.166 66.5 38.499s55.333 14 88 14
s62.167 -4.66699 88.5 -14s48.666 -22.166 66.999 -38.499s32.333 -35.333 42 -57s14.5 -44.5 14.5 -68.5s-4.83301 -47 -14.5 -69s-23.667 -41.5 -42 -58.5s-40.666 -30.5 -66.999 -40.5s-55.833 -15 -88.5 -15z" />
    <glyph glyph-name="igrave" unicode="&#xec;" horiz-adv-x="683" 
d="M61 1551l111 229l472 -233l-99 -207zM193 1180h296v-1180h-296v1180z" />
    <glyph glyph-name="iacute" unicode="&#xed;" horiz-adv-x="683" 
d="M52 1547l472 233l111 -229l-484 -211zM193 1180h296v-1180h-296v1180z" />
    <glyph glyph-name="icircumflex" unicode="&#xee;" horiz-adv-x="683" 
d="M193 1180h296v-1180h-296v1180zM-128 1535l471 355l471 -355l-140 -184l-331 250l-331 -250z" />
    <glyph glyph-name="idieresis" unicode="&#xef;" horiz-adv-x="683" 
d="M193 1180h296v-1180h-296v1180zM642 1402c-32.667 0 -62 5 -88 15s-48.167 23.5 -66.5 40.5s-32.333 36.5 -42 58.5s-14.5 45 -14.5 69s4.83301 46.833 14.5 68.5s23.667 40.667 42 57s40.5 29.166 66.5 38.499s55.333 14 88 14s62.167 -4.66699 88.5 -14
s48.666 -22.166 66.999 -38.499s32.333 -35.333 42 -57s14.5 -44.5 14.5 -68.5s-4.83301 -47 -14.5 -69s-23.667 -41.5 -42 -58.5s-40.666 -30.5 -66.999 -40.5s-55.833 -15 -88.5 -15zM43 1402c-32.667 0 -62 5 -88 15s-48.167 23.5 -66.5 40.5s-32.333 36.5 -42 58.5
s-14.5 45 -14.5 69s4.83301 46.833 14.5 68.5s23.667 40.667 42 57s40.5 29.166 66.5 38.499s55.333 14 88 14s62.167 -4.66699 88.5 -14s48.666 -22.166 66.999 -38.499s32.333 -35.333 42 -57s14.5 -44.5 14.5 -68.5s-4.83301 -47 -14.5 -69s-23.667 -41.5 -42 -58.5
s-40.666 -30.5 -66.999 -40.5s-55.833 -15 -88.5 -15z" />
    <glyph glyph-name="eth" unicode="&#xf0;" horiz-adv-x="1706" 
d="M101 542c0 74 14.666 141.502 43.999 202.502s71 113.167 125 156.5s119.5 76.833 196.5 100.5s163.167 35.5 258.5 35.5c40 0 83.333 -2.5 130 -7.5s94.834 -13.5 144.501 -25.5s100 -28.333 151 -49s101.5 -46.334 151.5 -77.001c-44.667 158 -145 287 -301 387
l-135 -166l-173 140l104 128c-36.667 14.667 -75 28.167 -115 40.5s-82 24.166 -126 35.499l125 231c52 -14 101.333 -29.5 148 -46.5s92 -35.167 136 -54.5l140 172l171 -141l-114 -140c146.667 -97.333 257.167 -212 331.5 -344s111.5 -275.667 111.5 -431
c0 -98 -15.333 -189.833 -46 -275.5s-77.5 -160.5 -140.5 -224.5s-142.833 -114.5 -239.5 -151.5s-211.334 -55.5 -344.001 -55.5c-118 0 -222.5 14.667 -313.5 44s-167.667 69.333 -230 120s-109.666 110 -141.999 178s-48.5 140.667 -48.5 218zM409.999 535.002
c0 -41.333 9.83496 -80.168 29.502 -116.501s47.667 -68 84 -95s80.666 -48.333 132.999 -64s111.5 -23.5 177.5 -23.5c67.333 0 127.833 8.33301 181.5 25s100 40.5 139 71.5s70.333 68.333 94 112s39.167 92.5 46.5 146.5c-22.667 24.667 -50.834 48.5 -84.501 71.5
s-72.167 43.333 -115.5 61s-91 31.834 -143 42.501s-108 16 -168 16c-63.333 0 -118.333 -6.16699 -165 -18.5s-85.5 -29.5 -116.5 -51.5s-54.167 -48 -69.5 -78s-23 -63 -23 -99z" />
    <glyph glyph-name="ntilde" unicode="&#xf1;" horiz-adv-x="1723" 
d="M185 1180l295.997 -0.00195312v-100c78.667 44.667 153.834 76 225.501 94s141.834 27 210.501 27c90 0 173.333 -13.167 250 -39.5s143 -65.5 199 -117.5s99.833 -116.833 131.5 -194.5s47.5 -167.5 47.5 -269.5v-580h-295v532c0 64.667 -9.16699 122.5 -27.5 173.5
s-44.666 94 -78.999 129s-76 61.667 -125 80s-103.833 27.5 -164.5 27.5c-32 0 -64.833 -3.33301 -98.5 -10s-66.667 -16.167 -99 -28.5s-63.5 -27.666 -93.5 -45.999s-57.333 -39.166 -82 -62.499v-795h-296v1180zM416.997 1666c36 38 76.333 67 121 87s91 30 139 30
c42 0 79 -6.5 111 -19.5s62.333 -27.333 91 -43s56.667 -30 84 -43s57.333 -19.5 90 -19.5c20 0 41.833 2.83301 65.5 8.5s47.167 13.5 70.5 23.5s45.833 22 67.5 36s40.5 29 56.5 45v-250c-36 -38 -76.333 -67 -121 -87s-91 -30 -139 -30c-42 0 -79 6.5 -111 19.5
s-62.333 27.333 -91 43s-56.667 30 -84 43s-57.333 19.5 -90 19.5c-20 0 -41.833 -2.83301 -65.5 -8.5s-47.167 -13.5 -70.5 -23.5s-45.833 -22 -67.5 -36s-40.5 -29 -56.5 -45v250z" />
    <glyph glyph-name="ograve" unicode="&#xf2;" horiz-adv-x="1696" 
d="M114 590c0 84.667 17.167 164 51.5 238s83.333 138.667 147 194s140.667 99 231 131s191.833 48 304.5 48s214.167 -16 304.5 -48s167.333 -75.667 231 -131s112.667 -120 147 -194s51.5 -153.333 51.5 -238s-17.167 -164 -51.5 -238s-83.333 -138.667 -147 -194
s-140.667 -99 -231 -131s-191.833 -48 -304.5 -48s-214.167 16 -304.5 48s-167.333 75.667 -231 131s-112.667 120 -147 194s-51.5 153.333 -51.5 238zM425 590c0 -47.333 9.5 -92.166 28.5 -134.499s46.667 -79.666 83 -111.999s80.666 -58 132.999 -77
s111.833 -28.5 178.5 -28.5s126.167 9.5 178.5 28.5s96.666 44.667 132.999 77s64 69.666 83 111.999s28.5 87.166 28.5 134.499s-9.5 92.333 -28.5 135s-46.667 80.167 -83 112.5s-80.666 58 -132.999 77s-111.833 28.5 -178.5 28.5s-126.167 -9.5 -178.5 -28.5
s-96.666 -44.667 -132.999 -77s-64 -69.833 -83 -112.5s-28.5 -87.667 -28.5 -135zM450 1620l111 229l686 -321l-99 -207z" />
    <glyph glyph-name="oacute" unicode="&#xf3;" horiz-adv-x="1696" 
d="M114 590c0 84.667 17.167 164 51.5 238s83.333 138.667 147 194s140.667 99 231 131s191.833 48 304.5 48s214.167 -16 304.5 -48s167.333 -75.667 231 -131s112.667 -120 147 -194s51.5 -153.333 51.5 -238s-17.167 -164 -51.5 -238s-83.333 -138.667 -147 -194
s-140.667 -99 -231 -131s-191.833 -48 -304.5 -48s-214.167 16 -304.5 48s-167.333 75.667 -231 131s-112.667 120 -147 194s-51.5 153.333 -51.5 238zM425 590c0 -47.333 9.5 -92.166 28.5 -134.499s46.667 -79.666 83 -111.999s80.666 -58 132.999 -77
s111.833 -28.5 178.5 -28.5s126.167 9.5 178.5 28.5s96.666 44.667 132.999 77s64 69.666 83 111.999s28.5 87.166 28.5 134.499s-9.5 92.333 -28.5 135s-46.667 80.167 -83 112.5s-80.666 58 -132.999 77s-111.833 28.5 -178.5 28.5s-126.167 -9.5 -178.5 -28.5
s-96.666 -44.667 -132.999 -77s-64 -69.833 -83 -112.5s-28.5 -87.667 -28.5 -135zM450 1528l686 321l111 -229l-698 -299z" />
    <glyph glyph-name="ocircumflex" unicode="&#xf4;" horiz-adv-x="1696" 
d="M114 590c0 84.667 17.167 164 51.5 238s83.333 138.667 147 194s140.667 99 231 131s191.833 48 304.5 48s214.167 -16 304.5 -48s167.333 -75.667 231 -131s112.667 -120 147 -194s51.5 -153.333 51.5 -238s-17.167 -164 -51.5 -238s-83.333 -138.667 -147 -194
s-140.667 -99 -231 -131s-191.833 -48 -304.5 -48s-214.167 16 -304.5 48s-167.333 75.667 -231 131s-112.667 120 -147 194s-51.5 153.333 -51.5 238zM425 590c0 -47.333 9.5 -92.166 28.5 -134.499s46.667 -79.666 83 -111.999s80.666 -58 132.999 -77
s111.833 -28.5 178.5 -28.5s126.167 9.5 178.5 28.5s96.666 44.667 132.999 77s64 69.666 83 111.999s28.5 87.166 28.5 134.499s-9.5 92.333 -28.5 135s-46.667 80.167 -83 112.5s-80.666 58 -132.999 77s-111.833 28.5 -178.5 28.5s-126.167 -9.5 -178.5 -28.5
s-96.666 -44.667 -132.999 -77s-64 -69.833 -83 -112.5s-28.5 -87.667 -28.5 -135zM377 1535l471 355l471 -355l-140 -184l-331 250l-331 -250z" />
    <glyph glyph-name="otilde" unicode="&#xf5;" horiz-adv-x="1696" 
d="M114 590c0 84.667 17.167 164 51.5 238s83.333 138.667 147 194s140.667 99 231 131s191.833 48 304.5 48s214.167 -16 304.5 -48s167.333 -75.667 231 -131s112.667 -120 147 -194s51.5 -153.333 51.5 -238s-17.167 -164 -51.5 -238s-83.333 -138.667 -147 -194
s-140.667 -99 -231 -131s-191.833 -48 -304.5 -48s-214.167 16 -304.5 48s-167.333 75.667 -231 131s-112.667 120 -147 194s-51.5 153.333 -51.5 238zM425 590c0 -47.333 9.5 -92.166 28.5 -134.499s46.667 -79.666 83 -111.999s80.666 -58 132.999 -77
s111.833 -28.5 178.5 -28.5s126.167 9.5 178.5 28.5s96.666 44.667 132.999 77s64 69.666 83 111.999s28.5 87.166 28.5 134.499s-9.5 92.333 -28.5 135s-46.667 80.167 -83 112.5s-80.666 58 -132.999 77s-111.833 28.5 -178.5 28.5s-126.167 -9.5 -178.5 -28.5
s-96.666 -44.667 -132.999 -77s-64 -69.833 -83 -112.5s-28.5 -87.667 -28.5 -135zM400 1666c36 38 76.333 67 121 87s91 30 139 30c42 0 79 -6.5 111 -19.5s62.333 -27.333 91 -43s56.667 -30 84 -43s57.333 -19.5 90 -19.5c20 0 41.833 2.83301 65.5 8.5
s47.167 13.5 70.5 23.5s45.833 22 67.5 36s40.5 29 56.5 45v-250c-36 -38 -76.333 -67 -121 -87s-91 -30 -139 -30c-42 0 -79 6.5 -111 19.5s-62.333 27.333 -91 43s-56.667 30 -84 43s-57.333 19.5 -90 19.5c-20 0 -41.833 -2.83301 -65.5 -8.5s-47.167 -13.5 -70.5 -23.5
s-45.833 -22 -67.5 -36s-40.5 -29 -56.5 -45v250z" />
    <glyph glyph-name="odieresis" unicode="&#xf6;" horiz-adv-x="1696" 
d="M114 590c0 84.667 17.167 164 51.5 238s83.333 138.667 147 194s140.667 99 231 131s191.833 48 304.5 48s214.167 -16 304.5 -48s167.333 -75.667 231 -131s112.667 -120 147 -194s51.5 -153.333 51.5 -238s-17.167 -164 -51.5 -238s-83.333 -138.667 -147 -194
s-140.667 -99 -231 -131s-191.833 -48 -304.5 -48s-214.167 16 -304.5 48s-167.333 75.667 -231 131s-112.667 120 -147 194s-51.5 153.333 -51.5 238zM425 590c0 -47.333 9.5 -92.166 28.5 -134.499s46.667 -79.666 83 -111.999s80.666 -58 132.999 -77
s111.833 -28.5 178.5 -28.5s126.167 9.5 178.5 28.5s96.666 44.667 132.999 77s64 69.666 83 111.999s28.5 87.166 28.5 134.499s-9.5 92.333 -28.5 135s-46.667 80.167 -83 112.5s-80.666 58 -132.999 77s-111.833 28.5 -178.5 28.5s-126.167 -9.5 -178.5 -28.5
s-96.666 -44.667 -132.999 -77s-64 -69.833 -83 -112.5s-28.5 -87.667 -28.5 -135zM1147 1402c-32.667 0 -62 5 -88 15s-48.167 23.5 -66.5 40.5s-32.333 36.5 -42 58.5s-14.5 45 -14.5 69s4.83301 46.833 14.5 68.5s23.667 40.667 42 57s40.5 29.166 66.5 38.499
s55.333 14 88 14s62.167 -4.66699 88.5 -14s48.666 -22.166 66.999 -38.499s32.333 -35.333 42 -57s14.5 -44.5 14.5 -68.5s-4.83301 -47 -14.5 -69s-23.667 -41.5 -42 -58.5s-40.666 -30.5 -66.999 -40.5s-55.833 -15 -88.5 -15zM548 1402c-32.667 0 -62 5 -88 15
s-48.167 23.5 -66.5 40.5s-32.333 36.5 -42 58.5s-14.5 45 -14.5 69s4.83301 46.833 14.5 68.5s23.667 40.667 42 57s40.5 29.166 66.5 38.499s55.333 14 88 14s62.167 -4.66699 88.5 -14s48.666 -22.166 66.999 -38.499s32.333 -35.333 42 -57s14.5 -44.5 14.5 -68.5
s-4.83301 -47 -14.5 -69s-23.667 -41.5 -42 -58.5s-40.666 -30.5 -66.999 -40.5s-55.833 -15 -88.5 -15z" />
    <glyph glyph-name="divide" unicode="&#xf7;" horiz-adv-x="1191" 
d="M372 350c0 26.667 5.5 51.834 16.5 75.501s26.833 44.334 47.5 62.001s45.667 31.5 75 41.5s62.333 15 99 15s69.667 -5 99 -15s54.166 -23.833 74.499 -41.5s36 -38.334 47 -62.001s16.5 -48.834 16.5 -75.501s-5.5 -51.834 -16.5 -75.501s-26.667 -44.167 -47 -61.5
s-45.166 -31.166 -74.499 -41.499s-62.333 -15.5 -99 -15.5s-69.667 5.16699 -99 15.5s-54.333 24.166 -75 41.499s-36.5 37.833 -47.5 61.5s-16.5 48.834 -16.5 75.501zM372 1237c0 26.667 5.5 51.834 16.5 75.501s26.833 44.334 47.5 62.001s45.667 31.5 75 41.5
s62.333 15 99 15s69.667 -5 99 -15s54.166 -23.833 74.499 -41.5s36 -38.334 47 -62.001s16.5 -48.834 16.5 -75.501s-5.5 -51.834 -16.5 -75.501s-26.667 -44.167 -47 -61.5s-45.166 -31.166 -74.499 -41.499s-62.333 -15.5 -99 -15.5s-69.667 5.16699 -99 15.5
s-54.333 24.166 -75 41.499s-36.5 37.833 -47.5 61.5s-16.5 48.834 -16.5 75.501zM137 906h917v-222h-917v222z" />
    <glyph glyph-name="oslash" unicode="&#xf8;" horiz-adv-x="1696" 
d="M1323 1426h287l-1238 -1672h-287zM114 590c0 84.667 17.167 164 51.5 238s83.333 138.667 147 194s140.667 99 231 131s191.833 48 304.5 48s214.167 -16 304.5 -48s167.333 -75.667 231 -131s112.667 -120 147 -194s51.5 -153.333 51.5 -238s-17.167 -164 -51.5 -238
s-83.333 -138.667 -147 -194s-140.667 -99 -231 -131s-191.833 -48 -304.5 -48s-214.167 16 -304.5 48s-167.333 75.667 -231 131s-112.667 120 -147 194s-51.5 153.333 -51.5 238zM425 590c0 -47.333 9.5 -92.166 28.5 -134.499s46.667 -79.666 83 -111.999
s80.666 -58 132.999 -77s111.833 -28.5 178.5 -28.5s126.167 9.5 178.5 28.5s96.666 44.667 132.999 77s64 69.666 83 111.999s28.5 87.166 28.5 134.499s-9.5 92.333 -28.5 135s-46.667 80.167 -83 112.5s-80.666 58 -132.999 77s-111.833 28.5 -178.5 28.5
s-126.167 -9.5 -178.5 -28.5s-96.666 -44.667 -132.999 -77s-64 -69.833 -83 -112.5s-28.5 -87.667 -28.5 -135z" />
    <glyph glyph-name="ugrave" unicode="&#xf9;" horiz-adv-x="1708" 
d="M185 1181h295v-576c0 -54.667 6 -104.5 18 -149.5s32.5 -83.5 61.5 -115.5s67.667 -56.833 116 -74.5s108.5 -26.5 180.5 -26.5c34 0 68.5 3.66699 103.5 11s68.5 17.5 100.5 30.5s61.833 28.5 89.5 46.5s51.5 37.667 71.5 59v795h296v-1181h-296v101
c-72.667 -43.333 -145.667 -74.333 -219 -93s-143 -28 -209 -28c-108 0 -200.5 13 -277.5 39s-140 63.833 -189 113.5s-84.833 110.667 -107.5 183s-34 154.833 -34 247.5v618zM453 1620l111 229l686 -321l-99 -207z" />
    <glyph glyph-name="uacute" unicode="&#xfa;" horiz-adv-x="1708" 
d="M185 1181h295v-576c0 -54.667 6 -104.5 18 -149.5s32.5 -83.5 61.5 -115.5s67.667 -56.833 116 -74.5s108.5 -26.5 180.5 -26.5c34 0 68.5 3.66699 103.5 11s68.5 17.5 100.5 30.5s61.833 28.5 89.5 46.5s51.5 37.667 71.5 59v795h296v-1181h-296v101
c-72.667 -43.333 -145.667 -74.333 -219 -93s-143 -28 -209 -28c-108 0 -200.5 13 -277.5 39s-140 63.833 -189 113.5s-84.833 110.667 -107.5 183s-34 154.833 -34 247.5v618zM453 1528l686 321l111 -229l-698 -299z" />
    <glyph glyph-name="ucircumflex" unicode="&#xfb;" horiz-adv-x="1708" 
d="M185 1181h295v-576c0 -54.667 6 -104.5 18 -149.5s32.5 -83.5 61.5 -115.5s67.667 -56.833 116 -74.5s108.5 -26.5 180.5 -26.5c34 0 68.5 3.66699 103.5 11s68.5 17.5 100.5 30.5s61.833 28.5 89.5 46.5s51.5 37.667 71.5 59v795h296v-1181h-296v101
c-72.667 -43.333 -145.667 -74.333 -219 -93s-143 -28 -209 -28c-108 0 -200.5 13 -277.5 39s-140 63.833 -189 113.5s-84.833 110.667 -107.5 183s-34 154.833 -34 247.5v618zM380 1535l471 355l471 -355l-140 -184l-331 250l-331 -250z" />
    <glyph glyph-name="udieresis" unicode="&#xfc;" horiz-adv-x="1708" 
d="M185 1181h295v-576c0 -54.667 6 -104.5 18 -149.5s32.5 -83.5 61.5 -115.5s67.667 -56.833 116 -74.5s108.5 -26.5 180.5 -26.5c34 0 68.5 3.66699 103.5 11s68.5 17.5 100.5 30.5s61.833 28.5 89.5 46.5s51.5 37.667 71.5 59v795h296v-1181h-296v101
c-72.667 -43.333 -145.667 -74.333 -219 -93s-143 -28 -209 -28c-108 0 -200.5 13 -277.5 39s-140 63.833 -189 113.5s-84.833 110.667 -107.5 183s-34 154.833 -34 247.5v618zM1150 1402c-32.667 0 -62 5 -88 15s-48.167 23.5 -66.5 40.5s-32.333 36.5 -42 58.5
s-14.5 45 -14.5 69s4.83301 46.833 14.5 68.5s23.667 40.667 42 57s40.5 29.166 66.5 38.499s55.333 14 88 14s62.167 -4.66699 88.5 -14s48.666 -22.166 66.999 -38.499s32.333 -35.333 42 -57s14.5 -44.5 14.5 -68.5s-4.83301 -47 -14.5 -69s-23.667 -41.5 -42 -58.5
s-40.666 -30.5 -66.999 -40.5s-55.833 -15 -88.5 -15zM551 1402c-32.667 0 -62 5 -88 15s-48.167 23.5 -66.5 40.5s-32.333 36.5 -42 58.5s-14.5 45 -14.5 69s4.83301 46.833 14.5 68.5s23.667 40.667 42 57s40.5 29.166 66.5 38.499s55.333 14 88 14
s62.167 -4.66699 88.5 -14s48.666 -22.166 66.999 -38.499s32.333 -35.333 42 -57s14.5 -44.5 14.5 -68.5s-4.83301 -47 -14.5 -69s-23.667 -41.5 -42 -58.5s-40.666 -30.5 -66.999 -40.5s-55.833 -15 -88.5 -15z" />
    <glyph glyph-name="yacute" unicode="&#xfd;" horiz-adv-x="1698" 
d="M326 -148c30.667 -20 64 -37.665 100 -52.998s73.5 -28 112.5 -38s78.833 -17.5 119.5 -22.5s81 -7.5 121 -7.5c136 0 240.833 29.167 314.5 87.5s110.5 145.833 110.5 262.5v40c-26 -18 -55.167 -34.5 -87.5 -49.5s-67 -27.833 -104 -38.5s-76 -18.834 -117 -24.501
s-82.5 -8.5 -124.5 -8.5c-90 0 -170.5 13.167 -241.5 39.5s-131 65 -180 116s-86.5 113.833 -112.5 188.5s-39 160 -39 256v580h295v-498c0 -142.667 27.167 -247.834 81.5 -315.501s140.166 -101.5 257.499 -101.5c82.667 0 155.834 14.5 219.501 43.5
s114.5 66.167 152.5 111.5v760h296v-1045c0 -112.667 -16 -210.5 -48 -293.5s-78.5 -151.833 -139.5 -206.5s-135.833 -95.5 -224.5 -122.5s-189.334 -40.5 -302.001 -40.5c-110 0 -212.667 11.667 -308 35s-182.666 55 -261.999 95zM431 1528l686 321l111 -229l-698 -299z
" />
    <glyph glyph-name="thorn" unicode="&#xfe;" horiz-adv-x="1711" 
d="M473 -481h-295.999v2140h296v-590c26 18 56.667 35 92 51s73.333 30 114 42s82.667 21.5 126 28.5s86.666 10.5 129.999 10.5c100 0 191.833 -14.667 275.5 -44s155.5 -70.666 215.5 -123.999s106.833 -117.166 140.5 -191.499s50.5 -156.5 50.5 -246.5
c0 -94 -17.667 -178.833 -53 -254.5s-84.166 -140.334 -146.499 -194.001s-136.333 -95 -222 -124s-178.5 -43.5 -278.5 -43.5c-42.667 0 -84.834 2.66699 -126.501 8s-81.667 12.666 -120 21.999s-74.333 20.5 -108 33.5s-63.5 27.167 -89.5 42.5v-566zM473.001 371
c30 -24 61.6689 -44.332 95.002 -60.999s67.333 -30.334 102 -41.001s69.667 -18.5 105 -23.5s69.666 -7.5 102.999 -7.5c68 0 128.5 9.16699 181.5 27.5s97.667 43.5 134 75.5s64.166 69.667 83.499 113s29 90.333 29 141c0 47.333 -9.5 92 -28.5 134
s-46.333 78.833 -82 110.5s-78.667 56.667 -129 75s-106.833 27.5 -169.5 27.5c-40 0 -80 -3.83301 -120 -11.5s-78.5 -18.5 -115.5 -32.5s-71.667 -31 -104 -51s-60.5 -42.333 -84.5 -67v-409z" />
    <glyph glyph-name="ydieresis" unicode="&#xff;" horiz-adv-x="1698" 
d="M326 -148c30.667 -20 64 -37.665 100 -52.998s73.5 -28 112.5 -38s78.833 -17.5 119.5 -22.5s81 -7.5 121 -7.5c136 0 240.833 29.167 314.5 87.5s110.5 145.833 110.5 262.5v40c-26 -18 -55.167 -34.5 -87.5 -49.5s-67 -27.833 -104 -38.5s-76 -18.834 -117 -24.501
s-82.5 -8.5 -124.5 -8.5c-90 0 -170.5 13.167 -241.5 39.5s-131 65 -180 116s-86.5 113.833 -112.5 188.5s-39 160 -39 256v580h295v-498c0 -142.667 27.167 -247.834 81.5 -315.501s140.166 -101.5 257.499 -101.5c82.667 0 155.834 14.5 219.501 43.5
s114.5 66.167 152.5 111.5v760h296v-1045c0 -112.667 -16 -210.5 -48 -293.5s-78.5 -151.833 -139.5 -206.5s-135.833 -95.5 -224.5 -122.5s-189.334 -40.5 -302.001 -40.5c-110 0 -212.667 11.667 -308 35s-182.666 55 -261.999 95zM1128 1402c-32.667 0 -62 5 -88 15
s-48.167 23.5 -66.5 40.5s-32.333 36.5 -42 58.5s-14.5 45 -14.5 69s4.83301 46.833 14.5 68.5s23.667 40.667 42 57s40.5 29.166 66.5 38.499s55.333 14 88 14s62.167 -4.66699 88.5 -14s48.666 -22.166 66.999 -38.499s32.333 -35.333 42 -57s14.5 -44.5 14.5 -68.5
s-4.83301 -47 -14.5 -69s-23.667 -41.5 -42 -58.5s-40.666 -30.5 -66.999 -40.5s-55.833 -15 -88.5 -15zM529 1402c-32.667 0 -62 5 -88 15s-48.167 23.5 -66.5 40.5s-32.333 36.5 -42 58.5s-14.5 45 -14.5 69s4.83301 46.833 14.5 68.5s23.667 40.667 42 57
s40.5 29.166 66.5 38.499s55.333 14 88 14s62.167 -4.66699 88.5 -14s48.666 -22.166 66.999 -38.499s32.333 -35.333 42 -57s14.5 -44.5 14.5 -68.5s-4.83301 -47 -14.5 -69s-23.667 -41.5 -42 -58.5s-40.666 -30.5 -66.999 -40.5s-55.833 -15 -88.5 -15z" />
    <glyph glyph-name="Amacron" unicode="&#x100;" horiz-adv-x="1868" 
d="M755 1563h336l756 -1563h-333l-125 263h-913l-121 -263h-334zM1264 524l-338 710l-329 -710h667zM530 2013h793v-243h-793v243z" />
    <glyph glyph-name="amacron" unicode="&#x101;" horiz-adv-x="1701" 
d="M129 372c0 56.667 12.334 108.333 37.001 155s61.667 86.834 111 120.501s110.833 59.667 184.5 78s159.5 27.5 257.5 27.5c72.667 0 149.167 -5.33301 229.5 -16s163.166 -27 248.499 -49c-3.33301 37.333 -14.666 71.833 -33.999 103.5s-46.166 59 -80.499 82
s-75.666 40.833 -123.999 53.5s-103.166 19 -164.499 19c-33.333 0 -70 -2 -110 -6s-81.333 -10 -124 -18s-84.834 -18 -126.501 -30s-80.5 -26.333 -116.5 -43l-90 243c44.667 16 92.5 30.667 143.5 44s103.167 24.833 156.5 34.5s106.666 17.167 159.999 22.5s105 8 155 8
c220.667 0 384.667 -56.333 492 -169s161 -285.334 161 -518.001v-514h-296v111c-30.667 -18 -64.167 -35 -100.5 -51s-75.833 -30 -118.5 -42s-88.5 -21.5 -137.5 -28.5s-100.833 -10.5 -155.5 -10.5c-92 0 -172.833 10 -242.5 30s-127.834 47.667 -174.501 83
s-81.834 76.833 -105.501 124.5s-35.5 99.5 -35.5 155.5zM441.001 381.999c0 -19.333 5 -37.833 15 -55.5s26 -33.334 48 -47.001s50.167 -24.667 84.5 -33s75.833 -12.5 124.5 -12.5c52 0 102.333 4.66699 151 14s94 21.666 136 36.999s80 33 114 53s62.333 40.667 85 62
v52c-45.333 12.667 -90.166 23.334 -134.499 32.001s-86.666 15.5 -126.999 20.5s-78.333 8.5 -114 10.5s-66.834 3 -93.501 3c-55.333 0 -101.333 -3.66699 -138 -11s-66.334 -17.166 -89.001 -29.499s-38.667 -26.833 -48 -43.5s-14 -34 -14 -52zM316.001 1690h993v-243
h-993v243z" />
    <glyph glyph-name="Abreve" unicode="&#x102;" horiz-adv-x="1868" 
d="M755 1563h336l756 -1563h-333l-125 263h-913l-121 -263h-334zM1264 524l-338 710l-329 -710h667zM926 1640c-66.667 0 -126.33 9.5 -178.997 28.5s-97.834 45.667 -135.501 80s-67.834 75.333 -90.501 123s-37.334 100.5 -44.001 158.5h227
c7.33301 -57.333 30.5 -101.833 69.5 -133.5s89.833 -47.5 152.5 -47.5s113.5 15.833 152.5 47.5s62.167 76.167 69.5 133.5h227c-6.66699 -58 -21 -110.833 -43 -158.5s-51.667 -88.667 -89 -123s-82.5 -61 -135.5 -80s-113.5 -28.5 -181.5 -28.5z" />
    <glyph glyph-name="abreve" unicode="&#x103;" horiz-adv-x="1701" 
d="M129 372c0 56.667 12.334 108.333 37.001 155s61.667 86.834 111 120.501s110.833 59.667 184.5 78s159.5 27.5 257.5 27.5c72.667 0 149.167 -5.33301 229.5 -16s163.166 -27 248.499 -49c-3.33301 37.333 -14.666 71.833 -33.999 103.5s-46.166 59 -80.499 82
s-75.666 40.833 -123.999 53.5s-103.166 19 -164.499 19c-33.333 0 -70 -2 -110 -6s-81.333 -10 -124 -18s-84.834 -18 -126.501 -30s-80.5 -26.333 -116.5 -43l-90 243c44.667 16 92.5 30.667 143.5 44s103.167 24.833 156.5 34.5s106.666 17.167 159.999 22.5s105 8 155 8
c220.667 0 384.667 -56.333 492 -169s161 -285.334 161 -518.001v-514h-296v111c-30.667 -18 -64.167 -35 -100.5 -51s-75.833 -30 -118.5 -42s-88.5 -21.5 -137.5 -28.5s-100.833 -10.5 -155.5 -10.5c-92 0 -172.833 10 -242.5 30s-127.834 47.667 -174.501 83
s-81.834 76.833 -105.501 124.5s-35.5 99.5 -35.5 155.5zM441.001 381.999c0 -19.333 5 -37.833 15 -55.5s26 -33.334 48 -47.001s50.167 -24.667 84.5 -33s75.833 -12.5 124.5 -12.5c52 0 102.333 4.66699 151 14s94 21.666 136 36.999s80 33 114 53s62.333 40.667 85 62
v52c-45.333 12.667 -90.166 23.334 -134.499 32.001s-86.666 15.5 -126.999 20.5s-78.333 8.5 -114 10.5s-66.834 3 -93.501 3c-55.333 0 -101.333 -3.66699 -138 -11s-66.334 -17.166 -89.001 -29.499s-38.667 -26.833 -48 -43.5s-14 -34 -14 -52zM812.001 1327
c-66 0 -125.167 9.5 -177.5 28.5s-97.5 46.167 -135.5 81.5s-68.5 78.333 -91.5 129s-37.833 107.667 -44.5 171h227c7.33301 -63.333 30.5 -112.666 69.5 -147.999s89.833 -53 152.5 -53s113.5 17.667 152.5 53s62.167 84.666 69.5 147.999h227
c-6.66699 -63.333 -21.5 -120.333 -44.5 -171s-53.5 -93.667 -91.5 -129s-83.167 -62.5 -135.5 -81.5s-111.5 -28.5 -177.5 -28.5z" />
    <glyph glyph-name="Aogonek" unicode="&#x104;" horiz-adv-x="1868" 
d="M755 1563h336l756 -1563h-333l-125 263h-913l-121 -263h-334zM1264 524l-338 710l-329 -710h667zM1202 -292c0 27.333 5.83301 55.832 17.5 85.499s31.167 59.834 58.5 90.501s63.333 61.167 108 91.5s100 60.166 166 89.499h195l100 -65
c-75.333 -17.333 -136.833 -35.666 -184.5 -54.999s-85.334 -39 -113.001 -59s-46.667 -39.667 -57 -59s-15.5 -37 -15.5 -53c0 -24 9.33301 -44 28 -60s47 -24 85 -24c26.667 0 53.667 4.16699 81 12.5s55 19.833 83 34.5l77 -188c-54 -27.333 -106.833 -47.333 -158.5 -60
s-102.167 -19 -151.5 -19c-53.333 0 -100 6.83301 -140 20.5s-73.167 31.5 -99.5 53.5s-46.166 47.333 -59.499 76s-20 58 -20 88z" />
    <glyph glyph-name="aogonek" unicode="&#x105;" horiz-adv-x="1701" 
d="M129 372c0 56.667 12.334 108.333 37.001 155s61.667 86.834 111 120.501s110.833 59.667 184.5 78s159.5 27.5 257.5 27.5c72.667 0 149.167 -5.33301 229.5 -16s163.166 -27 248.499 -49c-3.33301 37.333 -14.666 71.833 -33.999 103.5s-46.166 59 -80.499 82
s-75.666 40.833 -123.999 53.5s-103.166 19 -164.499 19c-33.333 0 -70 -2 -110 -6s-81.333 -10 -124 -18s-84.834 -18 -126.501 -30s-80.5 -26.333 -116.5 -43l-90 243c44.667 16 92.5 30.667 143.5 44s103.167 24.833 156.5 34.5s106.666 17.167 159.999 22.5s105 8 155 8
c220.667 0 384.667 -56.333 492 -169s161 -285.334 161 -518.001v-514h-296v111c-30.667 -18 -64.167 -35 -100.5 -51s-75.833 -30 -118.5 -42s-88.5 -21.5 -137.5 -28.5s-100.833 -10.5 -155.5 -10.5c-92 0 -172.833 10 -242.5 30s-127.834 47.667 -174.501 83
s-81.834 76.833 -105.501 124.5s-35.5 99.5 -35.5 155.5zM441.001 381.999c0 -19.333 5 -37.833 15 -55.5s26 -33.334 48 -47.001s50.167 -24.667 84.5 -33s75.833 -12.5 124.5 -12.5c52 0 102.333 4.66699 151 14s94 21.666 136 36.999s80 33 114 53s62.333 40.667 85 62
v52c-45.333 12.667 -90.166 23.334 -134.499 32.001s-86.666 15.5 -126.999 20.5s-78.333 8.5 -114 10.5s-66.834 3 -93.501 3c-55.333 0 -101.333 -3.66699 -138 -11s-66.334 -17.166 -89.001 -29.499s-38.667 -26.833 -48 -43.5s-14 -34 -14 -52zM850.001 -292.001
c0 27.333 5.83301 55.832 17.5 85.499s31.167 59.834 58.5 90.501s63.333 61.167 108 91.5s100 60.166 166 89.499h195l100 -65c-75.333 -17.333 -136.833 -35.666 -184.5 -54.999s-85.334 -39 -113.001 -59s-46.667 -39.667 -57 -59s-15.5 -37 -15.5 -53
c0 -24 9.33301 -44 28 -60s47 -24 85 -24c26.667 0 53.667 4.16699 81 12.5s55 19.833 83 34.5l77 -188c-54 -27.333 -106.833 -47.333 -158.5 -60s-102.167 -19 -151.5 -19c-53.333 0 -100 6.83301 -140 20.5s-73.167 31.5 -99.5 53.5s-46.166 47.333 -59.499 76
s-20 58 -20 88z" />
    <glyph glyph-name="Cacute" unicode="&#x106;" horiz-adv-x="1879" 
d="M127 791c0 111.333 21.001 215.168 63.001 311.501s102.833 180 182.5 251s177 126.833 292 167.5s245.167 61 390.5 61c127.333 0 244.166 -12.833 350.499 -38.5s205.166 -64.834 296.499 -117.501l-146 -240c-27.333 18 -58.833 34 -94.5 48s-73.667 25.833 -114 35.5
s-82 17.167 -125 22.5s-85.5 8 -127.5 8c-101.333 0 -191.666 -12.5 -270.999 -37.5s-146.166 -60 -200.499 -105s-95.666 -98.667 -123.999 -161s-42.5 -130.833 -42.5 -205.5c0 -77.333 14.667 -148.333 44 -213s71.833 -120.5 127.5 -167.5s123.667 -83.667 204 -110
s171.166 -39.5 272.499 -39.5c46 0 91.667 3.33301 137 10s89.166 15.834 131.499 27.501s83.166 25.667 122.499 42s76 34.166 110 53.499l146 -240c-85.333 -54.667 -184 -97.5 -296 -128.5s-231 -46.5 -357 -46.5c-160.667 0 -301.667 20.833 -423 62.5
s-222.666 99 -303.999 172s-142.5 159 -183.5 258s-61.5 205.5 -61.5 319.5zM693.001 1841l674 189l70 -248l-682 -159z" />
    <glyph glyph-name="cacute" unicode="&#x107;" horiz-adv-x="1526" 
d="M114 587c0 86.667 15.8359 167.498 47.5029 242.498s78 140 139 195s135.667 98.167 224 129.5s189.166 47 302.499 47c49.333 0 99 -3 149 -9s98.167 -14.5 144.5 -25.5s89.833 -24 130.5 -39s76 -31.5 106 -49.5l-137 -223c-64.667 30 -125.834 52 -183.501 66
s-116.167 21 -175.5 21c-68 0 -129 -8.83301 -183 -26.5s-99.833 -42.334 -137.5 -74.001s-66.334 -69 -86.001 -112s-29.5 -89.833 -29.5 -140.5s10.5 -97.5 31.5 -140.5s50.667 -80 89 -111s84.666 -55.333 138.999 -73s114.833 -26.5 181.5 -26.5
c73.333 0 142.5 10.333 207.5 31s125.5 48.334 181.5 83.001l137 -223c-35.333 -21.333 -73.666 -41.166 -114.999 -59.499s-85.5 -34.166 -132.5 -47.499s-96.333 -23.833 -148 -31.5s-105.167 -11.5 -160.5 -11.5c-112.667 0 -213.667 15.333 -303 46
s-165 73.167 -227 127.5s-109.5 118.5 -142.5 192.5s-49.5 154.667 -49.5 242zM419.003 1533l686 321l111 -229l-698 -299z" />
    <glyph glyph-name="Ccircumflex" unicode="&#x108;" horiz-adv-x="1879" 
d="M127 791c0 111.333 21.001 215.168 63.001 311.501s102.833 180 182.5 251s177 126.833 292 167.5s245.167 61 390.5 61c127.333 0 244.166 -12.833 350.499 -38.5s205.166 -64.834 296.499 -117.501l-146 -240c-27.333 18 -58.833 34 -94.5 48s-73.667 25.833 -114 35.5
s-82 17.167 -125 22.5s-85.5 8 -127.5 8c-101.333 0 -191.666 -12.5 -270.999 -37.5s-146.166 -60 -200.499 -105s-95.666 -98.667 -123.999 -161s-42.5 -130.833 -42.5 -205.5c0 -77.333 14.667 -148.333 44 -213s71.833 -120.5 127.5 -167.5s123.667 -83.667 204 -110
s171.166 -39.5 272.499 -39.5c46 0 91.667 3.33301 137 10s89.166 15.834 131.499 27.501s83.166 25.667 122.499 42s76 34.166 110 53.499l146 -240c-85.333 -54.667 -184 -97.5 -296 -128.5s-231 -46.5 -357 -46.5c-160.667 0 -301.667 20.833 -423 62.5
s-222.666 99 -303.999 172s-142.5 159 -183.5 258s-61.5 205.5 -61.5 319.5zM608.001 1823l457 207l457 -207l-109 -214l-348 163l-348 -163z" />
    <glyph glyph-name="ccircumflex" unicode="&#x109;" horiz-adv-x="1526" 
d="M114 587c0 86.667 15.8359 167.498 47.5029 242.498s78 140 139 195s135.667 98.167 224 129.5s189.166 47 302.499 47c49.333 0 99 -3 149 -9s98.167 -14.5 144.5 -25.5s89.833 -24 130.5 -39s76 -31.5 106 -49.5l-137 -223c-64.667 30 -125.834 52 -183.501 66
s-116.167 21 -175.5 21c-68 0 -129 -8.83301 -183 -26.5s-99.833 -42.334 -137.5 -74.001s-66.334 -69 -86.001 -112s-29.5 -89.833 -29.5 -140.5s10.5 -97.5 31.5 -140.5s50.667 -80 89 -111s84.666 -55.333 138.999 -73s114.833 -26.5 181.5 -26.5
c73.333 0 142.5 10.333 207.5 31s125.5 48.334 181.5 83.001l137 -223c-35.333 -21.333 -73.666 -41.166 -114.999 -59.499s-85.5 -34.166 -132.5 -47.499s-96.333 -23.833 -148 -31.5s-105.167 -11.5 -160.5 -11.5c-112.667 0 -213.667 15.333 -303 46
s-165 73.167 -227 127.5s-109.5 118.5 -142.5 192.5s-49.5 154.667 -49.5 242zM346.003 1540l471 355l471 -355l-140 -184l-331 250l-331 -250z" />
    <glyph glyph-name="Cdotaccent" unicode="&#x10a;" horiz-adv-x="1879" 
d="M127 791c0 111.333 21.001 215.168 63.001 311.501s102.833 180 182.5 251s177 126.833 292 167.5s245.167 61 390.5 61c127.333 0 244.166 -12.833 350.499 -38.5s205.166 -64.834 296.499 -117.501l-146 -240c-27.333 18 -58.833 34 -94.5 48s-73.667 25.833 -114 35.5
s-82 17.167 -125 22.5s-85.5 8 -127.5 8c-101.333 0 -191.666 -12.5 -270.999 -37.5s-146.166 -60 -200.499 -105s-95.666 -98.667 -123.999 -161s-42.5 -130.833 -42.5 -205.5c0 -77.333 14.667 -148.333 44 -213s71.833 -120.5 127.5 -167.5s123.667 -83.667 204 -110
s171.166 -39.5 272.499 -39.5c46 0 91.667 3.33301 137 10s89.166 15.834 131.499 27.501s83.166 25.667 122.499 42s76 34.166 110 53.499l146 -240c-85.333 -54.667 -184 -97.5 -296 -128.5s-231 -46.5 -357 -46.5c-160.667 0 -301.667 20.833 -423 62.5
s-222.666 99 -303.999 172s-142.5 159 -183.5 258s-61.5 205.5 -61.5 319.5zM1066 1678c-33.333 0 -63.166 4.66699 -89.499 14s-49 22 -68 38s-33.5 34.667 -43.5 56s-15 44 -15 68c0 24.667 5 47.667 15 69s24.5 40 43.5 56s41.667 28.5 68 37.5s56.166 13.5 89.499 13.5
s63.333 -4.5 90 -13.5s49.167 -21.5 67.5 -37.5s32.5 -34.667 42.5 -56s15 -44.333 15 -69c0 -24 -5 -46.667 -15 -68s-24.167 -40 -42.5 -56s-40.833 -28.667 -67.5 -38s-56.667 -14 -90 -14z" />
    <glyph glyph-name="cdotaccent" unicode="&#x10b;" horiz-adv-x="1526" 
d="M114 587c0 86.667 15.8359 167.498 47.5029 242.498s78 140 139 195s135.667 98.167 224 129.5s189.166 47 302.499 47c49.333 0 99 -3 149 -9s98.167 -14.5 144.5 -25.5s89.833 -24 130.5 -39s76 -31.5 106 -49.5l-137 -223c-64.667 30 -125.834 52 -183.501 66
s-116.167 21 -175.5 21c-68 0 -129 -8.83301 -183 -26.5s-99.833 -42.334 -137.5 -74.001s-66.334 -69 -86.001 -112s-29.5 -89.833 -29.5 -140.5s10.5 -97.5 31.5 -140.5s50.667 -80 89 -111s84.666 -55.333 138.999 -73s114.833 -26.5 181.5 -26.5
c73.333 0 142.5 10.333 207.5 31s125.5 48.334 181.5 83.001l137 -223c-35.333 -21.333 -73.666 -41.166 -114.999 -59.499s-85.5 -34.166 -132.5 -47.499s-96.333 -23.833 -148 -31.5s-105.167 -11.5 -160.5 -11.5c-112.667 0 -213.667 15.333 -303 46
s-165 73.167 -227 127.5s-109.5 118.5 -142.5 192.5s-49.5 154.667 -49.5 242zM817.003 1346c-29.333 0 -55.833 4.16699 -79.5 12.5s-43.834 19.666 -60.501 33.999s-29.5 31 -38.5 50s-13.5 39.167 -13.5 60.5c0 22 4.5 42.5 13.5 61.5s21.833 35.5 38.5 49.5
s36.834 25.167 60.501 33.5s50.167 12.5 79.5 12.5c30 0 56.833 -4.16699 80.5 -12.5s43.834 -19.5 60.501 -33.5s29.5 -30.5 38.5 -49.5s13.5 -39.5 13.5 -61.5c0 -21.333 -4.5 -41.5 -13.5 -60.5s-21.833 -35.667 -38.5 -50s-36.834 -25.666 -60.501 -33.999
s-50.5 -12.5 -80.5 -12.5z" />
    <glyph glyph-name="Ccaron" unicode="&#x10c;" horiz-adv-x="1879" 
d="M127 791c0 111.333 21.001 215.168 63.001 311.501s102.833 180 182.5 251s177 126.833 292 167.5s245.167 61 390.5 61c127.333 0 244.166 -12.833 350.499 -38.5s205.166 -64.834 296.499 -117.501l-146 -240c-27.333 18 -58.833 34 -94.5 48s-73.667 25.833 -114 35.5
s-82 17.167 -125 22.5s-85.5 8 -127.5 8c-101.333 0 -191.666 -12.5 -270.999 -37.5s-146.166 -60 -200.499 -105s-95.666 -98.667 -123.999 -161s-42.5 -130.833 -42.5 -205.5c0 -77.333 14.667 -148.333 44 -213s71.833 -120.5 127.5 -167.5s123.667 -83.667 204 -110
s171.166 -39.5 272.499 -39.5c46 0 91.667 3.33301 137 10s89.166 15.834 131.499 27.501s83.166 25.667 122.499 42s76 34.166 110 53.499l146 -240c-85.333 -54.667 -184 -97.5 -296 -128.5s-231 -46.5 -357 -46.5c-160.667 0 -301.667 20.833 -423 62.5
s-222.666 99 -303.999 172s-142.5 159 -183.5 258s-61.5 205.5 -61.5 319.5zM626.001 1823l112 207l327 -164l327 164l112 -207l-439 -218z" />
    <glyph glyph-name="ccaron" unicode="&#x10d;" horiz-adv-x="1526" 
d="M114 587c0 86.667 15.8359 167.498 47.5029 242.498s78 140 139 195s135.667 98.167 224 129.5s189.166 47 302.499 47c49.333 0 99 -3 149 -9s98.167 -14.5 144.5 -25.5s89.833 -24 130.5 -39s76 -31.5 106 -49.5l-137 -223c-64.667 30 -125.834 52 -183.501 66
s-116.167 21 -175.5 21c-68 0 -129 -8.83301 -183 -26.5s-99.833 -42.334 -137.5 -74.001s-66.334 -69 -86.001 -112s-29.5 -89.833 -29.5 -140.5s10.5 -97.5 31.5 -140.5s50.667 -80 89 -111s84.666 -55.333 138.999 -73s114.833 -26.5 181.5 -26.5
c73.333 0 142.5 10.333 207.5 31s125.5 48.334 181.5 83.001l137 -223c-35.333 -21.333 -73.666 -41.166 -114.999 -59.499s-85.5 -34.166 -132.5 -47.499s-96.333 -23.833 -148 -31.5s-105.167 -11.5 -160.5 -11.5c-112.667 0 -213.667 15.333 -303 46
s-165 73.167 -227 127.5s-109.5 118.5 -142.5 192.5s-49.5 154.667 -49.5 242zM378.003 1684l140 175l299 -229l299 229l140 -175l-439 -334z" />
    <glyph glyph-name="Dcaron" unicode="&#x10e;" horiz-adv-x="1874" 
d="M222 1563l573 -0.00195312c167.333 0 312.666 -18 435.999 -54s225.5 -87.5 306.5 -154.5s141.333 -148.333 181 -244s59.5 -203.167 59.5 -322.5c0 -113.333 -19.667 -218.166 -59 -314.499s-99.333 -179.666 -180 -249.999s-182.667 -125.333 -306 -165
s-268.666 -59.5 -435.999 -59.5l-575 1v1563zM873 273.998c94.667 0 177.667 12.166 249 36.499s130.833 58.833 178.5 103.5s83.5 98.667 107.5 162s36 134 36 212c0 76.667 -12 145.834 -36 207.501s-59.833 114 -107.5 157s-107.167 76.167 -178.5 99.5
s-154.333 35 -249 35h-334v-1013h334zM561 1823l112 207l327 -164l327 164l112 -207l-439 -218z" />
    <glyph glyph-name="dcaron" unicode="&#x10f;" horiz-adv-x="1879" 
d="M94 585c0 94 17.6689 178.833 53.002 254.5s84.166 140.334 146.499 194.001s136.333 95 222 124s178.5 43.5 278.5 43.5c42.667 0 84.834 -2.66699 126.501 -8s81.667 -12.666 120 -21.999s74.333 -20.5 108 -33.5s63.5 -27.167 89.5 -42.5v564h296v-1659h-296v111
c-26 -18 -56.667 -35 -92 -51s-73.333 -30 -114 -42s-82.834 -21.5 -126.501 -28.5s-86.834 -10.5 -129.501 -10.5c-100 0 -191.833 14.667 -275.5 44s-155.5 70.666 -215.5 123.999s-106.833 117.166 -140.5 191.499s-50.5 156.5 -50.5 246.5zM405.002 585
c0 -47.333 9.49805 -92.001 28.498 -134.001s46.333 -78.833 82 -110.5s78.667 -56.667 129 -75s106.833 -27.5 169.5 -27.5c40 0 80 3.83301 120 11.5s78.5 18.5 115.5 32.5s71.667 31 104 51s60.5 42.333 84.5 67v409c-30 24 -61.667 44.333 -95 61
s-67.333 30.334 -102 41.001s-69.667 18.5 -105 23.5s-69.666 7.5 -102.999 7.5c-68 0 -128.5 -9.16699 -181.5 -27.5s-97.667 -43.5 -134 -75.5s-64.166 -69.667 -83.499 -113s-29 -90.333 -29 -141zM1732 1694l266 -35l-103 -567l-235 34z" />
    <glyph glyph-name="Dcroat" unicode="&#x110;" horiz-adv-x="1879" 
d="M8 915h917v-222h-917v222zM222 1563l573 -0.00195312c167.333 0 312.666 -18 435.999 -54s225.5 -87.5 306.5 -154.5s141.333 -148.333 181 -244s59.5 -203.167 59.5 -322.5c0 -113.333 -19.667 -218.166 -59 -314.499s-99.333 -179.666 -180 -249.999
s-182.667 -125.333 -306 -165s-268.666 -59.5 -435.999 -59.5l-575 1v1563zM873 273.998c94.667 0 177.667 12.166 249 36.499s130.833 58.833 178.5 103.5s83.5 98.667 107.5 162s36 134 36 212c0 76.667 -12 145.834 -36 207.501s-59.833 114 -107.5 157
s-107.167 76.167 -178.5 99.5s-154.333 35 -249 35h-334v-1013h334z" />
    <glyph glyph-name="dcroat" unicode="&#x111;" horiz-adv-x="1711" 
d="M893 1525h817v-222h-817v222zM94 585c0 94 17.6689 178.833 53.002 254.5s84.166 140.334 146.499 194.001s136.333 95 222 124s178.5 43.5 278.5 43.5c42.667 0 84.834 -2.66699 126.501 -8s81.667 -12.666 120 -21.999s74.333 -20.5 108 -33.5s63.5 -27.167 89.5 -42.5
v564h296v-1659h-296v111c-26 -18 -56.667 -35 -92 -51s-73.333 -30 -114 -42s-82.834 -21.5 -126.501 -28.5s-86.834 -10.5 -129.501 -10.5c-100 0 -191.833 14.667 -275.5 44s-155.5 70.666 -215.5 123.999s-106.833 117.166 -140.5 191.499s-50.5 156.5 -50.5 246.5z
M405.002 585c0 -47.333 9.49805 -92.001 28.498 -134.001s46.333 -78.833 82 -110.5s78.667 -56.667 129 -75s106.833 -27.5 169.5 -27.5c40 0 80 3.83301 120 11.5s78.5 18.5 115.5 32.5s71.667 31 104 51s60.5 42.333 84.5 67v409c-30 24 -61.667 44.333 -95 61
s-67.333 30.334 -102 41.001s-69.667 18.5 -105 23.5s-69.666 7.5 -102.999 7.5c-68 0 -128.5 -9.16699 -181.5 -27.5s-97.667 -43.5 -134 -75.5s-64.166 -69.667 -83.499 -113s-29 -90.333 -29 -141z" />
    <glyph glyph-name="Emacron" unicode="&#x112;" horiz-adv-x="1704" 
d="M222 1563h1331v-278h-1014v-312h898v-261h-898v-435h1035v-277h-1352v1563zM502 2013h793v-243h-793v243z" />
    <glyph glyph-name="emacron" unicode="&#x113;" horiz-adv-x="1711" 
d="M129 594c0 80 16.334 156.499 49.001 229.499s79.667 137.5 141 193.5s136.5 100.667 225.5 134s190.167 50 303.5 50c112.667 0 214.167 -16.833 304.5 -50.5s167 -79.834 230 -138.501s111.333 -127.667 145 -207s50.5 -164.333 50.5 -255
c0 -11.333 -0.166992 -23.5 -0.5 -36.5s-1.16602 -24.833 -2.49902 -35.5h-1116c12.667 -35.333 33.167 -67.666 61.5 -96.999s63.833 -54.666 106.5 -75.999s92 -37.833 148 -49.5s118 -17.5 186 -17.5s135.667 7.16699 203 21.5s131.666 32.5 192.999 54.5l100 -226
c-38.667 -18 -77.834 -33.833 -117.501 -47.5s-81 -25 -124 -34s-88 -15.833 -135 -20.5s-96.5 -7 -148.5 -7c-132.667 0 -249 16 -349 48s-183.667 75.667 -251 131s-118 120.333 -152 195s-51 155 -51 241zM1264 708.999c-10.667 32.667 -27.168 63.167 -49.501 91.5
s-50.166 53 -83.499 74s-72 37.5 -116 49.5s-92.333 18 -145 18c-56 0 -107 -6.33301 -153 -19s-86.333 -29.667 -121 -51s-63.5 -46 -86.5 -74s-39.833 -57.667 -50.5 -89h805zM357 1690h993v-243h-993v243z" />
    <glyph glyph-name="Ebreve" unicode="&#x114;" horiz-adv-x="1704" 
d="M222 1563h1331v-278h-1014v-312h898v-261h-898v-435h1035v-277h-1352v1563zM898 1640c-66.667 0 -126.33 9.5 -178.997 28.5s-97.834 45.667 -135.501 80s-67.834 75.333 -90.501 123s-37.334 100.5 -44.001 158.5h227c7.33301 -57.333 30.5 -101.833 69.5 -133.5
s89.833 -47.5 152.5 -47.5s113.5 15.833 152.5 47.5s62.167 76.167 69.5 133.5h227c-6.66699 -58 -21 -110.833 -43 -158.5s-51.667 -88.667 -89 -123s-82.5 -61 -135.5 -80s-113.5 -28.5 -181.5 -28.5z" />
    <glyph glyph-name="ebreve" unicode="&#x115;" horiz-adv-x="1711" 
d="M129 594c0 80 16.334 156.499 49.001 229.499s79.667 137.5 141 193.5s136.5 100.667 225.5 134s190.167 50 303.5 50c112.667 0 214.167 -16.833 304.5 -50.5s167 -79.834 230 -138.501s111.333 -127.667 145 -207s50.5 -164.333 50.5 -255
c0 -11.333 -0.166992 -23.5 -0.5 -36.5s-1.16602 -24.833 -2.49902 -35.5h-1116c12.667 -35.333 33.167 -67.666 61.5 -96.999s63.833 -54.666 106.5 -75.999s92 -37.833 148 -49.5s118 -17.5 186 -17.5s135.667 7.16699 203 21.5s131.666 32.5 192.999 54.5l100 -226
c-38.667 -18 -77.834 -33.833 -117.501 -47.5s-81 -25 -124 -34s-88 -15.833 -135 -20.5s-96.5 -7 -148.5 -7c-132.667 0 -249 16 -349 48s-183.667 75.667 -251 131s-118 120.333 -152 195s-51 155 -51 241zM1264 708.999c-10.667 32.667 -27.168 63.167 -49.501 91.5
s-50.166 53 -83.499 74s-72 37.5 -116 49.5s-92.333 18 -145 18c-56 0 -107 -6.33301 -153 -19s-86.333 -29.667 -121 -51s-63.5 -46 -86.5 -74s-39.833 -57.667 -50.5 -89h805zM853 1327c-66 0 -125.167 9.5 -177.5 28.5s-97.5 46.167 -135.5 81.5s-68.5 78.333 -91.5 129
s-37.833 107.667 -44.5 171h227c7.33301 -63.333 30.5 -112.666 69.5 -147.999s89.833 -53 152.5 -53s113.5 17.667 152.5 53s62.167 84.666 69.5 147.999h227c-6.66699 -63.333 -21.5 -120.333 -44.5 -171s-53.5 -93.667 -91.5 -129s-83.167 -62.5 -135.5 -81.5
s-111.5 -28.5 -177.5 -28.5z" />
    <glyph glyph-name="Edotaccent" unicode="&#x116;" horiz-adv-x="1704" 
d="M222 1563h1331v-278h-1014v-312h898v-261h-898v-435h1035v-277h-1352v1563zM899 1678c-33.333 0 -63.166 4.66699 -89.499 14s-49 22 -68 38s-33.5 34.667 -43.5 56s-15 44 -15 68c0 24.667 5 47.667 15 69s24.5 40 43.5 56s41.667 28.5 68 37.5s56.166 13.5 89.499 13.5
s63.333 -4.5 90 -13.5s49.167 -21.5 67.5 -37.5s32.5 -34.667 42.5 -56s15 -44.333 15 -69c0 -24 -5 -46.667 -15 -68s-24.167 -40 -42.5 -56s-40.833 -28.667 -67.5 -38s-56.667 -14 -90 -14z" />
    <glyph glyph-name="edotaccent" unicode="&#x117;" horiz-adv-x="1711" 
d="M129 594c0 80 16.334 156.499 49.001 229.499s79.667 137.5 141 193.5s136.5 100.667 225.5 134s190.167 50 303.5 50c112.667 0 214.167 -16.833 304.5 -50.5s167 -79.834 230 -138.501s111.333 -127.667 145 -207s50.5 -164.333 50.5 -255
c0 -11.333 -0.166992 -23.5 -0.5 -36.5s-1.16602 -24.833 -2.49902 -35.5h-1116c12.667 -35.333 33.167 -67.666 61.5 -96.999s63.833 -54.666 106.5 -75.999s92 -37.833 148 -49.5s118 -17.5 186 -17.5s135.667 7.16699 203 21.5s131.666 32.5 192.999 54.5l100 -226
c-38.667 -18 -77.834 -33.833 -117.501 -47.5s-81 -25 -124 -34s-88 -15.833 -135 -20.5s-96.5 -7 -148.5 -7c-132.667 0 -249 16 -349 48s-183.667 75.667 -251 131s-118 120.333 -152 195s-51 155 -51 241zM1264 708.999c-10.667 32.667 -27.168 63.167 -49.501 91.5
s-50.166 53 -83.499 74s-72 37.5 -116 49.5s-92.333 18 -145 18c-56 0 -107 -6.33301 -153 -19s-86.333 -29.667 -121 -51s-63.5 -46 -86.5 -74s-39.833 -57.667 -50.5 -89h805zM853 1341c-29.333 0 -55.833 4.16699 -79.5 12.5s-43.834 19.666 -60.501 33.999
s-29.5 31 -38.5 50s-13.5 39.167 -13.5 60.5c0 22 4.5 42.5 13.5 61.5s21.833 35.5 38.5 49.5s36.834 25.167 60.501 33.5s50.167 12.5 79.5 12.5c30 0 56.833 -4.16699 80.5 -12.5s43.834 -19.5 60.501 -33.5s29.5 -30.5 38.5 -49.5s13.5 -39.5 13.5 -61.5
c0 -21.333 -4.5 -41.5 -13.5 -60.5s-21.833 -35.667 -38.5 -50s-36.834 -25.666 -60.501 -33.999s-50.5 -12.5 -80.5 -12.5z" />
    <glyph glyph-name="Eogonek" unicode="&#x118;" horiz-adv-x="1704" 
d="M222 1563h1331v-278h-1014v-312h898v-261h-898v-435h1035v-277h-1352v1563zM929 -292c0 27.333 5.83301 55.832 17.5 85.499s31.167 59.834 58.5 90.501s63.333 61.167 108 91.5s100 60.166 166 89.499h195l100 -65c-75.333 -17.333 -136.833 -35.666 -184.5 -54.999
s-85.334 -39 -113.001 -59s-46.667 -39.667 -57 -59s-15.5 -37 -15.5 -53c0 -24 9.33301 -44 28 -60s47 -24 85 -24c26.667 0 53.667 4.16699 81 12.5s55 19.833 83 34.5l77 -188c-54 -27.333 -106.833 -47.333 -158.5 -60s-102.167 -19 -151.5 -19
c-53.333 0 -100 6.83301 -140 20.5s-73.167 31.5 -99.5 53.5s-46.166 47.333 -59.499 76s-20 58 -20 88z" />
    <glyph glyph-name="eogonek" unicode="&#x119;" horiz-adv-x="1711" 
d="M129 586c0 82.667 16.3359 161.169 49.0029 235.502s79.667 139.666 141 195.999s136.5 101 225.5 134s189.833 49.5 302.5 49.5c113.333 0 215.166 -16.833 305.499 -50.5s167 -79.834 230 -138.501s111.333 -127.667 145 -207s50.5 -164.333 50.5 -255
c0 -11.333 -0.166992 -23.5 -0.5 -36.5s-1.16602 -24.833 -2.49902 -35.5h-1116c12.667 -36.667 33.834 -69.667 63.501 -99s66 -54.5 109 -75.5s91.667 -37.167 146 -48.5s113.166 -17 176.499 -17c72.667 0 142.167 7 208.5 21s131.166 32.333 194.499 55l100 -226h-1
c-140.667 -44 -244.334 -92 -311.001 -144s-100 -106.667 -100 -164c0 -24 9.16699 -45 27.5 -63s47.166 -27 86.499 -27c25.333 0 51.833 4.16699 79.5 12.5s55.5 19.833 83.5 34.5l77 -188c-52 -26.667 -104.667 -46.5 -158 -59.5s-101 -19.5 -143 -19.5
c-56.667 0 -105.5 6.83301 -146.5 20.5s-75 31.834 -102 54.501s-47 48.667 -60 78s-19.5 60 -19.5 92c0 47.333 15.5 93.166 46.5 137.499s73.167 86.5 126.5 126.5h-5c-134 0 -251.5 16 -352.5 48s-185.333 75.5 -253 130.5s-118.5 119.333 -152.5 193
s-51 152.167 -51 235.5zM1264 709.002c-10.667 32.667 -27.1689 63.167 -49.502 91.5s-50.166 53 -83.499 74s-72 37.5 -116 49.5s-93 18 -147 18c-55.333 0 -105.833 -6.33301 -151.5 -19s-85.667 -29.667 -120 -51s-63.166 -46 -86.499 -74s-40.333 -57.667 -51 -89h805z
" />
    <glyph glyph-name="Ecaron" unicode="&#x11a;" horiz-adv-x="1704" 
d="M222 1563h1331v-278h-1014v-312h898v-261h-898v-435h1035v-277h-1352v1563zM459 1823l112 207l327 -164l327 164l112 -207l-439 -218z" />
    <glyph glyph-name="ecaron" unicode="&#x11b;" horiz-adv-x="1711" 
d="M129 594c0 80 16.334 156.499 49.001 229.499s79.667 137.5 141 193.5s136.5 100.667 225.5 134s190.167 50 303.5 50c112.667 0 214.167 -16.833 304.5 -50.5s167 -79.834 230 -138.501s111.333 -127.667 145 -207s50.5 -164.333 50.5 -255
c0 -11.333 -0.166992 -23.5 -0.5 -36.5s-1.16602 -24.833 -2.49902 -35.5h-1116c12.667 -35.333 33.167 -67.666 61.5 -96.999s63.833 -54.666 106.5 -75.999s92 -37.833 148 -49.5s118 -17.5 186 -17.5s135.667 7.16699 203 21.5s131.666 32.5 192.999 54.5l100 -226
c-38.667 -18 -77.834 -33.833 -117.501 -47.5s-81 -25 -124 -34s-88 -15.833 -135 -20.5s-96.5 -7 -148.5 -7c-132.667 0 -249 16 -349 48s-183.667 75.667 -251 131s-118 120.333 -152 195s-51 155 -51 241zM1264 708.999c-10.667 32.667 -27.168 63.167 -49.501 91.5
s-50.166 53 -83.499 74s-72 37.5 -116 49.5s-92.333 18 -145 18c-56 0 -107 -6.33301 -153 -19s-86.333 -29.667 -121 -51s-63.5 -46 -86.5 -74s-39.833 -57.667 -50.5 -89h805zM414 1679l140 175l299 -229l299 229l140 -175l-439 -334z" />
    <glyph glyph-name="Gcircumflex" unicode="&#x11c;" 
d="M115 796c0 110 20.665 212.833 61.998 308.5s101.666 178.834 180.999 249.501s176.833 126.334 292.5 167.001s248.167 61 397.5 61c54 0 108.167 -2.83301 162.5 -8.5s108 -14.5 161 -26.5s104.667 -27.167 155 -45.5s98.166 -40.166 143.499 -65.499l-146 -240
c-27.333 16 -58.333 30.5 -93 43.5s-71.834 24 -111.501 33s-80.667 15.833 -123 20.5s-84.833 7 -127.5 7c-98.667 0 -186.667 -12.5 -264 -37.5s-142.666 -60 -195.999 -105s-94 -98.833 -122 -161.5s-42 -131.334 -42 -206.001c0 -77.333 14.667 -148.333 44 -213
s71 -120.334 125 -167.001s119.333 -83.167 196 -109.5s162.334 -39.5 257.001 -39.5c75.333 0 144.333 8.5 207 25.5s117.334 41.167 164.001 72.5s84.667 69.166 114 113.499s48.666 94.166 57.999 149.499h-546v261h831v-1l1 1c16.667 -80 21.834 -157.833 15.501 -233.5
s-23.666 -147 -51.999 -214s-67.166 -128.5 -116.499 -184.5s-108.333 -104.167 -177 -144.5s-146.667 -71.666 -234 -93.999s-183 -33.5 -287 -33.5c-145.333 0 -275.5 21.333 -390.5 64s-212.5 101 -292.5 175s-141.167 160.667 -183.5 260s-63.5 205.333 -63.5 318z
M557.998 1823l457 207l457 -207l-109 -214l-348 163l-348 -163z" />
    <glyph glyph-name="gcircumflex" unicode="&#x11d;" horiz-adv-x="1711" 
d="M370 -200c37.333 -13.333 75.3379 -24.499 114.005 -33.499s76.167 -16.333 112.5 -22s71.166 -9.66699 104.499 -12s63 -3.5 89 -3.5c78.667 0 147.167 9.5 205.5 28.5s107 44.5 146 76.5s68.167 69.167 87.5 111.5s29 87.166 29 134.499v51
c-25.333 -17.333 -55 -34 -89 -50s-71.333 -30 -112 -42s-83.834 -21.667 -129.501 -29s-92.834 -11 -141.501 -11c-96.667 0 -186 14.5 -268 43.5s-153 69.667 -213 122s-106.833 115.166 -140.5 188.499s-50.5 154.666 -50.5 243.999c0 91.333 17.667 174.166 53 248.499
s84.166 137.833 146.499 190.5s136.166 93.334 221.499 122.001s178 43 278 43c42.667 0 85 -2.66699 127 -8s82.167 -12.666 120.5 -21.999s74.333 -20.5 108 -33.5s63.5 -27.167 89.5 -42.5v85h296v-1045c0 -107.333 -16.333 -202.333 -49 -285
s-80.5 -152.167 -143.5 -208.5s-141.167 -99 -234.5 -128s-200.333 -43.5 -321 -43.5c-43.333 0 -88.333 1.83301 -135 5.5s-93.5 9 -140.5 16s-93.333 15.333 -139 25s-89.5 20.834 -131.5 33.501zM425.005 600.001c0 -47.333 9.49805 -91.835 28.498 -133.502
s46.167 -78 81.5 -109s78 -55.333 128 -73s106.333 -26.5 169 -26.5c40.667 0 81.167 3.83301 121.5 11.5s79 18.5 116 32.5s71.667 31 104 51s60.5 42.333 84.5 67v389c-30 24 -61.667 44.333 -95 61s-67.333 30.334 -102 41.001s-69.667 18.5 -105 23.5
s-69.666 7.5 -102.999 7.5c-68 0 -128.5 -9 -181.5 -27s-97.667 -42.5 -134 -73.5s-64.166 -67.167 -83.499 -108.5s-29 -85.666 -29 -132.999zM363.003 1535l471 355l471 -355l-140 -184l-331 250l-331 -250z" />
    <glyph glyph-name="Gbreve" unicode="&#x11e;" 
d="M115 796c0 110 20.665 212.833 61.998 308.5s101.666 178.834 180.999 249.501s176.833 126.334 292.5 167.001s248.167 61 397.5 61c54 0 108.167 -2.83301 162.5 -8.5s108 -14.5 161 -26.5s104.667 -27.167 155 -45.5s98.166 -40.166 143.499 -65.499l-146 -240
c-27.333 16 -58.333 30.5 -93 43.5s-71.834 24 -111.501 33s-80.667 15.833 -123 20.5s-84.833 7 -127.5 7c-98.667 0 -186.667 -12.5 -264 -37.5s-142.666 -60 -195.999 -105s-94 -98.833 -122 -161.5s-42 -131.334 -42 -206.001c0 -77.333 14.667 -148.333 44 -213
s71 -120.334 125 -167.001s119.333 -83.167 196 -109.5s162.334 -39.5 257.001 -39.5c75.333 0 144.333 8.5 207 25.5s117.334 41.167 164.001 72.5s84.667 69.166 114 113.499s48.666 94.166 57.999 149.499h-546v261h831v-1l1 1c16.667 -80 21.834 -157.833 15.501 -233.5
s-23.666 -147 -51.999 -214s-67.166 -128.5 -116.499 -184.5s-108.333 -104.167 -177 -144.5s-146.667 -71.666 -234 -93.999s-183 -33.5 -287 -33.5c-145.333 0 -275.5 21.333 -390.5 64s-212.5 101 -292.5 175s-141.167 160.667 -183.5 260s-63.5 205.333 -63.5 318z
M1015 1640c-66.667 0 -126.33 9.5 -178.997 28.5s-97.834 45.667 -135.501 80s-67.834 75.333 -90.501 123s-37.334 100.5 -44.001 158.5h227c7.33301 -57.333 30.5 -101.833 69.5 -133.5s89.833 -47.5 152.5 -47.5s113.5 15.833 152.5 47.5s62.167 76.167 69.5 133.5h227
c-6.66699 -58 -21 -110.833 -43 -158.5s-51.667 -88.667 -89 -123s-82.5 -61 -135.5 -80s-113.5 -28.5 -181.5 -28.5z" />
    <glyph glyph-name="gbreve" unicode="&#x11f;" horiz-adv-x="1711" 
d="M370 -200c37.333 -13.333 75.3379 -24.499 114.005 -33.499s76.167 -16.333 112.5 -22s71.166 -9.66699 104.499 -12s63 -3.5 89 -3.5c78.667 0 147.167 9.5 205.5 28.5s107 44.5 146 76.5s68.167 69.167 87.5 111.5s29 87.166 29 134.499v51
c-25.333 -17.333 -55 -34 -89 -50s-71.333 -30 -112 -42s-83.834 -21.667 -129.501 -29s-92.834 -11 -141.501 -11c-96.667 0 -186 14.5 -268 43.5s-153 69.667 -213 122s-106.833 115.166 -140.5 188.499s-50.5 154.666 -50.5 243.999c0 91.333 17.667 174.166 53 248.499
s84.166 137.833 146.499 190.5s136.166 93.334 221.499 122.001s178 43 278 43c42.667 0 85 -2.66699 127 -8s82.167 -12.666 120.5 -21.999s74.333 -20.5 108 -33.5s63.5 -27.167 89.5 -42.5v85h296v-1045c0 -107.333 -16.333 -202.333 -49 -285
s-80.5 -152.167 -143.5 -208.5s-141.167 -99 -234.5 -128s-200.333 -43.5 -321 -43.5c-43.333 0 -88.333 1.83301 -135 5.5s-93.5 9 -140.5 16s-93.333 15.333 -139 25s-89.5 20.834 -131.5 33.501zM425.005 600.001c0 -47.333 9.49805 -91.835 28.498 -133.502
s46.167 -78 81.5 -109s78 -55.333 128 -73s106.333 -26.5 169 -26.5c40.667 0 81.167 3.83301 121.5 11.5s79 18.5 116 32.5s71.667 31 104 51s60.5 42.333 84.5 67v389c-30 24 -61.667 44.333 -95 61s-67.333 30.334 -102 41.001s-69.667 18.5 -105 23.5
s-69.666 7.5 -102.999 7.5c-68 0 -128.5 -9 -181.5 -27s-97.667 -42.5 -134 -73.5s-64.166 -67.167 -83.499 -108.5s-29 -85.666 -29 -132.999zM834.003 1327c-66 0 -125.167 9.5 -177.5 28.5s-97.5 46.167 -135.5 81.5s-68.5 78.333 -91.5 129s-37.833 107.667 -44.5 171
h227c7.33301 -63.333 30.5 -112.666 69.5 -147.999s89.833 -53 152.5 -53s113.5 17.667 152.5 53s62.167 84.666 69.5 147.999h227c-6.66699 -63.333 -21.5 -120.333 -44.5 -171s-53.5 -93.667 -91.5 -129s-83.167 -62.5 -135.5 -81.5s-111.5 -28.5 -177.5 -28.5z" />
    <glyph glyph-name="Gdotaccent" unicode="&#x120;" 
d="M115 796c0 110 20.665 212.833 61.998 308.5s101.666 178.834 180.999 249.501s176.833 126.334 292.5 167.001s248.167 61 397.5 61c54 0 108.167 -2.83301 162.5 -8.5s108 -14.5 161 -26.5s104.667 -27.167 155 -45.5s98.166 -40.166 143.499 -65.499l-146 -240
c-27.333 16 -58.333 30.5 -93 43.5s-71.834 24 -111.501 33s-80.667 15.833 -123 20.5s-84.833 7 -127.5 7c-98.667 0 -186.667 -12.5 -264 -37.5s-142.666 -60 -195.999 -105s-94 -98.833 -122 -161.5s-42 -131.334 -42 -206.001c0 -77.333 14.667 -148.333 44 -213
s71 -120.334 125 -167.001s119.333 -83.167 196 -109.5s162.334 -39.5 257.001 -39.5c75.333 0 144.333 8.5 207 25.5s117.334 41.167 164.001 72.5s84.667 69.166 114 113.499s48.666 94.166 57.999 149.499h-546v261h831v-1l1 1c16.667 -80 21.834 -157.833 15.501 -233.5
s-23.666 -147 -51.999 -214s-67.166 -128.5 -116.499 -184.5s-108.333 -104.167 -177 -144.5s-146.667 -71.666 -234 -93.999s-183 -33.5 -287 -33.5c-145.333 0 -275.5 21.333 -390.5 64s-212.5 101 -292.5 175s-141.167 160.667 -183.5 260s-63.5 205.333 -63.5 318z
M1016 1678c-33.333 0 -63.166 4.66699 -89.499 14s-49 22 -68 38s-33.5 34.667 -43.5 56s-15 44 -15 68c0 24.667 5 47.667 15 69s24.5 40 43.5 56s41.667 28.5 68 37.5s56.166 13.5 89.499 13.5s63.333 -4.5 90 -13.5s49.167 -21.5 67.5 -37.5s32.5 -34.667 42.5 -56
s15 -44.333 15 -69c0 -24 -5 -46.667 -15 -68s-24.167 -40 -42.5 -56s-40.833 -28.667 -67.5 -38s-56.667 -14 -90 -14z" />
    <glyph glyph-name="gdotaccent" unicode="&#x121;" horiz-adv-x="1711" 
d="M370 -200c37.333 -13.333 75.3379 -24.499 114.005 -33.499s76.167 -16.333 112.5 -22s71.166 -9.66699 104.499 -12s63 -3.5 89 -3.5c78.667 0 147.167 9.5 205.5 28.5s107 44.5 146 76.5s68.167 69.167 87.5 111.5s29 87.166 29 134.499v51
c-25.333 -17.333 -55 -34 -89 -50s-71.333 -30 -112 -42s-83.834 -21.667 -129.501 -29s-92.834 -11 -141.501 -11c-96.667 0 -186 14.5 -268 43.5s-153 69.667 -213 122s-106.833 115.166 -140.5 188.499s-50.5 154.666 -50.5 243.999c0 91.333 17.667 174.166 53 248.499
s84.166 137.833 146.499 190.5s136.166 93.334 221.499 122.001s178 43 278 43c42.667 0 85 -2.66699 127 -8s82.167 -12.666 120.5 -21.999s74.333 -20.5 108 -33.5s63.5 -27.167 89.5 -42.5v85h296v-1045c0 -107.333 -16.333 -202.333 -49 -285
s-80.5 -152.167 -143.5 -208.5s-141.167 -99 -234.5 -128s-200.333 -43.5 -321 -43.5c-43.333 0 -88.333 1.83301 -135 5.5s-93.5 9 -140.5 16s-93.333 15.333 -139 25s-89.5 20.834 -131.5 33.501zM425.005 600.001c0 -47.333 9.49805 -91.835 28.498 -133.502
s46.167 -78 81.5 -109s78 -55.333 128 -73s106.333 -26.5 169 -26.5c40.667 0 81.167 3.83301 121.5 11.5s79 18.5 116 32.5s71.667 31 104 51s60.5 42.333 84.5 67v389c-30 24 -61.667 44.333 -95 61s-67.333 30.334 -102 41.001s-69.667 18.5 -105 23.5
s-69.666 7.5 -102.999 7.5c-68 0 -128.5 -9 -181.5 -27s-97.667 -42.5 -134 -73.5s-64.166 -67.167 -83.499 -108.5s-29 -85.666 -29 -132.999zM834.003 1341c-29.333 0 -55.833 4.16699 -79.5 12.5s-43.834 19.666 -60.501 33.999s-29.5 31 -38.5 50
s-13.5 39.167 -13.5 60.5c0 22 4.5 42.5 13.5 61.5s21.833 35.5 38.5 49.5s36.834 25.167 60.501 33.5s50.167 12.5 79.5 12.5c30 0 56.833 -4.16699 80.5 -12.5s43.834 -19.5 60.501 -33.5s29.5 -30.5 38.5 -49.5s13.5 -39.5 13.5 -61.5c0 -21.333 -4.5 -41.5 -13.5 -60.5
s-21.833 -35.667 -38.5 -50s-36.834 -25.666 -60.501 -33.999s-50.5 -12.5 -80.5 -12.5z" />
    <glyph glyph-name="Gcommaaccent" unicode="&#x122;" 
d="M115 796c0 110 20.665 212.833 61.998 308.5s101.666 178.834 180.999 249.501s176.833 126.334 292.5 167.001s248.167 61 397.5 61c54 0 108.167 -2.83301 162.5 -8.5s108 -14.5 161 -26.5s104.667 -27.167 155 -45.5s98.166 -40.166 143.499 -65.499l-146 -240
c-27.333 16 -58.333 30.5 -93 43.5s-71.834 24 -111.501 33s-80.667 15.833 -123 20.5s-84.833 7 -127.5 7c-98.667 0 -186.667 -12.5 -264 -37.5s-142.666 -60 -195.999 -105s-94 -98.833 -122 -161.5s-42 -131.334 -42 -206.001c0 -77.333 14.667 -148.333 44 -213
s71 -120.334 125 -167.001s119.333 -83.167 196 -109.5s162.334 -39.5 257.001 -39.5c75.333 0 144.333 8.5 207 25.5s117.334 41.167 164.001 72.5s84.667 69.166 114 113.499s48.666 94.166 57.999 149.499h-546v261h831v-1l1 1c16.667 -80 21.834 -157.833 15.501 -233.5
s-23.666 -147 -51.999 -214s-67.166 -128.5 -116.499 -184.5s-108.333 -104.167 -177 -144.5s-146.667 -71.666 -234 -93.999s-183 -33.5 -287 -33.5c-145.333 0 -275.5 21.333 -390.5 64s-212.5 101 -292.5 175s-141.167 160.667 -183.5 260s-63.5 205.333 -63.5 318z
M819.998 -205c0 44 16.8311 78.002 50.498 102.002s81.5 36 143.5 36c31.333 0 59.666 -3.5 84.999 -10.5s47 -17.5 65 -31.5s31.833 -32 41.5 -54s14.5 -48 14.5 -78c0 -56.667 -24.167 -109.334 -72.5 -158.001s-118.166 -92.334 -209.499 -131.001l-89 112
c16.667 9.33301 31.334 18 44.001 26s24 16 34 24s18.833 16.167 26.5 24.5s14.5 17.833 20.5 28.5c-28 0 -51.667 3.33301 -71 10s-35.166 15.167 -47.499 25.5s-21.333 22 -27 35s-8.5 26.167 -8.5 39.5z" />
    <glyph glyph-name="gcommaaccent" unicode="&#x123;" horiz-adv-x="1711" 
d="M370 -200c37.333 -13.333 75.3379 -24.499 114.005 -33.499s76.167 -16.333 112.5 -22s71.166 -9.66699 104.499 -12s63 -3.5 89 -3.5c78.667 0 147.167 9.5 205.5 28.5s107 44.5 146 76.5s68.167 69.167 87.5 111.5s29 87.166 29 134.499v51
c-25.333 -17.333 -55 -34 -89 -50s-71.333 -30 -112 -42s-83.834 -21.667 -129.501 -29s-92.834 -11 -141.501 -11c-96.667 0 -186 14.5 -268 43.5s-153 69.667 -213 122s-106.833 115.166 -140.5 188.499s-50.5 154.666 -50.5 243.999c0 91.333 17.667 174.166 53 248.499
s84.166 137.833 146.499 190.5s136.166 93.334 221.499 122.001s178 43 278 43c42.667 0 85 -2.66699 127 -8s82.167 -12.666 120.5 -21.999s74.333 -20.5 108 -33.5s63.5 -27.167 89.5 -42.5v85h296v-1045c0 -107.333 -16.333 -202.333 -49 -285
s-80.5 -152.167 -143.5 -208.5s-141.167 -99 -234.5 -128s-200.333 -43.5 -321 -43.5c-43.333 0 -88.333 1.83301 -135 5.5s-93.5 9 -140.5 16s-93.333 15.333 -139 25s-89.5 20.834 -131.5 33.501zM425.005 600.001c0 -47.333 9.49805 -91.835 28.498 -133.502
s46.167 -78 81.5 -109s78 -55.333 128 -73s106.333 -26.5 169 -26.5c40.667 0 81.167 3.83301 121.5 11.5s79 18.5 116 32.5s71.667 31 104 51s60.5 42.333 84.5 67v389c-30 24 -61.667 44.333 -95 61s-67.333 30.334 -102 41.001s-69.667 18.5 -105 23.5
s-69.666 7.5 -102.999 7.5c-68 0 -128.5 -9 -181.5 -27s-97.667 -42.5 -134 -73.5s-64.166 -67.167 -83.499 -108.5s-29 -85.666 -29 -132.999zM651.003 1591c0 44 16.8311 78.002 50.498 102.002s81.5 36 143.5 36c31.333 0 59.666 -3.5 84.999 -10.5s47 -17.5 65 -31.5
s31.833 -32 41.5 -54s14.5 -48 14.5 -78c0 -56.667 -24.167 -109.334 -72.5 -158.001s-118.166 -92.334 -209.499 -131.001l-89 112c16.667 9.33301 31.334 18 44.001 26s24 16 34 24s18.833 16.167 26.5 24.5s14.5 17.833 20.5 28.5c-28 0 -51.667 3.33301 -71 10
s-35.166 15.167 -47.499 25.5s-21.333 22 -27 35s-8.5 26.167 -8.5 39.5z" />
    <glyph glyph-name="Hcircumflex" unicode="&#x124;" horiz-adv-x="2050" 
d="M221 1563h317v-408h972v408h318v-1563h-318v884h-972v-884h-317v1563zM567 1823l457 207l457 -207l-109 -214l-348 163l-348 -163z" />
    <glyph glyph-name="hcircumflex" unicode="&#x125;" horiz-adv-x="1723" 
d="M185 1658l296.003 0.00390625v-568c62 34 131.167 61 207.5 81s156.5 30 240.5 30c97.333 0 184.833 -14.333 262.5 -43s143.5 -69.834 197.5 -123.501s95.5 -118.834 124.5 -195.501s43.5 -163 43.5 -259v-580h-295v568c0 56 -9 107.167 -27 153.5
s-44.333 86.166 -79 119.499s-76.834 59.166 -126.501 77.499s-105.834 27.5 -168.501 27.5c-75.333 0 -145.333 -12 -210 -36s-121.334 -54.333 -170.001 -91v-819h-296v1658zM404.003 1823l457 207l457 -207l-109 -214l-348 163l-348 -163z" />
    <glyph glyph-name="Hbar" unicode="&#x126;" horiz-adv-x="2050" 
d="M221 912h-166v243h166v408h317v-408h972v408h318v-408h143v-243h-143v-912h-318v443h-972v-443h-317v912zM1510 714v198h-972v-198h972z" />
    <glyph glyph-name="hbar" unicode="&#x127;" horiz-adv-x="1703" 
d="M19 1497h681v-214h-681v214zM185 1658l296.003 0.00390625v-568c62 34 131.167 61 207.5 81s156.5 30 240.5 30c97.333 0 184.833 -14.333 262.5 -43s143.5 -69.834 197.5 -123.501s95.5 -118.834 124.5 -195.501s43.5 -163 43.5 -259v-580h-295v568
c0 56 -9 107.167 -27 153.5s-44.333 86.166 -79 119.499s-76.834 59.166 -126.501 77.499s-105.834 27.5 -168.501 27.5c-75.333 0 -145.333 -12 -210 -36s-121.334 -54.333 -170.001 -91v-819h-296v1658z" />
    <glyph glyph-name="Itilde" unicode="&#x128;" horiz-adv-x="683" 
d="M182 1563h319v-1563h-319v1563zM-106 1913c36 38 76.333 67 121 87s91 30 139 30c42 0 79 -6.5 111 -19.5s62.333 -27.333 91 -43s56.667 -30 84 -43s57.333 -19.5 90 -19.5c20 0 41.833 2.83301 65.5 8.5s47.167 13.5 70.5 23.5s45.833 22 67.5 36s40.5 29 56.5 45v-240
c-36 -38 -76.333 -67 -121 -87s-91 -30 -139 -30c-42 0 -79 6.5 -111 19.5s-62.333 27.333 -91 43s-56.667 30 -84 43s-57.333 19.5 -90 19.5c-20 0 -41.833 -2.83301 -65.5 -8.5s-47.167 -13.5 -70.5 -23.5s-45.833 -22 -67.5 -36s-40.5 -29 -56.5 -45v240z" />
    <glyph glyph-name="itilde" unicode="&#x129;" horiz-adv-x="683" 
d="M111 1677c5.33301 36 19.332 62.835 41.999 80.502s49 26.5 79 26.5c21.333 0 40 -3.16699 56 -9.5s30.5 -14 43.5 -23s24.833 -19 35.5 -30s21.5 -21 32.5 -30s22.667 -16.667 35 -23s26.5 -9.5 42.5 -9.5c8 0 17.833 1.5 29.5 4.5s23.334 8.16699 35.001 15.5
s22.167 17.666 31.5 30.999s16 30.666 20 51.999v-255c-5.33301 -28 -17.666 -52.167 -36.999 -72.5s-47.333 -30.5 -84 -30.5c-31.333 0 -57.333 6.5 -78 19.5s-39.167 27.333 -55.5 43s-32.5 30 -48.5 43s-35 19.5 -57 19.5c-30.667 0 -57.334 -9.16699 -80.001 -27.5
s-36.667 -43.5 -42 -75.5v251zM192.999 1180h296v-1180h-296v1180z" />
    <glyph glyph-name="Imacron" unicode="&#x12a;" horiz-adv-x="683" 
d="M182 1563h319v-1563h-319v1563zM-55 2013h793v-243h-793v243z" />
    <glyph glyph-name="imacron" unicode="&#x12b;" horiz-adv-x="683" 
d="M85 1690h513v-243h-513v243zM193 1180h296v-1180h-296v1180z" />
    <glyph glyph-name="Ibreve" unicode="&#x12c;" horiz-adv-x="683" 
d="M182 1563h319v-1563h-319v1563zM341 1640c-66.667 0 -126.33 9.5 -178.997 28.5s-97.834 45.667 -135.501 80s-67.834 75.333 -90.501 123s-37.334 100.5 -44.001 158.5h227c7.33301 -57.333 30.5 -101.833 69.5 -133.5s89.833 -47.5 152.5 -47.5
s113.5 15.833 152.5 47.5s62.167 76.167 69.5 133.5h227c-6.66699 -58 -21 -110.833 -43 -158.5s-51.667 -88.667 -89 -123s-82.5 -61 -135.5 -80s-113.5 -28.5 -181.5 -28.5z" />
    <glyph glyph-name="ibreve" unicode="&#x12d;" horiz-adv-x="683" 
d="M193 1180h296v-1180h-296v1180zM343 1327c-66 0 -125.167 9.5 -177.5 28.5s-97.5 46.167 -135.5 81.5s-68.5 78.333 -91.5 129s-37.833 107.667 -44.5 171h227c7.33301 -63.333 30.5 -112.666 69.5 -147.999s89.833 -53 152.5 -53s113.5 17.667 152.5 53
s62.167 84.666 69.5 147.999h227c-6.66699 -63.333 -21.5 -120.333 -44.5 -171s-53.5 -93.667 -91.5 -129s-83.167 -62.5 -135.5 -81.5s-111.5 -28.5 -177.5 -28.5z" />
    <glyph glyph-name="Iogonek" unicode="&#x12e;" horiz-adv-x="683" 
d="M401 65l99.999 -64.999c-64 -16.667 -116.333 -34.5 -157 -53.5s-72.5 -38.333 -95.5 -58s-38.833 -38.834 -47.5 -57.501s-13 -36 -13 -52c0 -25.333 8.83301 -46.5 26.5 -63.5s46.834 -25.5 87.501 -25.5c28 0 55.667 4.16699 83 12.5s55 19.833 83 34.5l77 -188
c-50.667 -25.333 -102 -44.833 -154 -58.5s-104.333 -20.5 -157 -20.5c-53.333 0 -100 6.66699 -140 20s-73.5 31.166 -100.5 53.499s-47.167 48.333 -60.5 78s-20 60.5 -20 92.5c0 27.333 5.33301 55.333 16 84s28.167 57.834 52.5 87.501s56.5 59.5 96.5 89.5
s89.333 60 148 90h175zM181.999 1563h319v-1563h-319v1563z" />
    <glyph glyph-name="iogonek" unicode="&#x12f;" horiz-adv-x="683" 
d="M341 1341c-29.333 0 -55.833 4.16699 -79.5 12.5s-43.834 19.666 -60.501 33.999s-29.5 31 -38.5 50s-13.5 39.167 -13.5 60.5c0 22 4.5 42.5 13.5 61.5s21.833 35.5 38.5 49.5s36.834 25.167 60.501 33.5s50.167 12.5 79.5 12.5c30 0 56.833 -4.16699 80.5 -12.5
s43.834 -19.5 60.501 -33.5s29.5 -30.5 38.5 -49.5s13.5 -39.5 13.5 -61.5c0 -21.333 -4.5 -41.5 -13.5 -60.5s-21.833 -35.667 -38.5 -50s-36.834 -25.666 -60.501 -33.999s-50.5 -12.5 -80.5 -12.5zM193 1180l296.001 -0.00195312v-1180
c-65.333 -17.333 -118.333 -35.5 -159 -54.5s-72.334 -38.333 -95.001 -58s-38.167 -39 -46.5 -58s-12.5 -36.5 -12.5 -52.5c0 -24 8.83301 -44.5 26.5 -61.5s47.834 -25.5 90.501 -25.5c25.333 0 51.833 4.16699 79.5 12.5s55.5 19.833 83.5 34.5l77 -188
c-52 -26.667 -104.667 -46.5 -158 -59.5s-101 -19.5 -143 -19.5c-58 0 -108 6.83301 -150 20.5s-76.333 31.834 -103 54.501s-46.334 48.334 -59.001 77.001s-19 57.667 -19 87c0 28 4.83301 56.333 14.5 85s25.834 57.5 48.501 86.5s52.667 58.167 90 87.5
s83.666 59 138.999 89v1123z" />
    <glyph glyph-name="Idotaccent" unicode="&#x130;" horiz-adv-x="683" 
d="M182 1563h319v-1563h-319v1563zM342 1678c-33.333 0 -63.166 4.66699 -89.499 14s-49 22 -68 38s-33.5 34.667 -43.5 56s-15 44 -15 68c0 24.667 5 47.667 15 69s24.5 40 43.5 56s41.667 28.5 68 37.5s56.166 13.5 89.499 13.5s63.333 -4.5 90 -13.5
s49.167 -21.5 67.5 -37.5s32.5 -34.667 42.5 -56s15 -44.333 15 -69c0 -24 -5 -46.667 -15 -68s-24.167 -40 -42.5 -56s-40.833 -28.667 -67.5 -38s-56.667 -14 -90 -14z" />
    <glyph glyph-name="dotlessi" unicode="&#x131;" horiz-adv-x="683" 
d="M193 1180h296v-1180h-296v1180z" />
    <glyph glyph-name="IJ" unicode="&#x132;" horiz-adv-x="1366" 
d="M182 1563h319v-1563h-319v1563zM604 -259c46 28 85.501 57.333 118.501 88s60.167 64.5 81.5 101.5s37 78.333 47 124s15 97.5 15 155.5v1353h317v-1296c0 -69.333 -3 -132.5 -9 -189.5s-15.833 -109.333 -29.5 -157s-32 -91.5 -55 -131.5s-51.333 -78 -85 -114
s-73.334 -70.667 -119.001 -104s-98.5 -67 -158.5 -101z" />
    <glyph glyph-name="ij" unicode="&#x133;" horiz-adv-x="1366" 
d="M341 1341c-29.333 0 -55.833 4.16699 -79.5 12.5s-43.834 19.666 -60.501 33.999s-29.5 31 -38.5 50s-13.5 39.167 -13.5 60.5c0 22 4.5 42.5 13.5 61.5s21.833 35.5 38.5 49.5s36.834 25.167 60.501 33.5s50.167 12.5 79.5 12.5c30 0 56.833 -4.16699 80.5 -12.5
s43.834 -19.5 60.501 -33.5s29.5 -30.5 38.5 -49.5s13.5 -39.5 13.5 -61.5c0 -21.333 -4.5 -41.5 -13.5 -60.5s-21.833 -35.667 -38.5 -50s-36.834 -25.666 -60.501 -33.999s-50.5 -12.5 -80.5 -12.5zM193 1180h296v-1180h-296v1180zM1024 1341
c-29.333 0 -55.833 4.16699 -79.5 12.5s-43.834 19.666 -60.501 33.999s-29.5 31 -38.5 50s-13.5 39.167 -13.5 60.5c0 22 4.5 42.5 13.5 61.5s21.833 35.5 38.5 49.5s36.834 25.167 60.501 33.5s50.167 12.5 79.5 12.5c30 0 56.833 -4.16699 80.5 -12.5
s43.834 -19.5 60.501 -33.5s29.5 -30.5 38.5 -49.5s13.5 -39.5 13.5 -61.5c0 -21.333 -4.5 -41.5 -13.5 -60.5s-21.833 -35.667 -38.5 -50s-36.834 -25.666 -60.501 -33.999s-50.5 -12.5 -80.5 -12.5zM876 1180l296.002 0.000976562v-1003
c0 -58.667 -2.5 -111.834 -7.5 -159.501s-13.333 -91.834 -25 -132.501s-27.334 -78.667 -47.001 -114s-44.167 -69.333 -73.5 -102s-64.333 -65.167 -105 -97.5s-87.667 -66.166 -141 -101.499l-109 251c41.333 30.667 75.666 61 102.999 91s49 61.333 65 94
s27.333 67.667 34 105s10 78.333 10 123v1046z" />
    <glyph glyph-name="Jcircumflex" unicode="&#x134;" horiz-adv-x="683" 
d="M-79 -259c46 28 85.501 57.333 118.501 88s60.167 64.5 81.5 101.5s37 78.333 47 124s15 97.5 15 155.5v1353h317v-1296c0 -69.333 -3 -132.5 -9 -189.5s-15.833 -109.333 -29.5 -157s-32 -91.5 -55 -131.5s-51.333 -78 -85 -114s-73.334 -70.667 -119.001 -104
s-98.5 -67 -158.5 -101zM-115.999 1823l457 207l457 -207l-109 -214l-348 163l-348 -163z" />
    <glyph glyph-name="jcircumflex" unicode="&#x135;" horiz-adv-x="683" 
d="M193 1180l296.002 0.000976562v-1003c0 -58.667 -2.5 -111.834 -7.5 -159.501s-13.333 -91.834 -25 -132.501s-27.334 -78.667 -47.001 -114s-44.167 -69.333 -73.5 -102s-64.333 -65.167 -105 -97.5s-87.667 -66.166 -141 -101.499l-109 251
c41.333 30.667 75.666 61 102.999 91s49 61.333 65 94s27.333 67.667 34 105s10 78.333 10 123v1046zM-129.998 1535l471 355l471 -355l-140 -184l-331 250l-331 -250z" />
    <glyph glyph-name="Kcommaaccent" unicode="&#x136;" horiz-adv-x="1704" 
d="M222 1563h317v-809l825 809h406l-770 -746l770 -817h-422l-576 596l-233 -225v-371h-317v1563zM648 -205c0 44 16.8311 78.002 50.498 102.002s81.5 36 143.5 36c31.333 0 59.666 -3.5 84.999 -10.5s47 -17.5 65 -31.5s31.833 -32 41.5 -54s14.5 -48 14.5 -78
c0 -56.667 -24.167 -109.334 -72.5 -158.001s-118.166 -92.334 -209.499 -131.001l-89 112c16.667 9.33301 31.334 18 44.001 26s24 16 34 24s18.833 16.167 26.5 24.5s14.5 17.833 20.5 28.5c-28 0 -51.667 3.33301 -71 10s-35.166 15.167 -47.499 25.5s-21.333 22 -27 35
s-8.5 26.167 -8.5 39.5z" />
    <glyph glyph-name="kcommaaccent" unicode="&#x137;" horiz-adv-x="1536" 
d="M186 1659h296v-980l552 501h453l-617 -552l656 -628h-444l-439 425l-161 -144v-281h-296v1659zM545 -205c0 44 16.8311 78.002 50.498 102.002s81.5 36 143.5 36c31.333 0 59.666 -3.5 84.999 -10.5s47 -17.5 65 -31.5s31.833 -32 41.5 -54s14.5 -48 14.5 -78
c0 -56.667 -24.167 -109.334 -72.5 -158.001s-118.166 -92.334 -209.499 -131.001l-89 112c16.667 9.33301 31.334 18 44.001 26s24 16 34 24s18.833 16.167 26.5 24.5s14.5 17.833 20.5 28.5c-28 0 -51.667 3.33301 -71 10s-35.166 15.167 -47.499 25.5s-21.333 22 -27 35
s-8.5 26.167 -8.5 39.5z" />
    <glyph glyph-name="kgreenlandic" unicode="&#x138;" horiz-adv-x="1536" 
d="M186 1180h296v-501l552 501h453l-617 -552l656 -628h-444l-439 425l-161 -144v-281h-296v1180z" />
    <glyph glyph-name="Lacute" unicode="&#x139;" horiz-adv-x="1533" 
d="M222 1563h317v-1285h909v-278h-1226v1563zM524 1841l674 189l70 -248l-682 -159z" />
    <glyph glyph-name="lacute" unicode="&#x13a;" horiz-adv-x="683" 
d="M4 1788l576 232l111 -229l-588 -210zM193 1510h296v-1510h-296v1510z" />
    <glyph glyph-name="Lcommaaccent" unicode="&#x13b;" horiz-adv-x="1533" 
d="M222 1563h317v-1285h909v-278h-1226v1563zM562 -205c0 44 16.8311 78.002 50.498 102.002s81.5 36 143.5 36c31.333 0 59.666 -3.5 84.999 -10.5s47 -17.5 65 -31.5s31.833 -32 41.5 -54s14.5 -48 14.5 -78c0 -56.667 -24.167 -109.334 -72.5 -158.001
s-118.166 -92.334 -209.499 -131.001l-89 112c16.667 9.33301 31.334 18 44.001 26s24 16 34 24s18.833 16.167 26.5 24.5s14.5 17.833 20.5 28.5c-28 0 -51.667 3.33301 -71 10s-35.166 15.167 -47.499 25.5s-21.333 22 -27 35s-8.5 26.167 -8.5 39.5z" />
    <glyph glyph-name="lcommaaccent" unicode="&#x13c;" horiz-adv-x="683" 
d="M193 1659h296v-1659h-296v1659zM146 -205c0 44 16.8311 78.002 50.498 102.002s81.5 36 143.5 36c31.333 0 59.666 -3.5 84.999 -10.5s47 -17.5 65 -31.5s31.833 -32 41.5 -54s14.5 -48 14.5 -78c0 -56.667 -24.167 -109.334 -72.5 -158.001
s-118.166 -92.334 -209.499 -131.001l-89 112c16.667 9.33301 31.334 18 44.001 26s24 16 34 24s18.833 16.167 26.5 24.5s14.5 17.833 20.5 28.5c-28 0 -51.667 3.33301 -71 10s-35.166 15.167 -47.499 25.5s-21.333 22 -27 35s-8.5 26.167 -8.5 39.5z" />
    <glyph glyph-name="Lcaron" unicode="&#x13d;" horiz-adv-x="1533" 
d="M222 1563h317v-1285h909v-278h-1226v1563zM812 1694l266 -35l-103 -567l-235 34z" />
    <glyph glyph-name="lcaron" unicode="&#x13e;" horiz-adv-x="853" 
d="M193 1659h296v-1659h-296v1659zM682 1694l266 -35l-103 -567l-235 34z" />
    <glyph glyph-name="Ldot" unicode="&#x13f;" horiz-adv-x="1533" 
d="M222 1563h317v-1285h909v-278h-1226v1563zM954 1052c0 26.667 5.5 51.834 16.5 75.501s26.833 44.334 47.5 62.001s45.667 31.5 75 41.5s62.333 15 99 15s69.667 -5 99 -15s54.166 -23.833 74.499 -41.5s36 -38.334 47 -62.001s16.5 -48.834 16.5 -75.501
s-5.5 -51.834 -16.5 -75.501s-26.667 -44.167 -47 -61.5s-45.166 -31.166 -74.499 -41.499s-62.333 -15.5 -99 -15.5s-69.667 5.16699 -99 15.5s-54.333 24.166 -75 41.499s-36.5 37.833 -47.5 61.5s-16.5 48.834 -16.5 75.501z" />
    <glyph glyph-name="ldot" unicode="&#x140;" horiz-adv-x="1541" 
d="M193 1659h296v-1659h-296v1659zM874 818c0 26.667 5.5 51.834 16.5 75.501s26.833 44.334 47.5 62.001s45.667 31.5 75 41.5s62.333 15 99 15s69.667 -5 99 -15s54.166 -23.833 74.499 -41.5s36 -38.334 47 -62.001s16.5 -48.834 16.5 -75.501
s-5.5 -51.834 -16.5 -75.501s-26.667 -44.167 -47 -61.5s-45.166 -31.166 -74.499 -41.499s-62.333 -15.5 -99 -15.5s-69.667 5.16699 -99 15.5s-54.333 24.166 -75 41.499s-36.5 37.833 -47.5 61.5s-16.5 48.834 -16.5 75.501z" />
    <glyph glyph-name="Lslash" unicode="&#x141;" horiz-adv-x="1533" 
d="M-64 718l981 447l92 -202l-981 -447zM222 1563h317v-1285h909v-278h-1226v1563z" />
    <glyph glyph-name="lslash" unicode="&#x142;" horiz-adv-x="1016" 
d="M40 759l854 384l89 -203l-854 -385zM363 1659h296v-1659h-296v1659z" />
    <glyph glyph-name="Nacute" unicode="&#x143;" 
d="M220 1563h317l974 -510v510h317v-1563h-317v717l-974 507v-1224h-317v1563zM652 1841l674 189l70 -248l-682 -159z" />
    <glyph glyph-name="nacute" unicode="&#x144;" horiz-adv-x="1723" 
d="M185 1180l295.997 -0.00195312v-100c78.667 44.667 153.834 76 225.501 94s141.834 27 210.501 27c90 0 173.333 -13.167 250 -39.5s143 -65.5 199 -117.5s99.833 -116.833 131.5 -194.5s47.5 -167.5 47.5 -269.5v-580h-295v532c0 64.667 -9.16699 122.5 -27.5 173.5
s-44.666 94 -78.999 129s-76 61.667 -125 80s-103.833 27.5 -164.5 27.5c-32 0 -64.833 -3.33301 -98.5 -10s-66.667 -16.167 -99 -28.5s-63.5 -27.666 -93.5 -45.999s-57.333 -39.166 -82 -62.499v-795h-296v1180zM466.997 1528l686 321l111 -229l-698 -299z" />
    <glyph glyph-name="Ncommaaccent" unicode="&#x145;" 
d="M220 1563h317l974 -510v510h317v-1563h-317v717l-974 507v-1224h-317v1563zM820 -205c0 44 16.8311 78.002 50.498 102.002s81.5 36 143.5 36c31.333 0 59.666 -3.5 84.999 -10.5s47 -17.5 65 -31.5s31.833 -32 41.5 -54s14.5 -48 14.5 -78
c0 -56.667 -24.167 -109.334 -72.5 -158.001s-118.166 -92.334 -209.499 -131.001l-89 112c16.667 9.33301 31.334 18 44.001 26s24 16 34 24s18.833 16.167 26.5 24.5s14.5 17.833 20.5 28.5c-28 0 -51.667 3.33301 -71 10s-35.166 15.167 -47.499 25.5s-21.333 22 -27 35
s-8.5 26.167 -8.5 39.5z" />
    <glyph glyph-name="ncommaaccent" unicode="&#x146;" horiz-adv-x="1723" 
d="M185 1180l295.997 -0.00195312v-100c78.667 44.667 153.834 76 225.501 94s141.834 27 210.501 27c90 0 173.333 -13.167 250 -39.5s143 -65.5 199 -117.5s99.833 -116.833 131.5 -194.5s47.5 -167.5 47.5 -269.5v-580h-295v532c0 64.667 -9.16699 122.5 -27.5 173.5
s-44.666 94 -78.999 129s-76 61.667 -125 80s-103.833 27.5 -164.5 27.5c-32 0 -64.833 -3.33301 -98.5 -10s-66.667 -16.167 -99 -28.5s-63.5 -27.666 -93.5 -45.999s-57.333 -39.166 -82 -62.499v-795h-296v1180zM656.997 -205.002c0 44 16.8311 78.002 50.498 102.002
s81.5 36 143.5 36c31.333 0 59.666 -3.5 84.999 -10.5s47 -17.5 65 -31.5s31.833 -32 41.5 -54s14.5 -48 14.5 -78c0 -56.667 -24.167 -109.334 -72.5 -158.001s-118.166 -92.334 -209.499 -131.001l-89 112c16.667 9.33301 31.334 18 44.001 26s24 16 34 24
s18.833 16.167 26.5 24.5s14.5 17.833 20.5 28.5c-28 0 -51.667 3.33301 -71 10s-35.166 15.167 -47.499 25.5s-21.333 22 -27 35s-8.5 26.167 -8.5 39.5z" />
    <glyph glyph-name="Ncaron" unicode="&#x147;" 
d="M220 1563h317l974 -510v510h317v-1563h-317v717l-974 507v-1224h-317v1563zM585 1823l112 207l327 -164l327 164l112 -207l-439 -218z" />
    <glyph glyph-name="ncaron" unicode="&#x148;" horiz-adv-x="1723" 
d="M185 1180l295.997 -0.00195312v-100c78.667 44.667 153.834 76 225.501 94s141.834 27 210.501 27c90 0 173.333 -13.167 250 -39.5s143 -65.5 199 -117.5s99.833 -116.833 131.5 -194.5s47.5 -167.5 47.5 -269.5v-580h-295v532c0 64.667 -9.16699 122.5 -27.5 173.5
s-44.666 94 -78.999 129s-76 61.667 -125 80s-103.833 27.5 -164.5 27.5c-32 0 -64.833 -3.33301 -98.5 -10s-66.667 -16.167 -99 -28.5s-63.5 -27.666 -93.5 -45.999s-57.333 -39.166 -82 -62.499v-795h-296v1180zM425.997 1679l140 175l299 -229l299 229l140 -175
l-439 -334z" />
    <glyph glyph-name="Eng" unicode="&#x14a;" 
d="M220 1563h317l974 -510v510h317v-1292c0 -69.333 -3 -132.666 -9 -189.999s-16 -109.833 -30 -157.5s-32.5 -91.834 -55.5 -132.501s-51.5 -79 -85.5 -115s-74 -70.833 -120 -104.5s-99 -67.5 -159 -101.5l-133 251c46 28 86.167 58.667 120.5 92s63 70 86 110
s40.167 84 51.5 132s17 101 17 159v503l-974 507v-1224h-317v1563z" />
    <glyph glyph-name="eng" unicode="&#x14b;" horiz-adv-x="1723" 
d="M185 1180l295.996 -0.000976562v-100c78.667 44.667 153.834 76 225.501 94s141.834 27 210.501 27c90 0 173.333 -13.167 250 -39.5s142.834 -65.5 198.501 -117.5s99.334 -116.833 131.001 -194.5s47.834 -167.5 48.501 -269.5l1 -268v-135
c0 -58.667 -2.5 -111.834 -7.5 -159.501s-13.333 -91.834 -25 -132.501s-27.334 -78.667 -47.001 -114s-44.167 -69.333 -73.5 -102s-64.333 -65.167 -105 -97.5s-87.667 -66.166 -141 -101.499l-109 251c41.333 30.667 75.666 61 102.999 91s49 61.333 65 94
s27.333 67.667 34 105s10 78.333 10 123v398c0 64.667 -9.16699 122.5 -27.5 173.5s-44.666 94 -78.999 129s-76 61.667 -125 80s-103.833 27.5 -164.5 27.5c-32 0 -64.833 -3.33301 -98.5 -10s-66.667 -16.167 -99 -28.5s-63.5 -27.666 -93.5 -45.999
s-57.333 -39.166 -82 -62.499v-795h-296v1180z" />
    <glyph glyph-name="Omacron" unicode="&#x14c;" 
d="M130 786c0 118 21.667 226 65 324s104.166 182.167 182.499 252.5s172.333 124.833 282 163.5s231.167 58 364.5 58c132.667 0 254 -19.333 364 -58s204.167 -93.167 282.5 -163.5s139.166 -154.5 182.499 -252.5s65 -206 65 -324c0 -118.667 -21.667 -227.5 -65 -326.5
s-104.166 -184.167 -182.499 -255.5s-172.5 -126.833 -282.5 -166.5s-231.333 -59.5 -364 -59.5c-133.333 0 -254.833 19.833 -364.5 59.5s-203.667 95.167 -282 166.5s-139.166 156.5 -182.499 255.5s-65 207.833 -65 326.5zM447 786
c0 -80.667 14.5 -153.334 43.5 -218.001s69.333 -119.834 121 -165.501s112.667 -80.834 183 -105.501s146.833 -37 229.5 -37s159.167 12.333 229.5 37s131.166 59.834 182.499 105.501s91.666 100.834 120.999 165.501s44 137.334 44 218.001s-14.667 153 -44 217
s-69.666 118.167 -120.999 162.5s-112.166 78.166 -182.499 101.499s-146.833 35 -229.5 35s-159.167 -11.667 -229.5 -35s-131.333 -57.166 -183 -101.499s-92 -98.5 -121 -162.5s-43.5 -136.333 -43.5 -217zM628 2013h793v-243h-793v243z" />
    <glyph glyph-name="omacron" unicode="&#x14d;" horiz-adv-x="1696" 
d="M114 590c0 84.667 17.167 164 51.5 238s83.333 138.667 147 194s140.667 99 231 131s191.833 48 304.5 48s214.167 -16 304.5 -48s167.333 -75.667 231 -131s112.667 -120 147 -194s51.5 -153.333 51.5 -238s-17.167 -164 -51.5 -238s-83.333 -138.667 -147 -194
s-140.667 -99 -231 -131s-191.833 -48 -304.5 -48s-214.167 16 -304.5 48s-167.333 75.667 -231 131s-112.667 120 -147 194s-51.5 153.333 -51.5 238zM425 590c0 -47.333 9.5 -92.166 28.5 -134.499s46.667 -79.666 83 -111.999s80.666 -58 132.999 -77
s111.833 -28.5 178.5 -28.5s126.167 9.5 178.5 28.5s96.666 44.667 132.999 77s64 69.666 83 111.999s28.5 87.166 28.5 134.499s-9.5 92.333 -28.5 135s-46.667 80.167 -83 112.5s-80.666 58 -132.999 77s-111.833 28.5 -178.5 28.5s-126.167 -9.5 -178.5 -28.5
s-96.666 -44.667 -132.999 -77s-64 -69.833 -83 -112.5s-28.5 -87.667 -28.5 -135zM352 1690h993v-243h-993v243z" />
    <glyph glyph-name="Obreve" unicode="&#x14e;" 
d="M130 786c0 118 21.667 226 65 324s104.166 182.167 182.499 252.5s172.333 124.833 282 163.5s231.167 58 364.5 58c132.667 0 254 -19.333 364 -58s204.167 -93.167 282.5 -163.5s139.166 -154.5 182.499 -252.5s65 -206 65 -324c0 -118.667 -21.667 -227.5 -65 -326.5
s-104.166 -184.167 -182.499 -255.5s-172.5 -126.833 -282.5 -166.5s-231.333 -59.5 -364 -59.5c-133.333 0 -254.833 19.833 -364.5 59.5s-203.667 95.167 -282 166.5s-139.166 156.5 -182.499 255.5s-65 207.833 -65 326.5zM447 786
c0 -80.667 14.5 -153.334 43.5 -218.001s69.333 -119.834 121 -165.501s112.667 -80.834 183 -105.501s146.833 -37 229.5 -37s159.167 12.333 229.5 37s131.166 59.834 182.499 105.501s91.666 100.834 120.999 165.501s44 137.334 44 218.001s-14.667 153 -44 217
s-69.666 118.167 -120.999 162.5s-112.166 78.166 -182.499 101.499s-146.833 35 -229.5 35s-159.167 -11.667 -229.5 -35s-131.333 -57.166 -183 -101.499s-92 -98.5 -121 -162.5s-43.5 -136.333 -43.5 -217zM1024 1640c-66.667 0 -126.33 9.5 -178.997 28.5
s-97.834 45.667 -135.501 80s-67.834 75.333 -90.501 123s-37.334 100.5 -44.001 158.5h227c7.33301 -57.333 30.5 -101.833 69.5 -133.5s89.833 -47.5 152.5 -47.5s113.5 15.833 152.5 47.5s62.167 76.167 69.5 133.5h227c-6.66699 -58 -21 -110.833 -43 -158.5
s-51.667 -88.667 -89 -123s-82.5 -61 -135.5 -80s-113.5 -28.5 -181.5 -28.5z" />
    <glyph glyph-name="obreve" unicode="&#x14f;" horiz-adv-x="1696" 
d="M114 590c0 84.667 17.167 164 51.5 238s83.333 138.667 147 194s140.667 99 231 131s191.833 48 304.5 48s214.167 -16 304.5 -48s167.333 -75.667 231 -131s112.667 -120 147 -194s51.5 -153.333 51.5 -238s-17.167 -164 -51.5 -238s-83.333 -138.667 -147 -194
s-140.667 -99 -231 -131s-191.833 -48 -304.5 -48s-214.167 16 -304.5 48s-167.333 75.667 -231 131s-112.667 120 -147 194s-51.5 153.333 -51.5 238zM425 590c0 -47.333 9.5 -92.166 28.5 -134.499s46.667 -79.666 83 -111.999s80.666 -58 132.999 -77
s111.833 -28.5 178.5 -28.5s126.167 9.5 178.5 28.5s96.666 44.667 132.999 77s64 69.666 83 111.999s28.5 87.166 28.5 134.499s-9.5 92.333 -28.5 135s-46.667 80.167 -83 112.5s-80.666 58 -132.999 77s-111.833 28.5 -178.5 28.5s-126.167 -9.5 -178.5 -28.5
s-96.666 -44.667 -132.999 -77s-64 -69.833 -83 -112.5s-28.5 -87.667 -28.5 -135zM848 1327c-66 0 -125.167 9.5 -177.5 28.5s-97.5 46.167 -135.5 81.5s-68.5 78.333 -91.5 129s-37.833 107.667 -44.5 171h227c7.33301 -63.333 30.5 -112.666 69.5 -147.999
s89.833 -53 152.5 -53s113.5 17.667 152.5 53s62.167 84.666 69.5 147.999h227c-6.66699 -63.333 -21.5 -120.333 -44.5 -171s-53.5 -93.667 -91.5 -129s-83.167 -62.5 -135.5 -81.5s-111.5 -28.5 -177.5 -28.5z" />
    <glyph glyph-name="Ohungarumlaut" unicode="&#x150;" 
d="M130 786c0 118 21.667 226 65 324s104.166 182.167 182.499 252.5s172.333 124.833 282 163.5s231.167 58 364.5 58c132.667 0 254 -19.333 364 -58s204.167 -93.167 282.5 -163.5s139.166 -154.5 182.499 -252.5s65 -206 65 -324c0 -118.667 -21.667 -227.5 -65 -326.5
s-104.166 -184.167 -182.499 -255.5s-172.5 -126.833 -282.5 -166.5s-231.333 -59.5 -364 -59.5c-133.333 0 -254.833 19.833 -364.5 59.5s-203.667 95.167 -282 166.5s-139.166 156.5 -182.499 255.5s-65 207.833 -65 326.5zM447 786
c0 -80.667 14.5 -153.334 43.5 -218.001s69.333 -119.834 121 -165.501s112.667 -80.834 183 -105.501s146.833 -37 229.5 -37s159.167 12.333 229.5 37s131.166 59.834 182.499 105.501s91.666 100.834 120.999 165.501s44 137.334 44 218.001s-14.667 153 -44 217
s-69.666 118.167 -120.999 162.5s-112.166 78.166 -182.499 101.499s-146.833 35 -229.5 35s-159.167 -11.667 -229.5 -35s-131.333 -57.166 -183 -101.499s-92 -98.5 -121 -162.5s-43.5 -136.333 -43.5 -217zM1186 1722l387 308l155 -194l-424 -285zM592 1722l387 308
l155 -194l-424 -285z" />
    <glyph glyph-name="ohungarumlaut" unicode="&#x151;" horiz-adv-x="1696" 
d="M114 590c0 84.667 17.167 164 51.5 238s83.333 138.667 147 194s140.667 99 231 131s191.833 48 304.5 48s214.167 -16 304.5 -48s167.333 -75.667 231 -131s112.667 -120 147 -194s51.5 -153.333 51.5 -238s-17.167 -164 -51.5 -238s-83.333 -138.667 -147 -194
s-140.667 -99 -231 -131s-191.833 -48 -304.5 -48s-214.167 16 -304.5 48s-167.333 75.667 -231 131s-112.667 120 -147 194s-51.5 153.333 -51.5 238zM425 590c0 -47.333 9.5 -92.166 28.5 -134.499s46.667 -79.666 83 -111.999s80.666 -58 132.999 -77
s111.833 -28.5 178.5 -28.5s126.167 9.5 178.5 28.5s96.666 44.667 132.999 77s64 69.666 83 111.999s28.5 87.166 28.5 134.499s-9.5 92.333 -28.5 135s-46.667 80.167 -83 112.5s-80.666 58 -132.999 77s-111.833 28.5 -178.5 28.5s-126.167 -9.5 -178.5 -28.5
s-96.666 -44.667 -132.999 -77s-64 -69.833 -83 -112.5s-28.5 -87.667 -28.5 -135zM429 1453l321 466l187 -124l-336 -459zM980 1452l321 466l187 -124l-336 -459z" />
    <glyph glyph-name="OE" unicode="&#x152;" horiz-adv-x="3083" 
d="M130 786c0 118 21.667 226 65 324s104.166 182.167 182.499 252.5s172.333 124.833 282 163.5s231.167 58 364.5 58c132.667 0 254 -19.333 364 -58s204.167 -93.167 282.5 -163.5s139.166 -154.5 182.499 -252.5s65 -206 65 -324c0 -118.667 -21.667 -227.5 -65 -326.5
s-104.166 -184.167 -182.499 -255.5s-172.5 -126.833 -282.5 -166.5s-231.333 -59.5 -364 -59.5c-133.333 0 -254.833 19.833 -364.5 59.5s-203.667 95.167 -282 166.5s-139.166 156.5 -182.499 255.5s-65 207.833 -65 326.5zM447 786
c0 -80.667 14.5 -153.334 43.5 -218.001s69.333 -119.834 121 -165.501s112.667 -80.834 183 -105.501s146.833 -37 229.5 -37s159.167 12.333 229.5 37s131.166 59.834 182.499 105.501s91.666 100.834 120.999 165.501s44 137.334 44 218.001s-14.667 153 -44 217
s-69.666 118.167 -120.999 162.5s-112.166 78.166 -182.499 101.499s-146.833 35 -229.5 35s-159.167 -11.667 -229.5 -35s-131.333 -57.166 -183 -101.499s-92 -98.5 -121 -162.5s-43.5 -136.333 -43.5 -217zM1601 1563h1331v-278h-1014v-312h898v-261h-898v-435h1035v-277
h-1352v1563z" />
    <glyph glyph-name="oe" unicode="&#x153;" horiz-adv-x="2853" 
d="M114 590c0 84.667 17.167 164 51.5 238s83.333 138.667 147 194s140.667 99 231 131s191.833 48 304.5 48s214.167 -16 304.5 -48s167.333 -75.667 231 -131s112.667 -120 147 -194s51.5 -153.333 51.5 -238s-17.167 -164 -51.5 -238s-83.333 -138.667 -147 -194
s-140.667 -99 -231 -131s-191.833 -48 -304.5 -48s-214.167 16 -304.5 48s-167.333 75.667 -231 131s-112.667 120 -147 194s-51.5 153.333 -51.5 238zM425 590c0 -47.333 9.5 -92.166 28.5 -134.499s46.667 -79.666 83 -111.999s80.666 -58 132.999 -77
s111.833 -28.5 178.5 -28.5s126.167 9.5 178.5 28.5s96.666 44.667 132.999 77s64 69.666 83 111.999s28.5 87.166 28.5 134.499s-9.5 92.333 -28.5 135s-46.667 80.167 -83 112.5s-80.666 58 -132.999 77s-111.833 28.5 -178.5 28.5s-126.167 -9.5 -178.5 -28.5
s-96.666 -44.667 -132.999 -77s-64 -69.833 -83 -112.5s-28.5 -87.667 -28.5 -135zM1271 594c0 80 16.333 156.499 49 229.499s79.667 137.5 141 193.5s136.5 100.667 225.5 134s190.167 50 303.5 50c112.667 0 214.167 -16.833 304.5 -50.5s167 -79.834 230 -138.501
s111.333 -127.667 145 -207s50.5 -164.333 50.5 -255c0 -11.333 -0.166992 -23.5 -0.5 -36.5s-1.16602 -24.833 -2.5 -35.5h-1116c12.667 -35.333 33.167 -67.666 61.5 -96.999s63.833 -54.666 106.5 -75.999s92 -37.833 148 -49.5s118 -17.5 186 -17.5
s135.667 7.16699 203 21.5s131.666 32.5 193 54.5l100 -226c-38.667 -18 -77.834 -33.833 -117.5 -47.5c-39.667 -13.667 -81 -25 -124 -34s-88 -15.833 -135 -20.5s-96.5 -7 -148.5 -7c-132.667 0 -249 16 -349 48s-183.667 75.667 -251 131s-118 120.333 -152 195
s-51 155 -51 241zM2406 708.999c-10.667 32.667 -27.167 63.167 -49.5 91.5s-50.166 53 -83.5 74c-33.333 21 -72 37.5 -116 49.5s-92.333 18 -145 18c-56 0 -107 -6.33301 -153 -19s-86.333 -29.667 -121 -51s-63.5 -46 -86.5 -74s-39.833 -57.667 -50.5 -89h805z" />
    <glyph glyph-name="Racute" unicode="&#x154;" horiz-adv-x="1873" 
d="M222 1563h795c120 0 224 -12.5 312 -37.5s161 -61.167 219 -108.5s101.167 -105 129.5 -173s42.5 -145 42.5 -231c0 -58 -7 -113.167 -21 -165.5s-35.5 -100.5 -64.5 -144.5s-65.5 -83.167 -109.5 -117.5s-95.667 -62.833 -155 -85.5l340 -500h-388l-294 444h-9l-480 1
v-445h-317v1563zM1025 719c60 0 112.5 7.00098 157.5 21.001s82.667 33.667 113 59s53 56.166 68 92.499s22.5 76.833 22.5 121.5c0 87.333 -30 154.833 -90 202.5s-150.333 71.5 -271 71.5h-486v-568h486zM599 1841l674 189l70 -248l-682 -159z" />
    <glyph glyph-name="racute" unicode="&#x155;" horiz-adv-x="1027" 
d="M185 1180h296v-170c65.333 48.667 134.333 90.667 207 126s145 62.333 217 81l87 -271c-114 -11.333 -214.167 -36.833 -300.5 -76.5s-156.5 -95.5 -210.5 -167.5v-702h-296v1180zM190 1528l686 321l111 -229l-698 -299z" />
    <glyph glyph-name="Rcommaaccent" unicode="&#x156;" horiz-adv-x="1873" 
d="M222 1563h795c120 0 224 -12.5 312 -37.5s161 -61.167 219 -108.5s101.167 -105 129.5 -173s42.5 -145 42.5 -231c0 -58 -7 -113.167 -21 -165.5s-35.5 -100.5 -64.5 -144.5s-65.5 -83.167 -109.5 -117.5s-95.667 -62.833 -155 -85.5l340 -500h-388l-294 444h-9l-480 1
v-445h-317v1563zM1025 719c60 0 112.5 7.00098 157.5 21.001s82.667 33.667 113 59s53 56.166 68 92.499s22.5 76.833 22.5 121.5c0 87.333 -30 154.833 -90 202.5s-150.333 71.5 -271 71.5h-486v-568h486zM732 -204.999c0 44 16.8311 78.002 50.498 102.002
s81.5 36 143.5 36c31.333 0 59.666 -3.5 84.999 -10.5s47 -17.5 65 -31.5s31.833 -32 41.5 -54s14.5 -48 14.5 -78c0 -56.667 -24.167 -109.334 -72.5 -158.001s-118.166 -92.334 -209.499 -131.001l-89 112c16.667 9.33301 31.334 18 44.001 26s24 16 34 24
s18.833 16.167 26.5 24.5s14.5 17.833 20.5 28.5c-28 0 -51.667 3.33301 -71 10s-35.166 15.167 -47.499 25.5s-21.333 22 -27 35s-8.5 26.167 -8.5 39.5z" />
    </font>
</defs>
</svg>
